<ttFont>
<head>
    <!-- Most of this table will be recalculated by the compiler -->
    <tableVersion value="1.0"/>
    <fontRevision value="1.29999"/>
    <checkSumAdjustment value="0x60752ac5"/>
    <magicNumber value="0x5f0f3cf5"/>
    <flags value="00000000 00001001"/>
    <unitsPerEm value="1000"/>
    <created value="Mon Oct 19 13:12:27 2015"/>
    <modified value="Mon Aug  1 23:07:28 2016"/>
    <xMin value="-17"/>
    <yMin value="-333"/>
    <xMax value="783"/>
    <yMax value="1282"/>
    <macStyle value="00000000 00000000"/>
    <lowestRecPPEM value="9"/>
    <fontDirectionHint value="2"/>
    <indexToLocFormat value="0"/>
    <glyphDataFormat value="0"/>
  </head>
    <TTGlyph name=".notdef" xMin="5" yMin="-200" xMax="545" yMax="800">
      <contour>
        <pt x="5" y="800" on="1"/>
        <pt x="545" y="800" on="1"/>
        <pt x="545" y="-200" on="1"/>
        <pt x="5" y="-200" on="1"/>
      </contour>
      <contour>
        <pt x="275" y="360" on="1"/>
        <pt x="468" y="750" on="1"/>
        <pt x="82" y="750" on="1"/>
      </contour>
      <contour>
        <pt x="305" y="300" on="1"/>
        <pt x="491" y="-76" on="1"/>
        <pt x="491" y="676" on="1"/>
      </contour>
      <contour>
        <pt x="245" y="300" on="1"/>
        <pt x="59" y="676" on="1"/>
        <pt x="59" y="-76" on="1"/>
      </contour>
      <contour>
        <pt x="82" y="-150" on="1"/>
        <pt x="468" y="-150" on="1"/>
        <pt x="275" y="240" on="1"/>
      </contour>
    </TTGlyph>
    <TTGlyph name="A" xMin="26" yMin="-6" xMax="600" yMax="688">
      <contour>
        <pt x="434" y="-6" on="1"/>
        <pt x="426" y="38" on="0"/>
        <pt x="408" y="126" on="0"/>
        <pt x="399" y="171" on="1"/>
        <pt x="224" y="171" on="1"/>
        <pt x="215" y="128" on="0"/>
        <pt x="198" y="42" on="0"/>
        <pt x="189" y="0" on="1"/>
        <pt x="26" y="0" on="1"/>
        <pt x="67" y="173" on="0"/>
        <pt x="152" y="516" on="0"/>
        <pt x="200" y="688" on="1"/>
        <pt x="425" y="688" on="1"/>
        <pt x="474" y="516" on="0"/>
        <pt x="558" y="178" on="0"/>
        <pt x="600" y="6" on="1"/>
      </contour>
      <contour>
        <pt x="307" y="557" on="1"/>
        <pt x="292" y="491" on="0"/>
        <pt x="263" y="357" on="0"/>
        <pt x="249" y="289" on="1"/>
        <pt x="374" y="289" on="1"/>
        <pt x="360" y="357" on="0"/>
        <pt x="331" y="491" on="0"/>
        <pt x="317" y="557" on="1"/>
      </contour>
    </TTGlyph>
    <TTGlyph name="AE" xMin="-3" yMin="0" xMax="594" yMax="688">
      <contour>
        <pt x="283" y="554" on="1"/>
        <pt x="268" y="486" on="0"/>
        <pt x="235" y="351" on="0"/>
        <pt x="218" y="282" on="1"/>
        <pt x="289" y="282" on="1"/>
        <pt x="289" y="554" on="1"/>
      </contour>
      <contour>
        <pt x="289" y="164" on="1"/>
        <pt x="189" y="164" on="1"/>
        <pt x="178" y="122" on="0"/>
        <pt x="159" y="42" on="0"/>
        <pt x="149" y="0" on="1"/>
        <pt x="-3" y="0" on="1"/>
        <pt x="40" y="172" on="0"/>
        <pt x="141" y="517" on="0"/>
        <pt x="188" y="688" on="1"/>
        <pt x="588" y="688" on="1"/>
        <pt x="588" y="554" on="1"/>
        <pt x="420" y="554" on="1"/>
        <pt x="420" y="404" on="1"/>
        <pt x="552" y="404" on="1"/>
        <pt x="552" y="286" on="1"/>
        <pt x="420" y="286" on="1"/>
        <pt x="420" y="134" on="1"/>
        <pt x="594" y="134" on="1"/>
        <pt x="585" y="0" on="1"/>
        <pt x="289" y="0" on="1"/>
      </contour>
    </TTGlyph>
    <TTGlyph name="AEacute" xMin="-3" yMin="0" xMax="594" yMax="1013">
      <component glyphName="acute.cap" x="72" y="127" flags="0x204"/>
      <component glyphName="AE" x="0" y="0" flags="0x4"/>
    </TTGlyph>
    <TTGlyph name="Aacute" xMin="26" yMin="-6" xMax="600" yMax="1013">
      <component glyphName="A" x="0" y="0" flags="0x204"/>
      <component glyphName="acute.cap" x="18" y="127" flags="0x4"/>
    </TTGlyph>
    <TTGlyph name="Abreve" xMin="26" yMin="-6" xMax="600" yMax="979">
      <component glyphName="A" x="0" y="0" flags="0x204"/>
      <component glyphName="breve.cap" x="4" y="127" flags="0x4"/>
    </TTGlyph>
    <TTGlyph name="Acircumflex" xMin="26" yMin="-6" xMax="600" yMax="993">
      <component glyphName="A" x="0" y="0" flags="0x204"/>
      <component glyphName="circumflex.cap" x="-2" y="127" flags="0x4"/>
    </TTGlyph>
    <TTGlyph name="Adieresis" xMin="26" yMin="-6" xMax="600" yMax="927">
      <component glyphName="A" x="0" y="0" flags="0x204"/>
      <component glyphName="dieresis.cap" x="-2" y="127" flags="0x4"/>
    </TTGlyph>
    <TTGlyph name="Agrave" xMin="26" yMin="-6" xMax="600" yMax="1015">
      <component glyphName="A" x="0" y="0" flags="0x204"/>
      <component glyphName="grave.cap" x="-43" y="127" flags="0x4"/>
    </TTGlyph>
    <TTGlyph name="Amacron" xMin="26" yMin="-6" xMax="600" yMax="914">
      <component glyphName="A" x="0" y="0" flags="0x204"/>
      <component glyphName="macron.cap" x="-2" y="127" flags="0x4"/>
    </TTGlyph>
    <TTGlyph name="Aogonek" xMin="26" yMin="-253" xMax="600" yMax="688">
      <contour>
        <pt x="575" y="-253" on="1"/>
        <pt x="508" y="-252" on="0"/>
        <pt x="413" y="-231" on="0"/>
        <pt x="353" y="-198" on="0"/>
        <pt x="326" y="-155" on="0"/>
        <pt x="326" y="-131" on="1"/>
        <pt x="326" y="-99" on="0"/>
        <pt x="377" y="-35" on="0"/>
        <pt x="433" y="0" on="1"/>
        <pt x="425" y="42" on="0"/>
        <pt x="407" y="127" on="0"/>
        <pt x="399" y="171" on="1"/>
        <pt x="224" y="171" on="1"/>
        <pt x="215" y="128" on="0"/>
        <pt x="198" y="42" on="0"/>
        <pt x="189" y="0" on="1"/>
        <pt x="26" y="0" on="1"/>
        <pt x="67" y="173" on="0"/>
        <pt x="152" y="516" on="0"/>
        <pt x="200" y="688" on="1"/>
        <pt x="425" y="688" on="1"/>
        <pt x="474" y="516" on="0"/>
        <pt x="558" y="178" on="0"/>
        <pt x="600" y="6" on="1"/>
        <pt x="529" y="-23" on="0"/>
        <pt x="475" y="-68" on="0"/>
        <pt x="475" y="-85" on="1"/>
        <pt x="475" y="-103" on="0"/>
        <pt x="526" y="-126" on="0"/>
        <pt x="589" y="-131" on="1"/>
      </contour>
      <contour>
        <pt x="307" y="557" on="1"/>
        <pt x="292" y="491" on="0"/>
        <pt x="263" y="357" on="0"/>
        <pt x="249" y="289" on="1"/>
        <pt x="374" y="289" on="1"/>
        <pt x="360" y="357" on="0"/>
        <pt x="331" y="491" on="0"/>
        <pt x="317" y="557" on="1"/>
      </contour>
    </TTGlyph>
    <TTGlyph name="Aring" xMin="26" yMin="-6" xMax="600" yMax="989">
      <component glyphName="A" x="0" y="0" flags="0x204"/>
      <component glyphName="ring.cap" x="-11" y="127" flags="0x4"/>
    </TTGlyph>
    <TTGlyph name="Aringacute" xMin="26" yMin="-6" xMax="600" yMax="1282">
      <contour>
        <pt x="434" y="-6" on="1"/>
        <pt x="426" y="38" on="0"/>
        <pt x="408" y="126" on="0"/>
        <pt x="399" y="171" on="1"/>
        <pt x="224" y="171" on="1"/>
        <pt x="215" y="128" on="0"/>
        <pt x="198" y="42" on="0"/>
        <pt x="189" y="0" on="1"/>
        <pt x="26" y="0" on="1"/>
        <pt x="67" y="173" on="0"/>
        <pt x="152" y="516" on="0"/>
        <pt x="200" y="688" on="1"/>
        <pt x="425" y="688" on="1"/>
        <pt x="474" y="516" on="0"/>
        <pt x="558" y="178" on="0"/>
        <pt x="600" y="6" on="1"/>
      </contour>
      <contour>
        <pt x="307" y="557" on="1"/>
        <pt x="292" y="491" on="0"/>
        <pt x="263" y="357" on="0"/>
        <pt x="249" y="289" on="1"/>
        <pt x="374" y="289" on="1"/>
        <pt x="360" y="357" on="0"/>
        <pt x="331" y="491" on="0"/>
        <pt x="317" y="557" on="1"/>
      </contour>
      <contour>
        <pt x="309" y="989" on="1"/>
        <pt x="343" y="989" on="0"/>
        <pt x="399" y="970" on="0"/>
        <pt x="439" y="937" on="0"/>
        <pt x="461" y="893" on="0"/>
        <pt x="461" y="868" on="1"/>
        <pt x="461" y="814" on="0"/>
        <pt x="379" y="743" on="0"/>
        <pt x="309" y="743" on="1"/>
        <pt x="275" y="743" on="0"/>
        <pt x="219" y="762" on="0"/>
        <pt x="180" y="794" on="0"/>
        <pt x="158" y="838" on="0"/>
        <pt x="158" y="864" on="1"/>
        <pt x="158" y="891" on="0"/>
        <pt x="179" y="936" on="0"/>
        <pt x="218" y="970" on="0"/>
        <pt x="274" y="989" on="0"/>
      </contour>
      <contour>
        <pt x="164" y="1086" on="1"/>
        <pt x="188" y="1101" on="0"/>
        <pt x="251" y="1147" on="0"/>
        <pt x="317" y="1200" on="0"/>
        <pt x="381" y="1256" on="0"/>
        <pt x="406" y="1282" on="1"/>
        <pt x="517" y="1165" on="1"/>
        <pt x="487" y="1142" on="0"/>
        <pt x="404" y="1097" on="0"/>
        <pt x="317" y="1058" on="0"/>
        <pt x="233" y="1027" on="0"/>
        <pt x="201" y="1018" on="1"/>
        <pt x="164" y="1086" on="1"/>
      </contour>
    </TTGlyph>
    <TTGlyph name="Atilde" xMin="26" yMin="-6" xMax="600" yMax="964">
      <component glyphName="A" x="0" y="0" flags="0x204"/>
      <component glyphName="tilde.cap" x="6" y="127" flags="0x4"/>
    </TTGlyph>
    <TTGlyph name="B" xMin="89" yMin="-9" xMax="574" yMax="698">
      <contour>
        <pt x="89" y="688" on="1"/>
        <pt x="136" y="693" on="0"/>
        <pt x="220" y="698" on="0"/>
        <pt x="259" y="698" on="1"/>
        <pt x="328" y="698" on="0"/>
        <pt x="437" y="680" on="0"/>
        <pt x="513" y="639" on="0"/>
        <pt x="553" y="573" on="0"/>
        <pt x="553" y="525" on="1"/>
        <pt x="553" y="473" on="0"/>
        <pt x="504" y="395" on="0"/>
        <pt x="459" y="368" on="1"/>
        <pt x="519" y="347" on="0"/>
        <pt x="574" y="270" on="0"/>
        <pt x="574" y="210" on="1"/>
        <pt x="574" y="152" on="0"/>
        <pt x="525" y="69" on="0"/>
        <pt x="435" y="16" on="0"/>
        <pt x="309" y="-9" on="0"/>
        <pt x="233" y="-9" on="1"/>
        <pt x="165" y="-9" on="0"/>
        <pt x="89" y="0" on="1"/>
      </contour>
      <contour>
        <pt x="249" y="396" on="1"/>
        <pt x="256" y="396" on="0"/>
        <pt x="269" y="395" on="0"/>
        <pt x="275" y="395" on="1"/>
        <pt x="345" y="395" on="0"/>
        <pt x="397" y="437" on="0"/>
        <pt x="397" y="485" on="1"/>
        <pt x="397" y="569" on="0"/>
        <pt x="288" y="569" on="1"/>
        <pt x="279" y="569" on="0"/>
        <pt x="260" y="569" on="0"/>
        <pt x="249" y="567" on="1"/>
      </contour>
      <contour>
        <pt x="249" y="121" on="1"/>
        <pt x="267" y="119" on="0"/>
        <pt x="297" y="116" on="0"/>
        <pt x="311" y="116" on="1"/>
        <pt x="366" y="116" on="0"/>
        <pt x="414" y="159" on="0"/>
        <pt x="414" y="205" on="1"/>
        <pt x="414" y="253" on="0"/>
        <pt x="354" y="289" on="0"/>
        <pt x="296" y="289" on="1"/>
        <pt x="285" y="289" on="0"/>
        <pt x="262" y="288" on="0"/>
        <pt x="249" y="287" on="1"/>
      </contour>
    </TTGlyph>
    <TTGlyph name="C" xMin="69" yMin="-9" xMax="550" yMax="699">
      <contour>
        <pt x="543" y="544" on="1"/>
        <pt x="444" y="549" on="0"/>
        <pt x="325" y="531" on="0"/>
        <pt x="261" y="485" on="0"/>
        <pt x="240" y="409" on="0"/>
        <pt x="240" y="356" on="1"/>
        <pt x="240" y="296" on="0"/>
        <pt x="265" y="210" on="0"/>
        <pt x="323" y="156" on="0"/>
        <pt x="419" y="131" on="0"/>
        <pt x="491" y="131" on="1"/>
        <pt x="505" y="131" on="0"/>
        <pt x="534" y="132" on="0"/>
        <pt x="550" y="133" on="1"/>
        <pt x="536" y="-4" on="1"/>
        <pt x="512" y="-6" on="0"/>
        <pt x="467" y="-9" on="0"/>
        <pt x="445" y="-9" on="1"/>
        <pt x="337" y="-9" on="0"/>
        <pt x="193" y="44" on="0"/>
        <pt x="106" y="137" on="0"/>
        <pt x="69" y="263" on="0"/>
        <pt x="69" y="335" on="1"/>
        <pt x="69" y="408" on="0"/>
        <pt x="117" y="539" on="0"/>
        <pt x="226" y="639" on="0"/>
        <pt x="404" y="698" on="0"/>
        <pt x="534" y="699" on="1"/>
        <pt x="543" y="544" on="1"/>
      </contour>
    </TTGlyph>
    <TTGlyph name="Cacute" xMin="69" yMin="-9" xMax="555" yMax="1013">
      <component glyphName="C" x="0" y="0" flags="0x204"/>
      <component glyphName="acute.cap" x="56" y="127" flags="0x4"/>
    </TTGlyph>
    <TTGlyph name="Ccaron" xMin="69" yMin="-9" xMax="570" yMax="986">
      <component glyphName="C" x="0" y="0" flags="0x204"/>
      <component glyphName="caron.cap" x="42" y="127" flags="0x4"/>
    </TTGlyph>
    <TTGlyph name="Ccedilla" xMin="69" yMin="-263" xMax="550" yMax="699">
      <contour>
        <pt x="543" y="544" on="1"/>
        <pt x="443" y="549" on="0"/>
        <pt x="323" y="531" on="0"/>
        <pt x="259" y="485" on="0"/>
        <pt x="239" y="409" on="0"/>
        <pt x="239" y="356" on="1"/>
        <pt x="239" y="296" on="0"/>
        <pt x="264" y="210" on="0"/>
        <pt x="322" y="156" on="0"/>
        <pt x="419" y="131" on="0"/>
        <pt x="491" y="131" on="1"/>
        <pt x="505" y="131" on="0"/>
        <pt x="534" y="132" on="0"/>
        <pt x="550" y="133" on="1"/>
        <pt x="536" y="-4" on="1"/>
        <pt x="511" y="-6" on="0"/>
        <pt x="466" y="-9" on="0"/>
        <pt x="445" y="-9" on="1"/>
        <pt x="396" y="-9" on="0"/>
        <pt x="354" y="-3" on="1"/>
        <pt x="419" y="-35" on="0"/>
        <pt x="471" y="-99" on="0"/>
        <pt x="471" y="-129" on="1"/>
        <pt x="471" y="-179" on="0"/>
        <pt x="348" y="-254" on="0"/>
        <pt x="224" y="-263" on="1"/>
        <pt x="215" y="-145" on="1"/>
        <pt x="276" y="-139" on="0"/>
        <pt x="329" y="-122" on="0"/>
        <pt x="329" y="-108" on="1"/>
        <pt x="329" y="-93" on="0"/>
        <pt x="281" y="-60" on="0"/>
        <pt x="236" y="-40" on="1"/>
        <pt x="262" y="19" on="1"/>
        <pt x="208" y="38" on="0"/>
        <pt x="135" y="102" on="0"/>
        <pt x="89" y="184" on="0"/>
        <pt x="69" y="281" on="0"/>
        <pt x="69" y="335" on="1"/>
        <pt x="69" y="408" on="0"/>
        <pt x="117" y="539" on="0"/>
        <pt x="226" y="639" on="0"/>
        <pt x="404" y="698" on="0"/>
        <pt x="534" y="699" on="1"/>
      </contour>
    </TTGlyph>
    <TTGlyph name="Cdotaccent" xMin="69" yMin="-9" xMax="550" yMax="927">
      <component glyphName="dotaccent.cap" x="42" y="127" flags="0x204"/>
      <component glyphName="C" x="0" y="0" flags="0x4"/>
    </TTGlyph>
    <TTGlyph name="D" xMin="79" yMin="-9" xMax="580" yMax="699">
      <contour>
        <pt x="580" y="356" on="1"/>
        <pt x="580" y="269" on="0"/>
        <pt x="537" y="134" on="0"/>
        <pt x="447" y="40" on="0"/>
        <pt x="306" y="-9" on="0"/>
        <pt x="207" y="-9" on="1"/>
        <pt x="148" y="-9" on="0"/>
        <pt x="79" y="0" on="1"/>
        <pt x="79" y="688" on="1"/>
        <pt x="122" y="693" on="0"/>
        <pt x="198" y="699" on="0"/>
        <pt x="233" y="699" on="1"/>
        <pt x="329" y="699" on="0"/>
        <pt x="461" y="657" on="0"/>
        <pt x="543" y="571" on="0"/>
        <pt x="580" y="443" on="0"/>
      </contour>
      <contour>
        <pt x="414" y="335" on="1"/>
        <pt x="414" y="390" on="0"/>
        <pt x="401" y="477" on="0"/>
        <pt x="368" y="535" on="0"/>
        <pt x="312" y="566" on="0"/>
        <pt x="268" y="566" on="1"/>
        <pt x="261" y="566" on="0"/>
        <pt x="247" y="565" on="0"/>
        <pt x="239" y="564" on="1"/>
        <pt x="239" y="128" on="1"/>
        <pt x="252" y="126" on="0"/>
        <pt x="275" y="124" on="0"/>
        <pt x="286" y="124" on="1"/>
        <pt x="325" y="124" on="0"/>
        <pt x="375" y="149" on="0"/>
        <pt x="403" y="201" on="0"/>
        <pt x="414" y="281" on="0"/>
      </contour>
    </TTGlyph>
    <TTGlyph name="Dcaron" xMin="79" yMin="-9" xMax="580" yMax="991">
      <component glyphName="caron.cap" x="-10" y="132" flags="0x204"/>
      <component glyphName="D" x="0" y="0" flags="0x4"/>
    </TTGlyph>
    <TTGlyph name="Dcroat" xMin="18" yMin="-9" xMax="580" yMax="699">
      <contour>
        <pt x="580" y="356" on="1"/>
        <pt x="580" y="269" on="0"/>
        <pt x="537" y="134" on="0"/>
        <pt x="447" y="40" on="0"/>
        <pt x="306" y="-9" on="0"/>
        <pt x="207" y="-9" on="1"/>
        <pt x="148" y="-9" on="0"/>
        <pt x="79" y="0" on="1"/>
        <pt x="79" y="292" on="1"/>
        <pt x="18" y="292" on="1"/>
        <pt x="18" y="401" on="1"/>
        <pt x="79" y="401" on="1"/>
        <pt x="79" y="688" on="1"/>
        <pt x="122" y="693" on="0"/>
        <pt x="198" y="699" on="0"/>
        <pt x="233" y="699" on="1"/>
        <pt x="329" y="699" on="0"/>
        <pt x="461" y="657" on="0"/>
        <pt x="543" y="571" on="0"/>
        <pt x="580" y="443" on="0"/>
      </contour>
      <contour>
        <pt x="239" y="128" on="1"/>
        <pt x="252" y="126" on="0"/>
        <pt x="275" y="124" on="0"/>
        <pt x="286" y="124" on="1"/>
        <pt x="325" y="124" on="0"/>
        <pt x="375" y="149" on="0"/>
        <pt x="403" y="201" on="0"/>
        <pt x="414" y="281" on="0"/>
        <pt x="414" y="335" on="1"/>
        <pt x="414" y="390" on="0"/>
        <pt x="401" y="477" on="0"/>
        <pt x="368" y="535" on="0"/>
        <pt x="312" y="566" on="0"/>
        <pt x="268" y="566" on="1"/>
        <pt x="261" y="566" on="0"/>
        <pt x="247" y="565" on="0"/>
        <pt x="239" y="564" on="1"/>
        <pt x="239" y="401" on="1"/>
        <pt x="337" y="401" on="1"/>
        <pt x="330" y="292" on="1"/>
        <pt x="239" y="292" on="1"/>
      </contour>
    </TTGlyph>
    <TTGlyph name="E" xMin="105" yMin="0" xMax="554" yMax="688">
      <contour>
        <pt x="542" y="0" on="1"/>
        <pt x="105" y="0" on="1"/>
        <pt x="105" y="688" on="1"/>
        <pt x="546" y="688" on="1"/>
        <pt x="546" y="554" on="1"/>
        <pt x="268" y="554" on="1"/>
        <pt x="268" y="404" on="1"/>
        <pt x="503" y="404" on="1"/>
        <pt x="503" y="286" on="1"/>
        <pt x="268" y="286" on="1"/>
        <pt x="268" y="134" on="1"/>
        <pt x="554" y="134" on="1"/>
      </contour>
    </TTGlyph>
    <TTGlyph name="Eacute" xMin="105" yMin="0" xMax="554" yMax="1013">
      <component glyphName="acute.cap" x="29" y="127" flags="0x204"/>
      <component glyphName="E" x="0" y="0" flags="0x4"/>
    </TTGlyph>
    <TTGlyph name="Ebreve" xMin="101" yMin="0" xMax="557" yMax="979">
      <component glyphName="breve.cap" x="16" y="127" flags="0x204"/>
      <component glyphName="E" x="0" y="0" flags="0x4"/>
    </TTGlyph>
    <TTGlyph name="Ecaron" xMin="105" yMin="0" xMax="554" yMax="986">
      <component glyphName="caron.cap" x="16" y="127" flags="0x204"/>
      <component glyphName="E" x="0" y="0" flags="0x4"/>
    </TTGlyph>
    <TTGlyph name="Ecircumflex" xMin="105" yMin="0" xMax="554" yMax="993">
      <component glyphName="E" x="0" y="0" flags="0x204"/>
      <component glyphName="circumflex.cap" x="9" y="127" flags="0x4"/>
    </TTGlyph>
    <TTGlyph name="Edieresis" xMin="105" yMin="0" xMax="554" yMax="927">
      <component glyphName="dieresis.cap" x="9" y="127" flags="0x204"/>
      <component glyphName="E" x="0" y="0" flags="0x4"/>
    </TTGlyph>
    <TTGlyph name="Edotaccent" xMin="105" yMin="0" xMax="554" yMax="927">
      <component glyphName="dotaccent.cap" x="16" y="127" flags="0x204"/>
      <component glyphName="E" x="0" y="0" flags="0x4"/>
    </TTGlyph>
    <TTGlyph name="Egrave" xMin="105" yMin="0" xMax="554" yMax="1015">
      <component glyphName="grave.cap" x="-32" y="127" flags="0x204"/>
      <component glyphName="E" x="0" y="0" flags="0x4"/>
    </TTGlyph>
    <TTGlyph name="Emacron" xMin="105" yMin="0" xMax="554" yMax="914">
      <component glyphName="macron.cap" x="9" y="127" flags="0x204"/>
      <component glyphName="E" x="0" y="0" flags="0x4"/>
    </TTGlyph>
    <TTGlyph name="Eogonek" xMin="105" yMin="-259" xMax="554" yMax="688">
      <contour>
        <pt x="517" y="-259" on="1"/>
        <pt x="449" y="-257" on="0"/>
        <pt x="354" y="-236" on="0"/>
        <pt x="294" y="-203" on="0"/>
        <pt x="267" y="-161" on="0"/>
        <pt x="267" y="-137" on="1"/>
        <pt x="267" y="-104" on="0"/>
        <pt x="323" y="-36" on="0"/>
        <pt x="383" y="0" on="1"/>
        <pt x="105" y="0" on="1"/>
        <pt x="105" y="688" on="1"/>
        <pt x="546" y="688" on="1"/>
        <pt x="546" y="554" on="1"/>
        <pt x="268" y="554" on="1"/>
        <pt x="268" y="404" on="1"/>
        <pt x="503" y="404" on="1"/>
        <pt x="503" y="286" on="1"/>
        <pt x="268" y="286" on="1"/>
        <pt x="268" y="134" on="1"/>
        <pt x="554" y="134" on="1"/>
        <pt x="542" y="0" on="1"/>
        <pt x="471" y="-29" on="0"/>
        <pt x="417" y="-74" on="0"/>
        <pt x="417" y="-91" on="1"/>
        <pt x="417" y="-108" on="0"/>
        <pt x="467" y="-132" on="0"/>
        <pt x="530" y="-137" on="1"/>
      </contour>
    </TTGlyph>
    <TTGlyph name="Eth" xMin="18" yMin="-9" xMax="580" yMax="699">
      <component glyphName="Dcroat" x="0" y="0" flags="0x204"/>
    </TTGlyph>
    <TTGlyph name="Euro" xMin="63" yMin="-24" xMax="548" yMax="716">
      <contour>
        <pt x="529" y="-24" on="1"/>
        <pt x="437" y="-17" on="0"/>
        <pt x="305" y="18" on="0"/>
        <pt x="213" y="72" on="0"/>
        <pt x="158" y="145" on="0"/>
        <pt x="144" y="191" on="1"/>
        <pt x="64" y="191" on="1"/>
        <pt x="64" y="300" on="1"/>
        <pt x="126" y="300" on="1"/>
        <pt x="125" y="311" on="0"/>
        <pt x="125" y="334" on="0"/>
        <pt x="125" y="346" on="1"/>
        <pt x="125" y="367" on="1"/>
        <pt x="63" y="367" on="1"/>
        <pt x="63" y="476" on="1"/>
        <pt x="141" y="476" on="1"/>
        <pt x="153" y="518" on="0"/>
        <pt x="204" y="591" on="0"/>
        <pt x="293" y="652" on="0"/>
        <pt x="423" y="700" on="0"/>
        <pt x="515" y="716" on="1"/>
        <pt x="538" y="566" on="1"/>
        <pt x="475" y="558" on="0"/>
        <pt x="386" y="540" on="0"/>
        <pt x="326" y="517" on="0"/>
        <pt x="292" y="486" on="0"/>
        <pt x="283" y="464" on="1"/>
        <pt x="501" y="464" on="1"/>
        <pt x="495" y="367" on="1"/>
        <pt x="269" y="367" on="1"/>
        <pt x="269" y="350" on="1"/>
        <pt x="269" y="337" on="0"/>
        <pt x="269" y="314" on="0"/>
        <pt x="270" y="303" on="1"/>
        <pt x="491" y="303" on="1"/>
        <pt x="487" y="206" on="1"/>
        <pt x="294" y="206" on="1"/>
        <pt x="306" y="187" on="0"/>
        <pt x="345" y="156" on="0"/>
        <pt x="405" y="131" on="0"/>
        <pt x="490" y="111" on="0"/>
        <pt x="548" y="103" on="1"/>
      </contour>
    </TTGlyph>
    <TTGlyph name="F" xMin="109" yMin="0" xMax="558" yMax="688">
      <contour>
        <pt x="273" y="268" on="1"/>
        <pt x="273" y="0" on="1"/>
        <pt x="109" y="0" on="1"/>
        <pt x="109" y="688" on="1"/>
        <pt x="558" y="688" on="1"/>
        <pt x="558" y="553" on="1"/>
        <pt x="273" y="553" on="1"/>
        <pt x="273" y="393" on="1"/>
        <pt x="513" y="393" on="1"/>
        <pt x="513" y="268" on="1"/>
      </contour>
    </TTGlyph>
    <TTGlyph name="G" xMin="56" yMin="-10" xMax="554" yMax="699">
      <contour>
        <pt x="523" y="544" on="1"/>
        <pt x="423" y="552" on="0"/>
        <pt x="304" y="530" on="0"/>
        <pt x="241" y="478" on="0"/>
        <pt x="222" y="400" on="0"/>
        <pt x="222" y="351" on="1"/>
        <pt x="222" y="238" on="0"/>
        <pt x="308" y="122" on="0"/>
        <pt x="410" y="116" on="1"/>
        <pt x="413" y="116" on="1"/>
        <pt x="412" y="141" on="0"/>
        <pt x="410" y="199" on="0"/>
        <pt x="408" y="259" on="0"/>
        <pt x="406" y="318" on="0"/>
        <pt x="405" y="344" on="1"/>
        <pt x="553" y="344" on="1"/>
        <pt x="553" y="238" on="0"/>
        <pt x="554" y="78" on="0"/>
        <pt x="554" y="10" on="1"/>
        <pt x="462" y="-10" on="0"/>
        <pt x="389" y="-10" on="1"/>
        <pt x="306" y="-10" on="0"/>
        <pt x="182" y="36" on="0"/>
        <pt x="98" y="123" on="0"/>
        <pt x="56" y="247" on="0"/>
        <pt x="56" y="325" on="1"/>
        <pt x="56" y="401" on="0"/>
        <pt x="101" y="536" on="0"/>
        <pt x="207" y="636" on="0"/>
        <pt x="382" y="696" on="0"/>
        <pt x="513" y="699" on="1"/>
        <pt x="523" y="544" on="1"/>
      </contour>
    </TTGlyph>
    <TTGlyph name="Gbreve" xMin="56" yMin="-10" xMax="569" yMax="979">
      <component glyphName="breve.cap" x="28" y="127" flags="0x204"/>
      <component glyphName="G" x="0" y="0" flags="0x4"/>
    </TTGlyph>
    <TTGlyph name="Gcommaaccent" xMin="56" yMin="-333" xMax="554" yMax="699">
      <component glyphName="G" x="0" y="0" flags="0x204"/>
      <component glyphName="commaaccent.cap" x="23" y="-10" flags="0x4"/>
    </TTGlyph>
    <TTGlyph name="Gdotaccent" xMin="56" yMin="-10" xMax="554" yMax="927">
      <component glyphName="dotaccent.cap" x="28" y="127" flags="0x204"/>
      <component glyphName="G" x="0" y="0" flags="0x4"/>
    </TTGlyph>
    <TTGlyph name="H" xMin="71" yMin="0" xMax="554" yMax="688">
      <contour>
        <pt x="387" y="284" on="1"/>
        <pt x="238" y="284" on="1"/>
        <pt x="238" y="0" on="1"/>
        <pt x="71" y="0" on="1"/>
        <pt x="71" y="688" on="1"/>
        <pt x="238" y="688" on="1"/>
        <pt x="238" y="408" on="1"/>
        <pt x="387" y="408" on="1"/>
        <pt x="387" y="688" on="1"/>
        <pt x="554" y="688" on="1"/>
        <pt x="554" y="0" on="1"/>
        <pt x="387" y="0" on="1"/>
      </contour>
    </TTGlyph>
    <TTGlyph name="Hbar" xMin="10" yMin="0" xMax="615" yMax="688">
      <contour>
        <pt x="387" y="481" on="1"/>
        <pt x="238" y="481" on="1"/>
        <pt x="238" y="386" on="1"/>
        <pt x="387" y="386" on="1"/>
      </contour>
      <contour>
        <pt x="387" y="262" on="1"/>
        <pt x="238" y="262" on="1"/>
        <pt x="238" y="0" on="1"/>
        <pt x="71" y="0" on="1"/>
        <pt x="71" y="475" on="1"/>
        <pt x="10" y="475" on="1"/>
        <pt x="10" y="584" on="1"/>
        <pt x="71" y="584" on="1"/>
        <pt x="71" y="688" on="1"/>
        <pt x="238" y="688" on="1"/>
        <pt x="238" y="578" on="1"/>
        <pt x="387" y="578" on="1"/>
        <pt x="387" y="688" on="1"/>
        <pt x="554" y="688" on="1"/>
        <pt x="554" y="584" on="1"/>
        <pt x="615" y="584" on="1"/>
        <pt x="615" y="475" on="1"/>
        <pt x="554" y="475" on="1"/>
        <pt x="554" y="0" on="1"/>
        <pt x="387" y="0" on="1"/>
      </contour>
    </TTGlyph>
    <TTGlyph name="I" xMin="86" yMin="0" xMax="549" yMax="688">
      <contour>
        <pt x="396" y="125" on="1"/>
        <pt x="549" y="125" on="1"/>
        <pt x="538" y="0" on="1"/>
        <pt x="86" y="0" on="1"/>
        <pt x="86" y="125" on="1"/>
        <pt x="232" y="125" on="1"/>
        <pt x="232" y="563" on="1"/>
        <pt x="86" y="563" on="1"/>
        <pt x="86" y="688" on="1"/>
        <pt x="542" y="688" on="1"/>
        <pt x="542" y="563" on="1"/>
        <pt x="396" y="563" on="1"/>
      </contour>
    </TTGlyph>
    <TTGlyph name="Iacute" xMin="86" yMin="0" xMax="549" yMax="1013">
      <component glyphName="I" x="0" y="0" flags="0x204"/>
      <component glyphName="acute.cap" x="25" y="127" flags="0x4"/>
    </TTGlyph>
    <TTGlyph name="Ibreve" xMin="86" yMin="0" xMax="553" yMax="979">
      <component glyphName="I" x="0" y="0" flags="0x204"/>
      <component glyphName="breve.cap" x="12" y="127" flags="0x4"/>
    </TTGlyph>
    <TTGlyph name="Icircumflex" xMin="86" yMin="0" xMax="549" yMax="993">
      <component glyphName="I" x="0" y="0" flags="0x204"/>
      <component glyphName="circumflex.cap" x="6" y="127" flags="0x4"/>
    </TTGlyph>
    <TTGlyph name="Idieresis" xMin="86" yMin="0" xMax="549" yMax="927">
      <component glyphName="I" x="0" y="0" flags="0x204"/>
      <component glyphName="dieresis.cap" x="5" y="127" flags="0x4"/>
    </TTGlyph>
    <TTGlyph name="Idotaccent" xMin="86" yMin="0" xMax="549" yMax="927">
      <component glyphName="I" x="0" y="0" flags="0x204"/>
      <component glyphName="dotaccent.cap" x="12" y="127" flags="0x4"/>
    </TTGlyph>
    <TTGlyph name="Igrave" xMin="86" yMin="0" xMax="549" yMax="1015">
      <component glyphName="I" x="0" y="0" flags="0x204"/>
      <component glyphName="grave.cap" x="-36" y="127" flags="0x4"/>
    </TTGlyph>
    <TTGlyph name="Imacron" xMin="86" yMin="0" xMax="549" yMax="914">
      <component glyphName="I" x="0" y="0" flags="0x204"/>
      <component glyphName="macron.cap" x="5" y="127" flags="0x4"/>
    </TTGlyph>
    <TTGlyph name="Iogonek" xMin="86" yMin="-253" xMax="549" yMax="688">
      <contour>
        <pt x="420" y="-253" on="1"/>
        <pt x="352" y="-252" on="0"/>
        <pt x="257" y="-231" on="0"/>
        <pt x="197" y="-197" on="0"/>
        <pt x="170" y="-152" on="0"/>
        <pt x="170" y="-127" on="1"/>
        <pt x="170" y="-98" on="0"/>
        <pt x="209" y="-34" on="0"/>
        <pt x="251" y="0" on="1"/>
        <pt x="86" y="0" on="1"/>
        <pt x="86" y="125" on="1"/>
        <pt x="232" y="125" on="1"/>
        <pt x="232" y="563" on="1"/>
        <pt x="86" y="563" on="1"/>
        <pt x="86" y="688" on="1"/>
        <pt x="542" y="688" on="1"/>
        <pt x="542" y="563" on="1"/>
        <pt x="396" y="563" on="1"/>
        <pt x="396" y="125" on="1"/>
        <pt x="549" y="125" on="1"/>
        <pt x="538" y="0" on="1"/>
        <pt x="381" y="0" on="1"/>
        <pt x="346" y="-26" on="0"/>
        <pt x="320" y="-68" on="0"/>
        <pt x="320" y="-85" on="1"/>
        <pt x="320" y="-103" on="0"/>
        <pt x="370" y="-126" on="0"/>
        <pt x="433" y="-131" on="1"/>
      </contour>
    </TTGlyph>
    <TTGlyph name="J" xMin="86" yMin="-11" xMax="505" yMax="688">
      <contour>
        <pt x="505" y="688" on="1"/>
        <pt x="505" y="244" on="1"/>
        <pt x="505" y="178" on="0"/>
        <pt x="466" y="81" on="0"/>
        <pt x="378" y="19" on="0"/>
        <pt x="234" y="-11" on="0"/>
        <pt x="129" y="-11" on="1"/>
        <pt x="118" y="-11" on="0"/>
        <pt x="97" y="-10" on="0"/>
        <pt x="86" y="-10" on="1"/>
        <pt x="86" y="130" on="1"/>
        <pt x="150" y="127" on="0"/>
        <pt x="194" y="127" on="1"/>
        <pt x="246" y="127" on="0"/>
        <pt x="306" y="138" on="0"/>
        <pt x="334" y="165" on="0"/>
        <pt x="341" y="209" on="0"/>
        <pt x="341" y="242" on="1"/>
        <pt x="341" y="559" on="1"/>
        <pt x="126" y="559" on="1"/>
        <pt x="126" y="688" on="1"/>
      </contour>
    </TTGlyph>
    <TTGlyph name="K" xMin="78" yMin="-10" xMax="604" yMax="688">
      <contour>
        <pt x="280" y="281" on="1"/>
        <pt x="241" y="281" on="1"/>
        <pt x="241" y="0" on="1"/>
        <pt x="78" y="0" on="1"/>
        <pt x="78" y="688" on="1"/>
        <pt x="241" y="688" on="1"/>
        <pt x="241" y="416" on="1"/>
        <pt x="285" y="416" on="1"/>
        <pt x="415" y="688" on="1"/>
        <pt x="588" y="688" on="1"/>
        <pt x="416" y="357" on="1"/>
        <pt x="604" y="10" on="1"/>
        <pt x="428" y="-10" on="1"/>
      </contour>
    </TTGlyph>
    <TTGlyph name="Kcommaaccent" xMin="78" yMin="-333" xMax="604" yMax="688">
      <component glyphName="K" x="0" y="0" flags="0x204"/>
      <component glyphName="commaaccent.cap" x="4" y="-10" flags="0x4"/>
    </TTGlyph>
    <TTGlyph name="L" xMin="111" yMin="0" xMax="562" yMax="688">
      <contour>
        <pt x="111" y="0" on="1"/>
        <pt x="111" y="688" on="1"/>
        <pt x="276" y="688" on="1"/>
        <pt x="276" y="135" on="1"/>
        <pt x="562" y="135" on="1"/>
        <pt x="549" y="0" on="1"/>
      </contour>
    </TTGlyph>
    <TTGlyph name="Lacute" xMin="111" yMin="0" xMax="562" yMax="1013">
      <component glyphName="acute.cap" x="37" y="127" flags="0x204"/>
      <component glyphName="L" x="0" y="0" flags="0x4"/>
    </TTGlyph>
    <TTGlyph name="Lcaron" xMin="111" yMin="0" xMax="562" yMax="787">
      <component glyphName="L" x="0" y="0" flags="0x204"/>
      <component glyphName="caron.alt" x="166" y="-111" flags="0x4"/>
    </TTGlyph>
    <TTGlyph name="Lcommaaccent" xMin="111" yMin="-323" xMax="562" yMax="688">
      <component glyphName="L" x="0" y="0" flags="0x204"/>
      <component glyphName="commaaccent.cap" x="19" y="0" flags="0x4"/>
    </TTGlyph>
    <TTGlyph name="Ldot" xMin="111" yMin="0" xMax="575" yMax="688">
      <contour>
        <pt x="420" y="283" on="1"/>
        <pt x="430" y="447" on="1"/>
        <pt x="575" y="447" on="1"/>
        <pt x="566" y="283" on="1"/>
      </contour>
      <contour>
        <pt x="111" y="0" on="1"/>
        <pt x="111" y="688" on="1"/>
        <pt x="276" y="688" on="1"/>
        <pt x="276" y="135" on="1"/>
        <pt x="562" y="135" on="1"/>
        <pt x="549" y="0" on="1"/>
      </contour>
    </TTGlyph>
    <TTGlyph name="Lslash" xMin="31" yMin="0" xMax="562" yMax="688">
      <contour>
        <pt x="111" y="0" on="1"/>
        <pt x="111" y="290" on="1"/>
        <pt x="55" y="262" on="1"/>
        <pt x="31" y="366" on="1"/>
        <pt x="111" y="406" on="1"/>
        <pt x="111" y="688" on="1"/>
        <pt x="276" y="688" on="1"/>
        <pt x="276" y="488" on="1"/>
        <pt x="377" y="538" on="1"/>
        <pt x="400" y="434" on="1"/>
        <pt x="276" y="372" on="1"/>
        <pt x="276" y="135" on="1"/>
        <pt x="562" y="135" on="1"/>
        <pt x="549" y="0" on="1"/>
      </contour>
    </TTGlyph>
    <TTGlyph name="M" xMin="65" yMin="0" xMax="560" yMax="688">
      <contour>
        <pt x="560" y="688" on="1"/>
        <pt x="560" y="0" on="1"/>
        <pt x="410" y="0" on="1"/>
        <pt x="419" y="384" on="1"/>
        <pt x="414" y="384" on="1"/>
        <pt x="349" y="153" on="1"/>
        <pt x="270" y="153" on="1"/>
        <pt x="205" y="384" on="1"/>
        <pt x="200" y="384" on="1"/>
        <pt x="209" y="0" on="1"/>
        <pt x="65" y="0" on="1"/>
        <pt x="65" y="688" on="1"/>
        <pt x="209" y="688" on="1"/>
        <pt x="311" y="329" on="1"/>
        <pt x="316" y="329" on="1"/>
        <pt x="417" y="688" on="1"/>
      </contour>
    </TTGlyph>
    <TTGlyph name="N" xMin="72" yMin="0" xMax="553" yMax="688">
      <contour>
        <pt x="221" y="383" on="1"/>
        <pt x="216" y="383" on="1"/>
        <pt x="222" y="0" on="1"/>
        <pt x="72" y="0" on="1"/>
        <pt x="72" y="688" on="1"/>
        <pt x="215" y="688" on="1"/>
        <pt x="405" y="305" on="1"/>
        <pt x="410" y="305" on="1"/>
        <pt x="403" y="688" on="1"/>
        <pt x="553" y="688" on="1"/>
        <pt x="553" y="0" on="1"/>
        <pt x="421" y="0" on="1"/>
      </contour>
    </TTGlyph>
    <TTGlyph name="Nacute" xMin="72" yMin="0" xMax="553" yMax="1013">
      <component glyphName="acute.cap" x="23" y="127" flags="0x204"/>
      <component glyphName="N" x="0" y="0" flags="0x4"/>
    </TTGlyph>
    <TTGlyph name="Ncaron" xMin="72" yMin="0" xMax="553" yMax="986">
      <component glyphName="caron.cap" x="10" y="127" flags="0x204"/>
      <component glyphName="N" x="0" y="0" flags="0x4"/>
    </TTGlyph>
    <TTGlyph name="Ncommaaccent" xMin="72" yMin="-323" xMax="553" yMax="688">
      <component glyphName="commaaccent.cap" x="6" y="0" flags="0x204"/>
      <component glyphName="N" x="0" y="0" flags="0x4"/>
    </TTGlyph>
    <TTGlyph name="Ntilde" xMin="72" yMin="0" xMax="563" yMax="964">
      <component glyphName="tilde.cap" x="11" y="127" flags="0x204"/>
      <component glyphName="N" x="0" y="0" flags="0x4"/>
    </TTGlyph>
    <TTGlyph name="O" xMin="46" yMin="-18" xMax="579" yMax="706">
      <contour>
        <pt x="293" y="-18" on="1"/>
        <pt x="173" y="-18" on="0"/>
        <pt x="46" y="155" on="0"/>
        <pt x="46" y="320" on="1"/>
        <pt x="46" y="414" on="0"/>
        <pt x="86" y="559" on="0"/>
        <pt x="160" y="656" on="0"/>
        <pt x="266" y="706" on="0"/>
        <pt x="331" y="706" on="1"/>
        <pt x="452" y="706" on="0"/>
        <pt x="579" y="534" on="0"/>
        <pt x="579" y="369" on="1"/>
        <pt x="579" y="274" on="0"/>
        <pt x="539" y="130" on="0"/>
        <pt x="464" y="32" on="0"/>
        <pt x="359" y="-18" on="0"/>
      </contour>
      <contour>
        <pt x="307" y="573" on="1"/>
        <pt x="256" y="573" on="0"/>
        <pt x="215" y="469" on="0"/>
        <pt x="215" y="356" on="1"/>
        <pt x="215" y="115" on="0"/>
        <pt x="318" y="115" on="1"/>
        <pt x="368" y="115" on="0"/>
        <pt x="410" y="219" on="0"/>
        <pt x="410" y="332" on="1"/>
        <pt x="410" y="454" on="0"/>
        <pt x="357" y="573" on="0"/>
      </contour>
    </TTGlyph>
    <TTGlyph name="OE" xMin="34" yMin="0" xMax="586" yMax="688">
      <contour>
        <pt x="195" y="354" on="1"/>
        <pt x="195" y="295" on="0"/>
        <pt x="205" y="211" on="0"/>
        <pt x="227" y="158" on="0"/>
        <pt x="263" y="134" on="0"/>
        <pt x="289" y="134" on="1"/>
        <pt x="289" y="553" on="1"/>
        <pt x="263" y="553" on="0"/>
        <pt x="228" y="535" on="0"/>
        <pt x="205" y="489" on="0"/>
        <pt x="195" y="412" on="0"/>
      </contour>
      <contour>
        <pt x="579" y="0" on="1"/>
        <pt x="320" y="0" on="1"/>
        <pt x="248" y="0" on="0"/>
        <pt x="141" y="35" on="0"/>
        <pt x="69" y="114" on="0"/>
        <pt x="34" y="241" on="0"/>
        <pt x="34" y="332" on="1"/>
        <pt x="34" y="506" on="0"/>
        <pt x="181" y="688" on="0"/>
        <pt x="321" y="688" on="1"/>
        <pt x="581" y="688" on="1"/>
        <pt x="581" y="554" on="1"/>
        <pt x="421" y="554" on="1"/>
        <pt x="421" y="404" on="1"/>
        <pt x="545" y="404" on="1"/>
        <pt x="545" y="286" on="1"/>
        <pt x="421" y="286" on="1"/>
        <pt x="421" y="134" on="1"/>
        <pt x="586" y="134" on="1"/>
      </contour>
    </TTGlyph>
    <TTGlyph name="Oacute" xMin="46" yMin="-18" xMax="579" yMax="1020">
      <component glyphName="acute.cap" x="26" y="134" flags="0x204"/>
      <component glyphName="O" x="0" y="0" flags="0x4"/>
    </TTGlyph>
    <TTGlyph name="Obreve" xMin="46" yMin="-18" xMax="579" yMax="986">
      <component glyphName="breve.cap" x="12" y="134" flags="0x204"/>
      <component glyphName="O" x="0" y="0" flags="0x4"/>
    </TTGlyph>
    <TTGlyph name="Ocircumflex" xMin="46" yMin="-18" xMax="579" yMax="1000">
      <component glyphName="O" x="0" y="0" flags="0x204"/>
      <component glyphName="circumflex.cap" x="6" y="134" flags="0x4"/>
    </TTGlyph>
    <TTGlyph name="Odieresis" xMin="46" yMin="-18" xMax="579" yMax="934">
      <component glyphName="dieresis.cap" x="6" y="134" flags="0x204"/>
      <component glyphName="O" x="0" y="0" flags="0x4"/>
    </TTGlyph>
    <TTGlyph name="Ograve" xMin="46" yMin="-18" xMax="579" yMax="1022">
      <component glyphName="grave.cap" x="-36" y="134" flags="0x204"/>
      <component glyphName="O" x="0" y="0" flags="0x4"/>
    </TTGlyph>
    <TTGlyph name="Ohungarumlaut" xMin="46" yMin="-18" xMax="622" yMax="1035">
      <component glyphName="O" x="0" y="0" flags="0x204"/>
      <component glyphName="hungarumlaut.cap" x="-9" y="134" flags="0x4"/>
    </TTGlyph>
    <TTGlyph name="Omacron" xMin="46" yMin="-18" xMax="579" yMax="921">
      <component glyphName="macron.cap" x="6" y="134" flags="0x204"/>
      <component glyphName="O" x="0" y="0" flags="0x4"/>
    </TTGlyph>
    <TTGlyph name="Omega" xMin="56" yMin="0" xMax="570" yMax="705">
      <contour>
        <pt x="278" y="0" on="1"/>
        <pt x="56" y="0" on="1"/>
        <pt x="56" y="125" on="1"/>
        <pt x="129" y="125" on="1"/>
        <pt x="101" y="203" on="0"/>
        <pt x="72" y="346" on="0"/>
        <pt x="72" y="411" on="1"/>
        <pt x="72" y="476" on="0"/>
        <pt x="105" y="584" on="0"/>
        <pt x="168" y="662" on="0"/>
        <pt x="260" y="705" on="0"/>
        <pt x="319" y="705" on="1"/>
        <pt x="376" y="705" on="0"/>
        <pt x="464" y="662" on="0"/>
        <pt x="523" y="586" on="0"/>
        <pt x="554" y="481" on="0"/>
        <pt x="554" y="418" on="1"/>
        <pt x="554" y="352" on="0"/>
        <pt x="526" y="206" on="0"/>
        <pt x="496" y="125" on="1"/>
        <pt x="570" y="125" on="1"/>
        <pt x="570" y="0" on="1"/>
        <pt x="348" y="0" on="1"/>
        <pt x="346" y="8" on="1"/>
        <pt x="374" y="123" on="0"/>
        <pt x="401" y="307" on="0"/>
        <pt x="401" y="376" on="1"/>
        <pt x="401" y="468" on="0"/>
        <pt x="356" y="562" on="0"/>
        <pt x="313" y="562" on="1"/>
        <pt x="269" y="562" on="0"/>
        <pt x="223" y="471" on="0"/>
        <pt x="223" y="381" on="1"/>
        <pt x="223" y="312" on="0"/>
        <pt x="252" y="126" on="0"/>
        <pt x="281" y="8" on="1"/>
      </contour>
    </TTGlyph>
    <TTGlyph name="Oslash" xMin="46" yMin="-57" xMax="579" yMax="745">
      <contour>
        <pt x="211" y="356" on="1"/>
        <pt x="211" y="325" on="0"/>
        <pt x="214" y="272" on="0"/>
        <pt x="218" y="249" on="1"/>
        <pt x="369" y="542" on="1"/>
        <pt x="344" y="574" on="0"/>
        <pt x="307" y="574" on="1"/>
        <pt x="256" y="574" on="0"/>
        <pt x="211" y="471" on="0"/>
      </contour>
      <contour>
        <pt x="318" y="114" on="1"/>
        <pt x="369" y="114" on="0"/>
        <pt x="413" y="217" on="0"/>
        <pt x="413" y="332" on="1"/>
        <pt x="413" y="363" on="0"/>
        <pt x="410" y="417" on="0"/>
        <pt x="406" y="440" on="1"/>
        <pt x="255" y="146" on="1"/>
        <pt x="281" y="114" on="0"/>
      </contour>
      <contour>
        <pt x="293" y="-18" on="1"/>
        <pt x="239" y="-18" on="0"/>
        <pt x="197" y="0" on="1"/>
        <pt x="168" y="-57" on="1"/>
        <pt x="69" y="-6" on="1"/>
        <pt x="110" y="69" on="1"/>
        <pt x="46" y="156" on="0"/>
        <pt x="46" y="320" on="1"/>
        <pt x="46" y="414" on="0"/>
        <pt x="86" y="559" on="0"/>
        <pt x="160" y="656" on="0"/>
        <pt x="266" y="706" on="0"/>
        <pt x="331" y="706" on="1"/>
        <pt x="388" y="706" on="0"/>
        <pt x="430" y="687" on="1"/>
        <pt x="458" y="745" on="1"/>
        <pt x="556" y="694" on="1"/>
        <pt x="517" y="617" on="1"/>
        <pt x="579" y="531" on="0"/>
        <pt x="579" y="369" on="1"/>
        <pt x="579" y="274" on="0"/>
        <pt x="539" y="130" on="0"/>
        <pt x="464" y="32" on="0"/>
        <pt x="359" y="-18" on="0"/>
      </contour>
    </TTGlyph>
    <TTGlyph name="Oslashacute" xMin="46" yMin="-57" xMax="579" yMax="1021">
      <component glyphName="Oslash" x="0" y="0" flags="0x204"/>
      <component glyphName="acute.cap" x="20" y="135" flags="0x4"/>
    </TTGlyph>
    <TTGlyph name="Otilde" xMin="46" yMin="-18" xMax="579" yMax="971">
      <component glyphName="tilde.cap" x="13" y="134" flags="0x204"/>
      <component glyphName="O" x="0" y="0" flags="0x4"/>
    </TTGlyph>
    <TTGlyph name="P" xMin="90" yMin="0" xMax="582" yMax="699">
      <contour>
        <pt x="90" y="0" on="1"/>
        <pt x="90" y="688" on="1"/>
        <pt x="134" y="693" on="0"/>
        <pt x="213" y="699" on="0"/>
        <pt x="248" y="699" on="1"/>
        <pt x="419" y="699" on="0"/>
        <pt x="582" y="582" on="0"/>
        <pt x="582" y="470" on="1"/>
        <pt x="582" y="406" on="0"/>
        <pt x="533" y="310" on="0"/>
        <pt x="445" y="242" on="0"/>
        <pt x="324" y="200" on="0"/>
        <pt x="252" y="190" on="1"/>
        <pt x="252" y="0" on="1"/>
      </contour>
      <contour>
        <pt x="423" y="436" on="1"/>
        <pt x="423" y="564" on="0"/>
        <pt x="283" y="564" on="1"/>
        <pt x="275" y="564" on="0"/>
        <pt x="260" y="564" on="0"/>
        <pt x="252" y="563" on="1"/>
        <pt x="252" y="322" on="1"/>
        <pt x="267" y="320" on="0"/>
        <pt x="295" y="317" on="0"/>
        <pt x="307" y="317" on="1"/>
        <pt x="366" y="317" on="0"/>
        <pt x="423" y="373" on="0"/>
      </contour>
    </TTGlyph>
    <TTGlyph name="Q" xMin="46" yMin="-172" xMax="579" yMax="706">
      <contour>
        <pt x="223" y="-89" on="1"/>
        <pt x="249" y="-15" on="1"/>
        <pt x="150" y="1" on="0"/>
        <pt x="46" y="171" on="0"/>
        <pt x="46" y="320" on="1"/>
        <pt x="46" y="414" on="0"/>
        <pt x="86" y="559" on="0"/>
        <pt x="160" y="656" on="0"/>
        <pt x="266" y="706" on="0"/>
        <pt x="331" y="706" on="1"/>
        <pt x="452" y="706" on="0"/>
        <pt x="579" y="534" on="0"/>
        <pt x="579" y="369" on="1"/>
        <pt x="579" y="227" on="0"/>
        <pt x="491" y="46" on="0"/>
        <pt x="413" y="8" on="1"/>
        <pt x="413" y="-1" on="1"/>
        <pt x="540" y="-41" on="1"/>
        <pt x="495" y="-172" on="1"/>
      </contour>
      <contour>
        <pt x="307" y="573" on="1"/>
        <pt x="254" y="573" on="0"/>
        <pt x="215" y="468" on="0"/>
        <pt x="215" y="356" on="1"/>
        <pt x="215" y="234" on="0"/>
        <pt x="264" y="115" on="0"/>
        <pt x="318" y="115" on="1"/>
        <pt x="371" y="115" on="0"/>
        <pt x="410" y="219" on="0"/>
        <pt x="410" y="332" on="1"/>
        <pt x="410" y="454" on="0"/>
        <pt x="361" y="573" on="0"/>
      </contour>
    </TTGlyph>
    <TTGlyph name="R" xMin="84" yMin="-10" xMax="608" yMax="698">
      <contour>
        <pt x="321" y="224" on="1"/>
        <pt x="245" y="222" on="1"/>
        <pt x="245" y="0" on="1"/>
        <pt x="84" y="0" on="1"/>
        <pt x="84" y="688" on="1"/>
        <pt x="129" y="693" on="0"/>
        <pt x="208" y="698" on="0"/>
        <pt x="243" y="698" on="1"/>
        <pt x="332" y="698" on="0"/>
        <pt x="452" y="668" on="0"/>
        <pt x="524" y="614" on="0"/>
        <pt x="555" y="539" on="0"/>
        <pt x="555" y="494" on="1"/>
        <pt x="555" y="431" on="0"/>
        <pt x="496" y="342" on="0"/>
        <pt x="448" y="308" on="1"/>
        <pt x="608" y="10" on="1"/>
        <pt x="432" y="-10" on="1"/>
      </contour>
      <contour>
        <pt x="245" y="335" on="1"/>
        <pt x="334" y="337" on="1"/>
        <pt x="363" y="359" on="0"/>
        <pt x="396" y="419" on="0"/>
        <pt x="396" y="457" on="1"/>
        <pt x="396" y="566" on="0"/>
        <pt x="277" y="566" on="1"/>
        <pt x="269" y="566" on="0"/>
        <pt x="253" y="565" on="0"/>
        <pt x="245" y="564" on="1"/>
      </contour>
    </TTGlyph>
    <TTGlyph name="R_p" xMin="26" yMin="-195" xMax="604" yMax="692">
      <contour>
        <pt x="160" y="249" on="1"/>
        <pt x="135" y="248" on="1"/>
        <pt x="144" y="0" on="1"/>
        <pt x="26" y="0" on="1"/>
        <pt x="26" y="687" on="1"/>
        <pt x="45" y="689" on="0"/>
        <pt x="79" y="692" on="0"/>
        <pt x="96" y="692" on="1"/>
        <pt x="153" y="692" on="0"/>
        <pt x="237" y="663" on="0"/>
        <pt x="291" y="610" on="0"/>
        <pt x="317" y="536" on="0"/>
        <pt x="317" y="491" on="1"/>
        <pt x="317" y="435" on="0"/>
        <pt x="283" y="341" on="0"/>
        <pt x="256" y="304" on="1"/>
        <pt x="316" y="2" on="1"/>
        <pt x="201" y="-4" on="1"/>
      </contour>
      <contour>
        <pt x="343" y="-195" on="1"/>
        <pt x="343" y="529" on="1"/>
        <pt x="415" y="529" on="1"/>
        <pt x="419" y="514" on="1"/>
        <pt x="462" y="534" on="0"/>
        <pt x="494" y="534" on="1"/>
        <pt x="551" y="534" on="0"/>
        <pt x="604" y="410" on="0"/>
        <pt x="604" y="285" on="1"/>
        <pt x="604" y="208" on="0"/>
        <pt x="580" y="101" on="0"/>
        <pt x="539" y="34" on="0"/>
        <pt x="486" y="4" on="0"/>
        <pt x="457" y="4" on="1"/>
        <pt x="451" y="4" on="1"/>
        <pt x="451" y="-182" on="1"/>
      </contour>
    </TTGlyph>
    <TTGlyph name="Racute" xMin="84" yMin="-10" xMax="608" yMax="1018">
      <component glyphName="R" x="0" y="0" flags="0x204"/>
      <component glyphName="acute.cap" x="1" y="132" flags="0x4"/>
    </TTGlyph>
    <TTGlyph name="Rcaron" xMin="84" yMin="-10" xMax="608" yMax="991">
      <component glyphName="caron.cap" x="-12" y="132" flags="0x204"/>
      <component glyphName="R" x="0" y="0" flags="0x4"/>
    </TTGlyph>
    <TTGlyph name="Rcommaaccent" xMin="84" yMin="-333" xMax="608" yMax="698">
      <component glyphName="R" x="0" y="0" flags="0x204"/>
      <component glyphName="commaaccent.cap" x="22" y="-10" flags="0x4"/>
    </TTGlyph>
    <TTGlyph name="S" xMin="85" yMin="-9" xMax="554" yMax="696">
      <contour>
        <pt x="90" y="135" on="1"/>
        <pt x="122" y="133" on="0"/>
        <pt x="177" y="131" on="0"/>
        <pt x="201" y="131" on="1"/>
        <pt x="301" y="131" on="0"/>
        <pt x="383" y="164" on="0"/>
        <pt x="383" y="193" on="1"/>
        <pt x="383" y="217" on="0"/>
        <pt x="339" y="258" on="0"/>
        <pt x="273" y="296" on="0"/>
        <pt x="195" y="337" on="0"/>
        <pt x="129" y="385" on="0"/>
        <pt x="85" y="445" on="0"/>
        <pt x="85" y="485" on="1"/>
        <pt x="85" y="524" on="0"/>
        <pt x="128" y="599" on="0"/>
        <pt x="219" y="659" on="0"/>
        <pt x="358" y="696" on="0"/>
        <pt x="454" y="696" on="1"/>
        <pt x="465" y="696" on="0"/>
        <pt x="489" y="696" on="0"/>
        <pt x="501" y="695" on="1"/>
        <pt x="510" y="551" on="1"/>
        <pt x="474" y="553" on="0"/>
        <pt x="415" y="556" on="0"/>
        <pt x="391" y="556" on="1"/>
        <pt x="351" y="556" on="0"/>
        <pt x="299" y="549" on="0"/>
        <pt x="268" y="537" on="0"/>
        <pt x="256" y="518" on="0"/>
        <pt x="256" y="506" on="1"/>
        <pt x="256" y="484" on="0"/>
        <pt x="300" y="447" on="0"/>
        <pt x="366" y="409" on="0"/>
        <pt x="444" y="367" on="0"/>
        <pt x="510" y="316" on="0"/>
        <pt x="554" y="253" on="0"/>
        <pt x="554" y="212" on="1"/>
        <pt x="554" y="171" on="0"/>
        <pt x="510" y="92" on="0"/>
        <pt x="409" y="29" on="0"/>
        <pt x="246" y="-9" on="0"/>
        <pt x="127" y="-9" on="1"/>
        <pt x="90" y="-9" on="1"/>
        <pt x="90" y="135" on="1"/>
      </contour>
    </TTGlyph>
    <TTGlyph name="Sacute" xMin="85" yMin="-9" xMax="554" yMax="1019">
      <component glyphName="S" x="0" y="0" flags="0x204"/>
      <component glyphName="acute.cap" x="30" y="133" flags="0x4"/>
    </TTGlyph>
    <TTGlyph name="Scaron" xMin="85" yMin="-9" xMax="554" yMax="992">
      <component glyphName="S" x="0" y="0" flags="0x204"/>
      <component glyphName="caron.cap" x="17" y="133" flags="0x4"/>
    </TTGlyph>
    <TTGlyph name="Scedilla" xMin="85" yMin="-265" xMax="554" yMax="696">
      <contour>
        <pt x="172" y="-147" on="1"/>
        <pt x="233" y="-141" on="0"/>
        <pt x="286" y="-124" on="0"/>
        <pt x="286" y="-110" on="1"/>
        <pt x="286" y="-95" on="0"/>
        <pt x="238" y="-62" on="0"/>
        <pt x="193" y="-42" on="1"/>
        <pt x="209" y="-7" on="1"/>
        <pt x="189" y="-8" on="0"/>
        <pt x="147" y="-9" on="0"/>
        <pt x="124" y="-9" on="1"/>
        <pt x="90" y="-9" on="1"/>
        <pt x="90" y="135" on="1"/>
        <pt x="122" y="133" on="0"/>
        <pt x="177" y="131" on="0"/>
        <pt x="201" y="131" on="1"/>
        <pt x="301" y="131" on="0"/>
        <pt x="383" y="164" on="0"/>
        <pt x="383" y="193" on="1"/>
        <pt x="383" y="217" on="0"/>
        <pt x="339" y="258" on="0"/>
        <pt x="273" y="296" on="0"/>
        <pt x="195" y="337" on="0"/>
        <pt x="129" y="385" on="0"/>
        <pt x="85" y="445" on="0"/>
        <pt x="85" y="485" on="1"/>
        <pt x="85" y="524" on="0"/>
        <pt x="128" y="599" on="0"/>
        <pt x="219" y="659" on="0"/>
        <pt x="358" y="696" on="0"/>
        <pt x="454" y="696" on="1"/>
        <pt x="465" y="696" on="0"/>
        <pt x="489" y="696" on="0"/>
        <pt x="501" y="695" on="1"/>
        <pt x="510" y="551" on="1"/>
        <pt x="474" y="553" on="0"/>
        <pt x="415" y="556" on="0"/>
        <pt x="391" y="556" on="1"/>
        <pt x="351" y="556" on="0"/>
        <pt x="299" y="549" on="0"/>
        <pt x="268" y="537" on="0"/>
        <pt x="256" y="518" on="0"/>
        <pt x="256" y="506" on="1"/>
        <pt x="256" y="484" on="0"/>
        <pt x="300" y="447" on="0"/>
        <pt x="366" y="409" on="0"/>
        <pt x="444" y="367" on="0"/>
        <pt x="510" y="316" on="0"/>
        <pt x="554" y="253" on="0"/>
        <pt x="554" y="212" on="1"/>
        <pt x="554" y="179" on="0"/>
        <pt x="526" y="115" on="0"/>
        <pt x="464" y="59" on="0"/>
        <pt x="365" y="15" on="0"/>
        <pt x="294" y="3" on="1"/>
        <pt x="369" y="-30" on="0"/>
        <pt x="428" y="-99" on="0"/>
        <pt x="428" y="-131" on="1"/>
        <pt x="428" y="-181" on="0"/>
        <pt x="305" y="-256" on="0"/>
        <pt x="181" y="-265" on="1"/>
      </contour>
    </TTGlyph>
    <TTGlyph name="Scommaaccent" xMin="85" yMin="-332" xMax="554" yMax="696">
      <component glyphName="S" x="0" y="0" flags="0x204"/>
      <component glyphName="commaaccent.cap" x="-10" y="-9" flags="0x4"/>
    </TTGlyph>
    <TTGlyph name="T" xMin="43" yMin="0" xMax="578" yMax="688">
      <contour>
        <pt x="396" y="0" on="1"/>
        <pt x="231" y="0" on="1"/>
        <pt x="231" y="553" on="1"/>
        <pt x="43" y="553" on="1"/>
        <pt x="54" y="688" on="1"/>
        <pt x="578" y="688" on="1"/>
        <pt x="578" y="553" on="1"/>
        <pt x="396" y="553" on="1"/>
      </contour>
    </TTGlyph>
    <TTGlyph name="Tcaron" xMin="43" yMin="0" xMax="578" yMax="986">
      <component glyphName="caron.cap" x="1" y="127" flags="0x204"/>
      <component glyphName="T" x="0" y="0" flags="0x4"/>
    </TTGlyph>
    <TTGlyph name="Tcommaaccent" xMin="43" yMin="-323" xMax="578" yMax="688">
      <component glyphName="T" x="0" y="0" flags="0x204"/>
      <component glyphName="commaaccent.cap" x="-3" y="0" flags="0x4"/>
    </TTGlyph>
    <TTGlyph name="Thorn" xMin="90" yMin="0" xMax="583" yMax="688">
      <contour>
        <pt x="90" y="0" on="1"/>
        <pt x="90" y="688" on="1"/>
        <pt x="253" y="688" on="1"/>
        <pt x="253" y="593" on="1"/>
        <pt x="269" y="593" on="1"/>
        <pt x="427" y="593" on="0"/>
        <pt x="583" y="482" on="0"/>
        <pt x="583" y="374" on="1"/>
        <pt x="583" y="312" on="0"/>
        <pt x="534" y="220" on="0"/>
        <pt x="446" y="154" on="0"/>
        <pt x="325" y="113" on="0"/>
        <pt x="253" y="103" on="1"/>
        <pt x="253" y="0" on="1"/>
      </contour>
      <contour>
        <pt x="423" y="341" on="1"/>
        <pt x="423" y="459" on="0"/>
        <pt x="283" y="459" on="1"/>
        <pt x="276" y="459" on="0"/>
        <pt x="261" y="459" on="0"/>
        <pt x="253" y="458" on="1"/>
        <pt x="253" y="236" on="1"/>
        <pt x="268" y="234" on="0"/>
        <pt x="295" y="232" on="0"/>
        <pt x="307" y="232" on="1"/>
        <pt x="366" y="232" on="0"/>
        <pt x="423" y="282" on="0"/>
      </contour>
    </TTGlyph>
    <TTGlyph name="U" xMin="69" yMin="-18" xMax="556" yMax="688">
      <contour>
        <pt x="307" y="-18" on="1"/>
        <pt x="195" y="-18" on="0"/>
        <pt x="69" y="114" on="0"/>
        <pt x="69" y="236" on="1"/>
        <pt x="69" y="688" on="1"/>
        <pt x="232" y="688" on="1"/>
        <pt x="232" y="239" on="1"/>
        <pt x="232" y="177" on="0"/>
        <pt x="278" y="122" on="0"/>
        <pt x="317" y="122" on="1"/>
        <pt x="357" y="122" on="0"/>
        <pt x="393" y="166" on="0"/>
        <pt x="393" y="220" on="1"/>
        <pt x="393" y="688" on="1"/>
        <pt x="556" y="688" on="1"/>
        <pt x="556" y="251" on="1"/>
        <pt x="556" y="189" on="0"/>
        <pt x="521" y="90" on="0"/>
        <pt x="457" y="20" on="0"/>
        <pt x="364" y="-18" on="0"/>
      </contour>
    </TTGlyph>
    <TTGlyph name="Uacute" xMin="69" yMin="-18" xMax="556" yMax="1013">
      <component glyphName="acute.cap" x="21" y="127" flags="0x204"/>
      <component glyphName="U" x="0" y="0" flags="0x4"/>
    </TTGlyph>
    <TTGlyph name="Ubreve" xMin="69" yMin="-18" xMax="556" yMax="979">
      <component glyphName="breve.cap" x="7" y="127" flags="0x204"/>
      <component glyphName="U" x="0" y="0" flags="0x4"/>
    </TTGlyph>
    <TTGlyph name="Ucircumflex" xMin="69" yMin="-18" xMax="556" yMax="993">
      <component glyphName="U" x="0" y="0" flags="0x204"/>
      <component glyphName="circumflex.cap" x="1" y="127" flags="0x4"/>
    </TTGlyph>
    <TTGlyph name="Udieresis" xMin="69" yMin="-18" xMax="556" yMax="927">
      <component glyphName="dieresis.cap" x="1" y="127" flags="0x204"/>
      <component glyphName="U" x="0" y="0" flags="0x4"/>
    </TTGlyph>
    <TTGlyph name="Ugrave" xMin="69" yMin="-18" xMax="556" yMax="1015">
      <component glyphName="grave.cap" x="-41" y="127" flags="0x204"/>
      <component glyphName="U" x="0" y="0" flags="0x4"/>
    </TTGlyph>
    <TTGlyph name="Uhungarumlaut" xMin="69" yMin="-18" xMax="617" yMax="1028">
      <component glyphName="U" x="0" y="0" flags="0x204"/>
      <component glyphName="hungarumlaut.cap" x="-14" y="127" flags="0x4"/>
    </TTGlyph>
    <TTGlyph name="Umacron" xMin="69" yMin="-18" xMax="556" yMax="914">
      <component glyphName="macron.cap" x="1" y="127" flags="0x204"/>
      <component glyphName="U" x="0" y="0" flags="0x4"/>
    </TTGlyph>
    <TTGlyph name="Uogonek" xMin="69" yMin="-259" xMax="556" yMax="688">
      <contour>
        <pt x="423" y="-259" on="1"/>
        <pt x="355" y="-257" on="0"/>
        <pt x="261" y="-236" on="0"/>
        <pt x="201" y="-203" on="0"/>
        <pt x="174" y="-161" on="0"/>
        <pt x="174" y="-137" on="1"/>
        <pt x="174" y="-105" on="0"/>
        <pt x="214" y="-47" on="0"/>
        <pt x="265" y="-15" on="1"/>
        <pt x="171" y="-3" on="0"/>
        <pt x="69" y="126" on="0"/>
        <pt x="69" y="236" on="1"/>
        <pt x="69" y="688" on="1"/>
        <pt x="232" y="688" on="1"/>
        <pt x="232" y="239" on="1"/>
        <pt x="232" y="177" on="0"/>
        <pt x="278" y="122" on="0"/>
        <pt x="317" y="122" on="1"/>
        <pt x="357" y="122" on="0"/>
        <pt x="393" y="166" on="0"/>
        <pt x="393" y="220" on="1"/>
        <pt x="393" y="688" on="1"/>
        <pt x="556" y="688" on="1"/>
        <pt x="556" y="251" on="1"/>
        <pt x="556" y="169" on="0"/>
        <pt x="503" y="62" on="0"/>
        <pt x="449" y="21" on="1"/>
        <pt x="420" y="-1" on="0"/>
        <pt x="374" y="-30" on="0"/>
        <pt x="341" y="-53" on="0"/>
        <pt x="323" y="-74" on="0"/>
        <pt x="323" y="-87" on="1"/>
        <pt x="323" y="-107" on="0"/>
        <pt x="374" y="-132" on="0"/>
        <pt x="437" y="-137" on="1"/>
        <pt x="423" y="-259" on="1"/>
      </contour>
    </TTGlyph>
    <TTGlyph name="Uring" xMin="69" yMin="-18" xMax="556" yMax="989">
      <component glyphName="U" x="0" y="0" flags="0x204"/>
      <component glyphName="ring.cap" x="-8" y="127" flags="0x4"/>
    </TTGlyph>
    <TTGlyph name="V" xMin="28" yMin="0" xMax="596" yMax="694">
      <contour>
        <pt x="200" y="0" on="1"/>
        <pt x="152" y="173" on="0"/>
        <pt x="66" y="510" on="0"/>
        <pt x="28" y="683" on="1"/>
        <pt x="195" y="694" on="1"/>
        <pt x="221" y="560" on="0"/>
        <pt x="278" y="282" on="0"/>
        <pt x="310" y="148" on="1"/>
        <pt x="320" y="148" on="1"/>
        <pt x="351" y="281" on="0"/>
        <pt x="407" y="555" on="0"/>
        <pt x="433" y="688" on="1"/>
        <pt x="596" y="688" on="1"/>
        <pt x="558" y="516" on="0"/>
        <pt x="474" y="173" on="0"/>
        <pt x="425" y="0" on="1"/>
      </contour>
    </TTGlyph>
    <TTGlyph name="W" xMin="36" yMin="0" xMax="590" yMax="688">
      <contour>
        <pt x="307" y="295" on="1"/>
        <pt x="233" y="0" on="1"/>
        <pt x="86" y="0" on="1"/>
        <pt x="80" y="49" on="0"/>
        <pt x="67" y="193" on="0"/>
        <pt x="54" y="371" on="0"/>
        <pt x="41" y="577" on="0"/>
        <pt x="36" y="688" on="1"/>
        <pt x="192" y="688" on="1"/>
        <pt x="209" y="219" on="1"/>
        <pt x="213" y="219" on="1"/>
        <pt x="222" y="258" on="0"/>
        <pt x="237" y="320" on="0"/>
        <pt x="250" y="380" on="0"/>
        <pt x="265" y="442" on="0"/>
        <pt x="275" y="480" on="1"/>
        <pt x="356" y="480" on="1"/>
        <pt x="366" y="442" on="0"/>
        <pt x="383" y="380" on="0"/>
        <pt x="399" y="320" on="0"/>
        <pt x="415" y="257" on="0"/>
        <pt x="424" y="219" on="1"/>
        <pt x="429" y="219" on="1"/>
        <pt x="438" y="688" on="1"/>
        <pt x="590" y="688" on="1"/>
        <pt x="584" y="577" on="0"/>
        <pt x="571" y="371" on="0"/>
        <pt x="557" y="193" on="0"/>
        <pt x="544" y="49" on="0"/>
        <pt x="539" y="0" on="1"/>
        <pt x="387" y="0" on="1"/>
      </contour>
    </TTGlyph>
    <TTGlyph name="Wacute" xMin="36" yMin="0" xMax="590" yMax="1013">
      <component glyphName="acute.cap" x="23" y="127" flags="0x204"/>
      <component glyphName="W" x="0" y="0" flags="0x4"/>
    </TTGlyph>
    <TTGlyph name="Wcircumflex" xMin="36" yMin="0" xMax="590" yMax="993">
      <component glyphName="W" x="0" y="0" flags="0x204"/>
      <component glyphName="circumflex.cap" x="4" y="127" flags="0x4"/>
    </TTGlyph>
    <TTGlyph name="Wdieresis" xMin="36" yMin="0" xMax="590" yMax="927">
      <component glyphName="dieresis.cap" x="3" y="127" flags="0x204"/>
      <component glyphName="W" x="0" y="0" flags="0x4"/>
    </TTGlyph>
    <TTGlyph name="Wgrave" xMin="36" yMin="0" xMax="590" yMax="1015">
      <component glyphName="grave.cap" x="-38" y="127" flags="0x204"/>
      <component glyphName="W" x="0" y="0" flags="0x4"/>
    </TTGlyph>
    <TTGlyph name="X" xMin="26" yMin="-3" xMax="602" yMax="692">
      <contour>
        <pt x="307" y="225" on="1"/>
        <pt x="200" y="0" on="1"/>
        <pt x="27" y="0" on="1"/>
        <pt x="212" y="344" on="1"/>
        <pt x="26" y="685" on="1"/>
        <pt x="206" y="692" on="1"/>
        <pt x="321" y="459" on="1"/>
        <pt x="428" y="688" on="1"/>
        <pt x="602" y="688" on="1"/>
        <pt x="416" y="343" on="1"/>
        <pt x="601" y="3" on="1"/>
        <pt x="420" y="-3" on="1"/>
      </contour>
    </TTGlyph>
    <TTGlyph name="Y" xMin="15" yMin="0" xMax="610" yMax="692">
      <contour>
        <pt x="231" y="0" on="1"/>
        <pt x="231" y="227" on="1"/>
        <pt x="15" y="685" on="1"/>
        <pt x="187" y="692" on="1"/>
        <pt x="318" y="381" on="1"/>
        <pt x="442" y="688" on="1"/>
        <pt x="610" y="688" on="1"/>
        <pt x="396" y="230" on="1"/>
        <pt x="396" y="0" on="1"/>
      </contour>
    </TTGlyph>
    <TTGlyph name="Yacute" xMin="15" yMin="0" xMax="610" yMax="1016">
      <component glyphName="Y" x="0" y="0" flags="0x204"/>
      <component glyphName="acute.cap" x="22" y="130" flags="0x4"/>
    </TTGlyph>
    <TTGlyph name="Ycircumflex" xMin="15" yMin="0" xMax="610" yMax="996">
      <component glyphName="Y" x="0" y="0" flags="0x204"/>
      <component glyphName="circumflex.cap" x="3" y="130" flags="0x4"/>
    </TTGlyph>
    <TTGlyph name="Ydieresis" xMin="15" yMin="0" xMax="610" yMax="930">
      <component glyphName="Y" x="0" y="0" flags="0x204"/>
      <component glyphName="dieresis.cap" x="2" y="130" flags="0x4"/>
    </TTGlyph>
    <TTGlyph name="Ygrave" xMin="15" yMin="0" xMax="610" yMax="1018">
      <component glyphName="Y" x="0" y="0" flags="0x204"/>
      <component glyphName="grave.cap" x="-39" y="130" flags="0x4"/>
    </TTGlyph>
    <TTGlyph name="Z" xMin="72" yMin="0" xMax="562" yMax="688">
      <contour>
        <pt x="72" y="0" on="1"/>
        <pt x="72" y="137" on="1"/>
        <pt x="373" y="551" on="1"/>
        <pt x="72" y="547" on="1"/>
        <pt x="82" y="688" on="1"/>
        <pt x="551" y="688" on="1"/>
        <pt x="551" y="552" on="1"/>
        <pt x="252" y="138" on="1"/>
        <pt x="562" y="141" on="1"/>
        <pt x="551" y="0" on="1"/>
      </contour>
    </TTGlyph>
    <TTGlyph name="Zacute" xMin="72" yMin="0" xMax="562" yMax="1013">
      <component glyphName="Z" x="0" y="0" flags="0x204"/>
      <component glyphName="acute.cap" x="34" y="127" flags="0x4"/>
    </TTGlyph>
    <TTGlyph name="Zcaron" xMin="72" yMin="0" xMax="562" yMax="986">
      <component glyphName="caron.cap" x="21" y="127" flags="0x204"/>
      <component glyphName="Z" x="0" y="0" flags="0x4"/>
    </TTGlyph>
    <TTGlyph name="Zdotaccent" xMin="72" yMin="0" xMax="562" yMax="927">
      <component glyphName="dotaccent.cap" x="21" y="127" flags="0x204"/>
      <component glyphName="Z" x="0" y="0" flags="0x4"/>
    </TTGlyph>
    <TTGlyph name="a" xMin="64" yMin="-14" xMax="555" yMax="574">
      <contour>
        <pt x="294" y="104" on="1"/>
        <pt x="317" y="104" on="0"/>
        <pt x="368" y="120" on="0"/>
        <pt x="392" y="134" on="1"/>
        <pt x="390" y="155" on="0"/>
        <pt x="390" y="203" on="0"/>
        <pt x="389" y="231" on="1"/>
        <pt x="369" y="233" on="0"/>
        <pt x="336" y="235" on="0"/>
        <pt x="322" y="235" on="1"/>
        <pt x="290" y="235" on="0"/>
        <pt x="250" y="226" on="0"/>
        <pt x="228" y="209" on="0"/>
        <pt x="220" y="185" on="0"/>
        <pt x="220" y="170" on="1"/>
        <pt x="220" y="139" on="0"/>
        <pt x="259" y="104" on="0"/>
      </contour>
      <contour>
        <pt x="399" y="59" on="1"/>
        <pt x="369" y="29" on="0"/>
        <pt x="287" y="-14" on="0"/>
        <pt x="230" y="-14" on="1"/>
        <pt x="155" y="-14" on="0"/>
        <pt x="64" y="63" on="0"/>
        <pt x="64" y="132" on="1"/>
        <pt x="64" y="172" on="0"/>
        <pt x="100" y="245" on="0"/>
        <pt x="175" y="299" on="0"/>
        <pt x="293" y="331" on="0"/>
        <pt x="374" y="331" on="1"/>
        <pt x="388" y="331" on="1"/>
        <pt x="385" y="363" on="0"/>
        <pt x="358" y="405" on="0"/>
        <pt x="293" y="429" on="0"/>
        <pt x="182" y="440" on="0"/>
        <pt x="95" y="442" on="1"/>
        <pt x="109" y="574" on="1"/>
        <pt x="241" y="574" on="0"/>
        <pt x="410" y="544" on="0"/>
        <pt x="507" y="475" on="0"/>
        <pt x="543" y="362" on="0"/>
        <pt x="543" y="278" on="1"/>
        <pt x="543" y="201" on="0"/>
        <pt x="551" y="60" on="0"/>
        <pt x="555" y="3" on="1"/>
        <pt x="410" y="-4" on="1"/>
      </contour>
    </TTGlyph>
    <TTGlyph name="aacute" xMin="64" yMin="-14" xMax="555" yMax="897">
      <component glyphName="a" x="0" y="0" flags="0x204"/>
      <component glyphName="acute" x="13" y="11" flags="0x4"/>
    </TTGlyph>
    <TTGlyph name="abreve" xMin="64" yMin="-14" xMax="555" yMax="863">
      <component glyphName="a" x="0" y="0" flags="0x204"/>
      <component glyphName="breve" x="0" y="11" flags="0x4"/>
    </TTGlyph>
    <TTGlyph name="acircumflex" xMin="64" yMin="-14" xMax="555" yMax="877">
      <component glyphName="a" x="0" y="0" flags="0x204"/>
      <component glyphName="circumflex" x="-6" y="11" flags="0x4"/>
    </TTGlyph>
    <TTGlyph name="acute" xMin="146" yMin="622" xMax="499" yMax="886">
      <contour>
        <pt x="146" y="690" on="1"/>
        <pt x="170" y="705" on="0"/>
        <pt x="233" y="751" on="0"/>
        <pt x="299" y="804" on="0"/>
        <pt x="363" y="860" on="0"/>
        <pt x="388" y="886" on="1"/>
        <pt x="499" y="769" on="1"/>
        <pt x="469" y="746" on="0"/>
        <pt x="386" y="701" on="0"/>
        <pt x="299" y="662" on="0"/>
        <pt x="215" y="631" on="0"/>
        <pt x="183" y="622" on="1"/>
        <pt x="146" y="690" on="1"/>
      </contour>
    </TTGlyph>
    <TTGlyph name="acute.cap" xMin="146" yMin="622" xMax="499" yMax="886">
      <contour>
        <pt x="146" y="690" on="1"/>
        <pt x="170" y="705" on="0"/>
        <pt x="233" y="751" on="0"/>
        <pt x="299" y="804" on="0"/>
        <pt x="363" y="860" on="0"/>
        <pt x="388" y="886" on="1"/>
        <pt x="499" y="769" on="1"/>
        <pt x="469" y="746" on="0"/>
        <pt x="386" y="701" on="0"/>
        <pt x="299" y="662" on="0"/>
        <pt x="215" y="631" on="0"/>
        <pt x="183" y="622" on="1"/>
        <pt x="146" y="690" on="1"/>
      </contour>
    </TTGlyph>
    <TTGlyph name="adieresis" xMin="64" yMin="-14" xMax="555" yMax="811">
      <component glyphName="a" x="0" y="0" flags="0x204"/>
      <component glyphName="dieresis" x="-7" y="11" flags="0x4"/>
    </TTGlyph>
    <TTGlyph name="ae" xMin="29" yMin="-12" xMax="596" yMax="572">
      <contour>
        <pt x="415" y="444" on="1"/>
        <pt x="389" y="444" on="0"/>
        <pt x="372" y="396" on="0"/>
        <pt x="371" y="331" on="1"/>
        <pt x="392" y="332" on="0"/>
        <pt x="435" y="332" on="0"/>
        <pt x="452" y="332" on="1"/>
        <pt x="451" y="388" on="0"/>
        <pt x="435" y="444" on="0"/>
      </contour>
      <contour>
        <pt x="242" y="243" on="1"/>
        <pt x="219" y="245" on="0"/>
        <pt x="192" y="236" on="0"/>
        <pt x="177" y="217" on="0"/>
        <pt x="172" y="190" on="0"/>
        <pt x="172" y="175" on="1"/>
        <pt x="172" y="144" on="0"/>
        <pt x="193" y="110" on="0"/>
        <pt x="216" y="110" on="1"/>
        <pt x="236" y="110" on="0"/>
        <pt x="254" y="123" on="1"/>
        <pt x="246" y="149" on="0"/>
        <pt x="242" y="210" on="0"/>
      </contour>
      <contour>
        <pt x="578" y="-8" on="1"/>
        <pt x="457" y="-12" on="0"/>
        <pt x="322" y="24" on="0"/>
        <pt x="289" y="59" on="1"/>
        <pt x="266" y="31" on="0"/>
        <pt x="199" y="-9" on="0"/>
        <pt x="156" y="-9" on="1"/>
        <pt x="95" y="-9" on="0"/>
        <pt x="29" y="69" on="0"/>
        <pt x="29" y="138" on="1"/>
        <pt x="29" y="184" on="0"/>
        <pt x="51" y="255" on="0"/>
        <pt x="100" y="305" on="0"/>
        <pt x="182" y="332" on="0"/>
        <pt x="242" y="333" on="1"/>
        <pt x="240" y="364" on="0"/>
        <pt x="226" y="404" on="0"/>
        <pt x="185" y="426" on="0"/>
        <pt x="111" y="436" on="0"/>
        <pt x="50" y="438" on="1"/>
        <pt x="60" y="568" on="1"/>
        <pt x="109" y="566" on="0"/>
        <pt x="186" y="557" on="0"/>
        <pt x="244" y="541" on="0"/>
        <pt x="286" y="516" on="0"/>
        <pt x="300" y="498" on="1"/>
        <pt x="347" y="572" on="0"/>
        <pt x="434" y="572" on="1"/>
        <pt x="514" y="572" on="0"/>
        <pt x="596" y="434" on="0"/>
        <pt x="596" y="307" on="1"/>
        <pt x="596" y="292" on="0"/>
        <pt x="596" y="261" on="0"/>
        <pt x="594" y="244" on="1"/>
        <pt x="371" y="239" on="1"/>
        <pt x="371" y="204" on="0"/>
        <pt x="385" y="159" on="0"/>
        <pt x="430" y="132" on="0"/>
        <pt x="516" y="121" on="0"/>
        <pt x="589" y="120" on="1"/>
      </contour>
    </TTGlyph>
    <TTGlyph name="aeacute" xMin="29" yMin="-12" xMax="596" yMax="887">
      <component glyphName="acute" x="22" y="1" flags="0x204"/>
      <component glyphName="ae" x="0" y="0" flags="0x4"/>
    </TTGlyph>
    <TTGlyph name="agrave" xMin="64" yMin="-14" xMax="555" yMax="899">
      <component glyphName="a" x="0" y="0" flags="0x204"/>
      <component glyphName="grave" x="-48" y="11" flags="0x4"/>
    </TTGlyph>
    <TTGlyph name="amacron" xMin="64" yMin="-14" xMax="555" yMax="798">
      <component glyphName="a" x="0" y="0" flags="0x204"/>
      <component glyphName="macron" x="-7" y="11" flags="0x4"/>
    </TTGlyph>
    <TTGlyph name="ampersand" xMin="31" yMin="-16" xMax="602" yMax="704">
      <contour>
        <pt x="472" y="-16" on="1"/>
        <pt x="434" y="38" on="0"/>
        <pt x="400" y="83" on="1"/>
        <pt x="361" y="32" on="0"/>
        <pt x="263" y="-16" on="0"/>
        <pt x="211" y="-16" on="1"/>
        <pt x="166" y="-16" on="0"/>
        <pt x="98" y="9" on="0"/>
        <pt x="53" y="54" on="0"/>
        <pt x="31" y="116" on="0"/>
        <pt x="31" y="152" on="1"/>
        <pt x="31" y="222" on="0"/>
        <pt x="106" y="324" on="0"/>
        <pt x="177" y="369" on="1"/>
        <pt x="150" y="407" on="0"/>
        <pt x="121" y="472" on="0"/>
        <pt x="121" y="504" on="1"/>
        <pt x="121" y="541" on="0"/>
        <pt x="151" y="613" on="0"/>
        <pt x="220" y="670" on="0"/>
        <pt x="335" y="704" on="0"/>
        <pt x="421" y="704" on="1"/>
        <pt x="434" y="704" on="1"/>
        <pt x="444" y="562" on="1"/>
        <pt x="433" y="563" on="0"/>
        <pt x="413" y="563" on="0"/>
        <pt x="404" y="563" on="1"/>
        <pt x="367" y="563" on="0"/>
        <pt x="319" y="556" on="0"/>
        <pt x="292" y="541" on="0"/>
        <pt x="281" y="520" on="0"/>
        <pt x="281" y="505" on="1"/>
        <pt x="281" y="493" on="0"/>
        <pt x="297" y="461" on="0"/>
        <pt x="330" y="418" on="0"/>
        <pt x="379" y="360" on="0"/>
        <pt x="412" y="321" on="1"/>
        <pt x="423" y="354" on="0"/>
        <pt x="441" y="423" on="0"/>
        <pt x="447" y="452" on="1"/>
        <pt x="578" y="436" on="1"/>
        <pt x="561" y="379" on="0"/>
        <pt x="515" y="269" on="0"/>
        <pt x="491" y="224" on="1"/>
        <pt x="516" y="192" on="0"/>
        <pt x="571" y="122" on="0"/>
        <pt x="602" y="80" on="1"/>
      </contour>
      <contour>
        <pt x="247" y="111" on="1"/>
        <pt x="294" y="111" on="0"/>
        <pt x="334" y="170" on="1"/>
        <pt x="305" y="206" on="0"/>
        <pt x="256" y="267" on="0"/>
        <pt x="235" y="293" on="1"/>
        <pt x="180" y="245" on="0"/>
        <pt x="180" y="186" on="1"/>
        <pt x="180" y="154" on="0"/>
        <pt x="213" y="111" on="0"/>
      </contour>
    </TTGlyph>
    <TTGlyph name="aogonek" xMin="64" yMin="-255" xMax="555" yMax="574">
      <contour>
        <pt x="531" y="-255" on="1"/>
        <pt x="463" y="-254" on="0"/>
        <pt x="368" y="-233" on="0"/>
        <pt x="308" y="-200" on="0"/>
        <pt x="281" y="-157" on="0"/>
        <pt x="281" y="-133" on="1"/>
        <pt x="281" y="-99" on="0"/>
        <pt x="342" y="-28" on="0"/>
        <pt x="408" y="10" on="1"/>
        <pt x="396" y="73" on="1"/>
        <pt x="364" y="37" on="0"/>
        <pt x="280" y="-14" on="0"/>
        <pt x="230" y="-14" on="1"/>
        <pt x="155" y="-14" on="0"/>
        <pt x="64" y="63" on="0"/>
        <pt x="64" y="132" on="1"/>
        <pt x="64" y="172" on="0"/>
        <pt x="100" y="245" on="0"/>
        <pt x="175" y="299" on="0"/>
        <pt x="293" y="331" on="0"/>
        <pt x="374" y="331" on="1"/>
        <pt x="388" y="331" on="1"/>
        <pt x="385" y="363" on="0"/>
        <pt x="358" y="405" on="0"/>
        <pt x="293" y="429" on="0"/>
        <pt x="182" y="440" on="0"/>
        <pt x="95" y="442" on="1"/>
        <pt x="109" y="574" on="1"/>
        <pt x="241" y="574" on="0"/>
        <pt x="410" y="544" on="0"/>
        <pt x="507" y="475" on="0"/>
        <pt x="543" y="362" on="0"/>
        <pt x="543" y="278" on="1"/>
        <pt x="543" y="201" on="0"/>
        <pt x="551" y="60" on="0"/>
        <pt x="555" y="3" on="1"/>
        <pt x="520" y="-11" on="0"/>
        <pt x="472" y="-36" on="0"/>
        <pt x="443" y="-59" on="0"/>
        <pt x="431" y="-79" on="0"/>
        <pt x="431" y="-88" on="1"/>
        <pt x="431" y="-105" on="0"/>
        <pt x="481" y="-129" on="0"/>
        <pt x="544" y="-133" on="1"/>
      </contour>
      <contour>
        <pt x="294" y="104" on="1"/>
        <pt x="318" y="104" on="0"/>
        <pt x="370" y="124" on="0"/>
        <pt x="391" y="143" on="1"/>
        <pt x="390" y="163" on="0"/>
        <pt x="390" y="206" on="0"/>
        <pt x="389" y="231" on="1"/>
        <pt x="369" y="233" on="0"/>
        <pt x="336" y="235" on="0"/>
        <pt x="322" y="235" on="1"/>
        <pt x="290" y="235" on="0"/>
        <pt x="250" y="226" on="0"/>
        <pt x="228" y="209" on="0"/>
        <pt x="220" y="185" on="0"/>
        <pt x="220" y="170" on="1"/>
        <pt x="220" y="138" on="0"/>
        <pt x="259" y="104" on="0"/>
      </contour>
    </TTGlyph>
    <TTGlyph name="approxequal" xMin="50" yMin="95" xMax="565" yMax="579">
      <contour>
        <pt x="403" y="353" on="1"/>
        <pt x="370" y="353" on="0"/>
        <pt x="315" y="382" on="0"/>
        <pt x="269" y="416" on="0"/>
        <pt x="229" y="445" on="0"/>
        <pt x="213" y="445" on="1"/>
        <pt x="196" y="445" on="0"/>
        <pt x="161" y="392" on="0"/>
        <pt x="140" y="347" on="1"/>
        <pt x="50" y="386" on="1"/>
        <pt x="83" y="479" on="0"/>
        <pt x="167" y="579" on="0"/>
        <pt x="227" y="579" on="1"/>
        <pt x="259" y="579" on="0"/>
        <pt x="313" y="550" on="0"/>
        <pt x="357" y="515" on="0"/>
        <pt x="393" y="486" on="0"/>
        <pt x="408" y="486" on="1"/>
        <pt x="424" y="486" on="0"/>
        <pt x="454" y="534" on="0"/>
        <pt x="473" y="575" on="1"/>
        <pt x="565" y="536" on="1"/>
        <pt x="533" y="445" on="0"/>
        <pt x="460" y="353" on="0"/>
      </contour>
      <contour>
        <pt x="403" y="99" on="1"/>
        <pt x="370" y="99" on="0"/>
        <pt x="315" y="128" on="0"/>
        <pt x="269" y="163" on="0"/>
        <pt x="231" y="192" on="0"/>
        <pt x="215" y="192" on="1"/>
        <pt x="197" y="192" on="0"/>
        <pt x="163" y="140" on="0"/>
        <pt x="142" y="95" on="1"/>
        <pt x="50" y="133" on="1"/>
        <pt x="83" y="225" on="0"/>
        <pt x="168" y="325" on="0"/>
        <pt x="228" y="325" on="1"/>
        <pt x="260" y="325" on="0"/>
        <pt x="313" y="296" on="0"/>
        <pt x="357" y="262" on="0"/>
        <pt x="393" y="233" on="0"/>
        <pt x="408" y="233" on="1"/>
        <pt x="425" y="233" on="0"/>
        <pt x="455" y="281" on="0"/>
        <pt x="475" y="322" on="1"/>
        <pt x="565" y="283" on="1"/>
        <pt x="533" y="192" on="0"/>
        <pt x="460" y="99" on="0"/>
      </contour>
    </TTGlyph>
    <TTGlyph name="aring" xMin="64" yMin="-14" xMax="555" yMax="873">
      <component glyphName="a" x="0" y="0" flags="0x204"/>
      <component glyphName="ring" x="-16" y="11" flags="0x4"/>
    </TTGlyph>
    <TTGlyph name="aringacute" xMin="64" yMin="-12" xMax="555" yMax="1169">
      <contour>
        <pt x="294" y="106" on="1"/>
        <pt x="317" y="106" on="0"/>
        <pt x="368" y="122" on="0"/>
        <pt x="392" y="136" on="1"/>
        <pt x="390" y="157" on="0"/>
        <pt x="390" y="205" on="0"/>
        <pt x="389" y="233" on="1"/>
        <pt x="369" y="235" on="0"/>
        <pt x="336" y="237" on="0"/>
        <pt x="322" y="237" on="1"/>
        <pt x="290" y="237" on="0"/>
        <pt x="250" y="228" on="0"/>
        <pt x="228" y="211" on="0"/>
        <pt x="220" y="187" on="0"/>
        <pt x="220" y="172" on="1"/>
        <pt x="220" y="141" on="0"/>
        <pt x="259" y="106" on="0"/>
      </contour>
      <contour>
        <pt x="399" y="61" on="1"/>
        <pt x="369" y="31" on="0"/>
        <pt x="287" y="-12" on="0"/>
        <pt x="230" y="-12" on="1"/>
        <pt x="155" y="-12" on="0"/>
        <pt x="64" y="65" on="0"/>
        <pt x="64" y="134" on="1"/>
        <pt x="64" y="174" on="0"/>
        <pt x="100" y="247" on="0"/>
        <pt x="175" y="301" on="0"/>
        <pt x="293" y="333" on="0"/>
        <pt x="374" y="333" on="1"/>
        <pt x="388" y="333" on="1"/>
        <pt x="385" y="365" on="0"/>
        <pt x="358" y="407" on="0"/>
        <pt x="293" y="431" on="0"/>
        <pt x="182" y="442" on="0"/>
        <pt x="95" y="444" on="1"/>
        <pt x="109" y="576" on="1"/>
        <pt x="241" y="576" on="0"/>
        <pt x="410" y="546" on="0"/>
        <pt x="507" y="477" on="0"/>
        <pt x="543" y="364" on="0"/>
        <pt x="543" y="280" on="1"/>
        <pt x="543" y="203" on="0"/>
        <pt x="551" y="62" on="0"/>
        <pt x="555" y="5" on="1"/>
        <pt x="410" y="-2" on="1"/>
      </contour>
      <contour>
        <pt x="159" y="973" on="1"/>
        <pt x="183" y="988" on="0"/>
        <pt x="246" y="1034" on="0"/>
        <pt x="312" y="1087" on="0"/>
        <pt x="376" y="1143" on="0"/>
        <pt x="401" y="1169" on="1"/>
        <pt x="512" y="1052" on="1"/>
        <pt x="482" y="1029" on="0"/>
        <pt x="399" y="984" on="0"/>
        <pt x="312" y="945" on="0"/>
        <pt x="228" y="914" on="0"/>
        <pt x="196" y="905" on="1"/>
        <pt x="159" y="973" on="1"/>
      </contour>
      <contour>
        <pt x="304" y="875" on="1"/>
        <pt x="338" y="875" on="0"/>
        <pt x="394" y="856" on="0"/>
        <pt x="434" y="823" on="0"/>
        <pt x="456" y="779" on="0"/>
        <pt x="456" y="754" on="1"/>
        <pt x="456" y="700" on="0"/>
        <pt x="374" y="629" on="0"/>
        <pt x="304" y="629" on="1"/>
        <pt x="270" y="629" on="0"/>
        <pt x="214" y="648" on="0"/>
        <pt x="175" y="680" on="0"/>
        <pt x="153" y="724" on="0"/>
        <pt x="153" y="750" on="1"/>
        <pt x="153" y="777" on="0"/>
        <pt x="174" y="822" on="0"/>
        <pt x="213" y="856" on="0"/>
        <pt x="269" y="875" on="0"/>
      </contour>
    </TTGlyph>
    <TTGlyph name="asciicircum" xMin="55" yMin="152" xMax="579" yMax="566">
      <contour>
        <pt x="308" y="365" on="1"/>
        <pt x="159" y="152" on="1"/>
        <pt x="55" y="231" on="1"/>
        <pt x="298" y="563" on="1"/>
        <pt x="324" y="566" on="1"/>
        <pt x="579" y="232" on="1"/>
        <pt x="463" y="152" on="1"/>
      </contour>
    </TTGlyph>
    <TTGlyph name="asciitilde" xMin="33" yMin="202" xMax="592" yMax="475">
      <contour>
        <pt x="419" y="202" on="1"/>
        <pt x="386" y="202" on="0"/>
        <pt x="321" y="243" on="0"/>
        <pt x="263" y="291" on="0"/>
        <pt x="215" y="332" on="0"/>
        <pt x="200" y="332" on="1"/>
        <pt x="183" y="332" on="0"/>
        <pt x="150" y="265" on="0"/>
        <pt x="130" y="208" on="1"/>
        <pt x="33" y="245" on="1"/>
        <pt x="48" y="296" on="0"/>
        <pt x="85" y="381" on="0"/>
        <pt x="129" y="442" on="0"/>
        <pt x="181" y="475" on="0"/>
        <pt x="210" y="475" on="1"/>
        <pt x="243" y="475" on="0"/>
        <pt x="306" y="434" on="0"/>
        <pt x="362" y="386" on="0"/>
        <pt x="409" y="345" on="0"/>
        <pt x="424" y="345" on="1"/>
        <pt x="440" y="345" on="0"/>
        <pt x="474" y="413" on="0"/>
        <pt x="494" y="470" on="1"/>
        <pt x="592" y="432" on="1"/>
        <pt x="560" y="325" on="0"/>
        <pt x="478" y="202" on="0"/>
      </contour>
    </TTGlyph>
    <TTGlyph name="asterisk" xMin="41" yMin="236" xMax="591" yMax="774">
      <contour>
        <pt x="302" y="361" on="1"/>
        <pt x="175" y="258" on="1"/>
        <pt x="95" y="329" on="1"/>
        <pt x="180" y="465" on="1"/>
        <pt x="41" y="556" on="1"/>
        <pt x="84" y="655" on="1"/>
        <pt x="241" y="614" on="1"/>
        <pt x="282" y="774" on="1"/>
        <pt x="390" y="766" on="1"/>
        <pt x="403" y="601" on="1"/>
        <pt x="566" y="612" on="1"/>
        <pt x="591" y="509" on="1"/>
        <pt x="439" y="444" on="1"/>
        <pt x="498" y="292" on="1"/>
        <pt x="407" y="236" on="1"/>
      </contour>
    </TTGlyph>
    <TTGlyph name="asterisk.alt" xMin="30" yMin="215" xMax="594" yMax="784">
      <contour>
        <pt x="296" y="603" on="1"/>
        <pt x="298" y="784" on="1"/>
        <pt x="433" y="756" on="1"/>
        <pt x="371" y="587" on="1"/>
      </contour>
      <contour>
        <pt x="215" y="535" on="1"/>
        <pt x="60" y="629" on="1"/>
        <pt x="151" y="733" on="1"/>
        <pt x="266" y="595" on="1"/>
      </contour>
      <contour>
        <pt x="391" y="566" on="1"/>
        <pt x="551" y="654" on="1"/>
        <pt x="594" y="524" on="1"/>
        <pt x="418" y="491" on="1"/>
      </contour>
      <contour>
        <pt x="233" y="433" on="1"/>
        <pt x="74" y="345" on="1"/>
        <pt x="30" y="475" on="1"/>
        <pt x="207" y="508" on="1"/>
      </contour>
      <contour>
        <pt x="411" y="464" on="1"/>
        <pt x="565" y="370" on="1"/>
        <pt x="474" y="266" on="1"/>
        <pt x="359" y="404" on="1"/>
      </contour>
      <contour>
        <pt x="329" y="396" on="1"/>
        <pt x="328" y="215" on="1"/>
        <pt x="190" y="243" on="1"/>
        <pt x="253" y="412" on="1"/>
      </contour>
    </TTGlyph>
    <TTGlyph name="at" xMin="34" yMin="-175" xMax="580" yMax="763">
      <contour>
        <pt x="514" y="-168" on="1"/>
        <pt x="486" y="-172" on="0"/>
        <pt x="435" y="-175" on="0"/>
        <pt x="411" y="-175" on="1"/>
        <pt x="304" y="-175" on="0"/>
        <pt x="160" y="-110" on="0"/>
        <pt x="72" y="7" on="0"/>
        <pt x="34" y="170" on="0"/>
        <pt x="34" y="268" on="1"/>
        <pt x="34" y="380" on="0"/>
        <pt x="85" y="563" on="0"/>
        <pt x="176" y="693" on="0"/>
        <pt x="300" y="763" on="0"/>
        <pt x="374" y="763" on="1"/>
        <pt x="478" y="763" on="0"/>
        <pt x="573" y="633" on="0"/>
        <pt x="573" y="507" on="1"/>
        <pt x="573" y="416" on="0"/>
        <pt x="575" y="284" on="0"/>
        <pt x="577" y="187" on="0"/>
        <pt x="579" y="115" on="0"/>
        <pt x="580" y="84" on="1"/>
        <pt x="451" y="70" on="1"/>
        <pt x="446" y="120" on="1"/>
        <pt x="424" y="91" on="0"/>
        <pt x="378" y="65" on="0"/>
        <pt x="348" y="65" on="1"/>
        <pt x="321" y="65" on="0"/>
        <pt x="275" y="95" on="0"/>
        <pt x="242" y="149" on="0"/>
        <pt x="223" y="225" on="0"/>
        <pt x="223" y="271" on="1"/>
        <pt x="223" y="341" on="0"/>
        <pt x="259" y="439" on="0"/>
        <pt x="317" y="502" on="0"/>
        <pt x="391" y="531" on="0"/>
        <pt x="429" y="531" on="1"/>
        <pt x="437" y="531" on="1"/>
        <pt x="432" y="584" on="0"/>
        <pt x="397" y="638" on="0"/>
        <pt x="359" y="638" on="1"/>
        <pt x="323" y="638" on="0"/>
        <pt x="253" y="598" on="0"/>
        <pt x="198" y="513" on="0"/>
        <pt x="164" y="380" on="0"/>
        <pt x="164" y="287" on="1"/>
        <pt x="164" y="205" on="0"/>
        <pt x="186" y="79" on="0"/>
        <pt x="245" y="-7" on="0"/>
        <pt x="347" y="-52" on="0"/>
        <pt x="428" y="-52" on="1"/>
        <pt x="448" y="-52" on="0"/>
        <pt x="490" y="-50" on="0"/>
        <pt x="513" y="-47" on="1"/>
      </contour>
      <contour>
        <pt x="403" y="184" on="1"/>
        <pt x="414" y="184" on="0"/>
        <pt x="430" y="193" on="0"/>
        <pt x="439" y="201" on="1"/>
        <pt x="439" y="404" on="1"/>
        <pt x="434" y="405" on="0"/>
        <pt x="424" y="406" on="0"/>
        <pt x="419" y="406" on="1"/>
        <pt x="400" y="406" on="0"/>
        <pt x="378" y="391" on="0"/>
        <pt x="366" y="362" on="0"/>
        <pt x="362" y="321" on="0"/>
        <pt x="362" y="296" on="1"/>
        <pt x="362" y="184" on="0"/>
      </contour>
    </TTGlyph>
    <TTGlyph name="atilde" xMin="64" yMin="-14" xMax="555" yMax="848">
      <component glyphName="a" x="0" y="0" flags="0x204"/>
      <component glyphName="tilde" x="1" y="11" flags="0x4"/>
    </TTGlyph>
    <TTGlyph name="b" xMin="80" yMin="-16" xMax="571" yMax="794">
      <contour>
        <pt x="255" y="-16" on="1"/>
        <pt x="205" y="-16" on="0"/>
        <pt x="121" y="-1" on="0"/>
        <pt x="80" y="16" on="1"/>
        <pt x="80" y="780" on="1"/>
        <pt x="238" y="794" on="1"/>
        <pt x="238" y="522" on="1"/>
        <pt x="264" y="545" on="0"/>
        <pt x="330" y="577" on="0"/>
        <pt x="371" y="577" on="1"/>
        <pt x="415" y="577" on="0"/>
        <pt x="488" y="540" on="0"/>
        <pt x="541" y="471" on="0"/>
        <pt x="571" y="373" on="0"/>
        <pt x="571" y="312" on="1"/>
        <pt x="571" y="235" on="0"/>
        <pt x="519" y="114" on="0"/>
        <pt x="432" y="29" on="0"/>
        <pt x="318" y="-16" on="0"/>
      </contour>
      <contour>
        <pt x="311" y="120" on="1"/>
        <pt x="365" y="120" on="0"/>
        <pt x="414" y="189" on="0"/>
        <pt x="414" y="273" on="1"/>
        <pt x="414" y="364" on="0"/>
        <pt x="355" y="450" on="0"/>
        <pt x="306" y="450" on="1"/>
        <pt x="273" y="450" on="0"/>
        <pt x="238" y="427" on="1"/>
        <pt x="238" y="132" on="1"/>
        <pt x="272" y="120" on="0"/>
      </contour>
    </TTGlyph>
    <TTGlyph name="backslash" xMin="-17" yMin="-211" xMax="632" yMax="830">
      <contour>
        <pt x="632" y="-168" on="1"/>
        <pt x="487" y="-211" on="1"/>
        <pt x="-17" y="773" on="1"/>
        <pt x="120" y="830" on="1"/>
      </contour>
    </TTGlyph>
    <TTGlyph name="bar" xMin="238" yMin="-204" xMax="387" yMax="806">
      <contour>
        <pt x="387" y="806" on="1"/>
        <pt x="387" y="-204" on="1"/>
        <pt x="238" y="-204" on="1"/>
        <pt x="238" y="794" on="1"/>
      </contour>
    </TTGlyph>
    <TTGlyph name="braceleft" xMin="97" yMin="-240" xMax="549" yMax="821">
      <contour>
        <pt x="494" y="-240" on="1"/>
        <pt x="395" y="-208" on="0"/>
        <pt x="261" y="-155" on="0"/>
        <pt x="180" y="-104" on="0"/>
        <pt x="146" y="-50" on="0"/>
        <pt x="146" y="-18" on="1"/>
        <pt x="146" y="15" on="0"/>
        <pt x="177" y="68" on="0"/>
        <pt x="214" y="111" on="0"/>
        <pt x="245" y="148" on="0"/>
        <pt x="245" y="165" on="1"/>
        <pt x="245" y="220" on="0"/>
        <pt x="97" y="235" on="1"/>
        <pt x="102" y="345" on="1"/>
        <pt x="145" y="350" on="0"/>
        <pt x="204" y="361" on="0"/>
        <pt x="238" y="373" on="0"/>
        <pt x="253" y="388" on="0"/>
        <pt x="253" y="398" on="1"/>
        <pt x="253" y="414" on="0"/>
        <pt x="219" y="447" on="0"/>
        <pt x="179" y="487" on="0"/>
        <pt x="145" y="537" on="0"/>
        <pt x="145" y="569" on="1"/>
        <pt x="145" y="600" on="0"/>
        <pt x="180" y="663" on="0"/>
        <pt x="263" y="726" on="0"/>
        <pt x="398" y="789" on="0"/>
        <pt x="499" y="821" on="1"/>
        <pt x="549" y="696" on="1"/>
        <pt x="420" y="661" on="0"/>
        <pt x="297" y="608" on="0"/>
        <pt x="297" y="579" on="1"/>
        <pt x="297" y="562" on="0"/>
        <pt x="327" y="526" on="0"/>
        <pt x="363" y="487" on="0"/>
        <pt x="393" y="444" on="0"/>
        <pt x="393" y="420" on="1"/>
        <pt x="393" y="388" on="0"/>
        <pt x="338" y="325" on="0"/>
        <pt x="272" y="302" on="1"/>
        <pt x="340" y="282" on="0"/>
        <pt x="396" y="222" on="0"/>
        <pt x="396" y="189" on="1"/>
        <pt x="396" y="162" on="0"/>
        <pt x="367" y="118" on="0"/>
        <pt x="332" y="78" on="0"/>
        <pt x="303" y="40" on="0"/>
        <pt x="303" y="20" on="1"/>
        <pt x="303" y="-18" on="0"/>
        <pt x="423" y="-81" on="0"/>
        <pt x="546" y="-117" on="1"/>
        <pt x="494" y="-240" on="1"/>
      </contour>
    </TTGlyph>
    <TTGlyph name="braceleft.cap" xMin="97" yMin="-189" xMax="549" yMax="872">
      <component glyphName="braceleft" x="0" y="51" flags="0x204"/>
    </TTGlyph>
    <TTGlyph name="braceright" xMin="78" yMin="-239" xMax="530" yMax="823">
      <contour>
        <pt x="78" y="-113" on="1"/>
        <pt x="207" y="-79" on="0"/>
        <pt x="330" y="-26" on="0"/>
        <pt x="330" y="3" on="1"/>
        <pt x="330" y="20" on="0"/>
        <pt x="300" y="56" on="0"/>
        <pt x="263" y="96" on="0"/>
        <pt x="233" y="139" on="0"/>
        <pt x="233" y="163" on="1"/>
        <pt x="233" y="195" on="0"/>
        <pt x="289" y="258" on="0"/>
        <pt x="356" y="281" on="1"/>
        <pt x="287" y="300" on="0"/>
        <pt x="231" y="361" on="0"/>
        <pt x="231" y="394" on="1"/>
        <pt x="231" y="421" on="0"/>
        <pt x="260" y="465" on="0"/>
        <pt x="294" y="505" on="0"/>
        <pt x="323" y="543" on="0"/>
        <pt x="323" y="563" on="1"/>
        <pt x="323" y="601" on="0"/>
        <pt x="203" y="664" on="0"/>
        <pt x="80" y="699" on="1"/>
        <pt x="132" y="823" on="1"/>
        <pt x="232" y="791" on="0"/>
        <pt x="366" y="738" on="0"/>
        <pt x="447" y="687" on="0"/>
        <pt x="481" y="633" on="0"/>
        <pt x="481" y="601" on="1"/>
        <pt x="481" y="568" on="0"/>
        <pt x="450" y="515" on="0"/>
        <pt x="413" y="471" on="0"/>
        <pt x="382" y="435" on="0"/>
        <pt x="382" y="417" on="1"/>
        <pt x="382" y="362" on="0"/>
        <pt x="530" y="347" on="1"/>
        <pt x="524" y="238" on="1"/>
        <pt x="481" y="233" on="0"/>
        <pt x="423" y="222" on="0"/>
        <pt x="388" y="210" on="0"/>
        <pt x="373" y="194" on="0"/>
        <pt x="373" y="184" on="1"/>
        <pt x="373" y="169" on="0"/>
        <pt x="407" y="136" on="0"/>
        <pt x="448" y="96" on="0"/>
        <pt x="482" y="46" on="0"/>
        <pt x="482" y="13" on="1"/>
        <pt x="482" y="-18" on="0"/>
        <pt x="447" y="-81" on="0"/>
        <pt x="364" y="-144" on="0"/>
        <pt x="228" y="-207" on="0"/>
        <pt x="128" y="-239" on="1"/>
      </contour>
    </TTGlyph>
    <TTGlyph name="braceright.cap" xMin="78" yMin="-189" xMax="530" yMax="873">
      <component glyphName="braceright" x="0" y="50" flags="0x204"/>
    </TTGlyph>
    <TTGlyph name="bracketleft" xMin="140" yMin="-200" xMax="531" yMax="779">
      <contour>
        <pt x="140" y="779" on="1"/>
        <pt x="523" y="779" on="1"/>
        <pt x="523" y="655" on="1"/>
        <pt x="291" y="655" on="1"/>
        <pt x="291" y="-75" on="1"/>
        <pt x="531" y="-75" on="1"/>
        <pt x="516" y="-200" on="1"/>
        <pt x="140" y="-200" on="1"/>
      </contour>
    </TTGlyph>
    <TTGlyph name="bracketleft.cap" xMin="140" yMin="-149" xMax="531" yMax="830">
      <component glyphName="bracketleft" x="0" y="51" flags="0x204"/>
    </TTGlyph>
    <TTGlyph name="bracketright" xMin="97" yMin="-200" xMax="485" yMax="779">
      <contour>
        <pt x="334" y="-75" on="1"/>
        <pt x="334" y="655" on="1"/>
        <pt x="104" y="655" on="1"/>
        <pt x="104" y="779" on="1"/>
        <pt x="485" y="779" on="1"/>
        <pt x="485" y="-200" on="1"/>
        <pt x="97" y="-200" on="1"/>
        <pt x="108" y="-75" on="1"/>
      </contour>
    </TTGlyph>
    <TTGlyph name="bracketright.cap" xMin="97" yMin="-149" xMax="485" yMax="830">
      <component glyphName="bracketright" x="0" y="51" flags="0x204"/>
    </TTGlyph>
    <TTGlyph name="breve" xMin="85" yMin="626" xMax="541" yMax="852">
      <contour>
        <pt x="310" y="626" on="1"/>
        <pt x="244" y="626" on="0"/>
        <pt x="128" y="708" on="0"/>
        <pt x="85" y="789" on="1"/>
        <pt x="192" y="852" on="1"/>
        <pt x="227" y="798" on="0"/>
        <pt x="288" y="750" on="0"/>
        <pt x="324" y="750" on="1"/>
        <pt x="361" y="750" on="0"/>
        <pt x="421" y="800" on="0"/>
        <pt x="453" y="847" on="1"/>
        <pt x="541" y="801" on="1"/>
        <pt x="494" y="720" on="0"/>
        <pt x="376" y="626" on="0"/>
      </contour>
    </TTGlyph>
    <TTGlyph name="breve.cap" xMin="85" yMin="626" xMax="541" yMax="852">
      <contour>
        <pt x="310" y="626" on="1"/>
        <pt x="244" y="626" on="0"/>
        <pt x="128" y="708" on="0"/>
        <pt x="85" y="789" on="1"/>
        <pt x="192" y="852" on="1"/>
        <pt x="227" y="798" on="0"/>
        <pt x="288" y="750" on="0"/>
        <pt x="324" y="750" on="1"/>
        <pt x="361" y="750" on="0"/>
        <pt x="421" y="800" on="0"/>
        <pt x="453" y="847" on="1"/>
        <pt x="541" y="801" on="1"/>
        <pt x="494" y="720" on="0"/>
        <pt x="376" y="626" on="0"/>
      </contour>
    </TTGlyph>
    <TTGlyph name="bullet" xMin="136" yMin="159" xMax="488" yMax="503">
      <contour>
        <pt x="488" y="334" on="1"/>
        <pt x="488" y="294" on="0"/>
        <pt x="459" y="230" on="0"/>
        <pt x="410" y="184" on="0"/>
        <pt x="344" y="159" on="0"/>
        <pt x="308" y="159" on="1"/>
        <pt x="271" y="159" on="0"/>
        <pt x="208" y="183" on="0"/>
        <pt x="162" y="228" on="0"/>
        <pt x="136" y="290" on="0"/>
        <pt x="136" y="329" on="1"/>
        <pt x="136" y="368" on="0"/>
        <pt x="165" y="433" on="0"/>
        <pt x="214" y="478" on="0"/>
        <pt x="279" y="503" on="0"/>
        <pt x="316" y="503" on="1"/>
        <pt x="353" y="503" on="0"/>
        <pt x="416" y="479" on="0"/>
        <pt x="462" y="435" on="0"/>
        <pt x="488" y="372" on="0"/>
      </contour>
    </TTGlyph>
    <TTGlyph name="bullet.alt" xMin="160" yMin="183" xMax="464" yMax="483">
      <contour>
        <pt x="160" y="183" on="1"/>
        <pt x="162" y="483" on="1"/>
        <pt x="464" y="483" on="1"/>
        <pt x="462" y="183" on="1"/>
      </contour>
    </TTGlyph>
    <TTGlyph name="c" xMin="78" yMin="-10" xMax="543" yMax="571">
      <contour>
        <pt x="535" y="421" on="1"/>
        <pt x="433" y="427" on="0"/>
        <pt x="313" y="415" on="0"/>
        <pt x="252" y="382" on="0"/>
        <pt x="235" y="328" on="0"/>
        <pt x="235" y="292" on="1"/>
        <pt x="235" y="246" on="0"/>
        <pt x="258" y="182" on="0"/>
        <pt x="311" y="141" on="0"/>
        <pt x="397" y="122" on="0"/>
        <pt x="460" y="122" on="1"/>
        <pt x="498" y="122" on="0"/>
        <pt x="543" y="125" on="1"/>
        <pt x="528" y="-4" on="1"/>
        <pt x="469" y="-10" on="0"/>
        <pt x="419" y="-10" on="1"/>
        <pt x="318" y="-10" on="0"/>
        <pt x="186" y="34" on="0"/>
        <pt x="109" y="110" on="0"/>
        <pt x="78" y="212" on="0"/>
        <pt x="78" y="271" on="1"/>
        <pt x="78" y="331" on="0"/>
        <pt x="121" y="441" on="0"/>
        <pt x="224" y="523" on="0"/>
        <pt x="396" y="571" on="0"/>
        <pt x="525" y="569" on="1"/>
        <pt x="535" y="421" on="1"/>
      </contour>
    </TTGlyph>
    <TTGlyph name="cacute" xMin="78" yMin="-10" xMax="543" yMax="886">
      <component glyphName="acute" x="36" y="0" flags="0x204"/>
      <component glyphName="c" x="0" y="0" flags="0x4"/>
    </TTGlyph>
    <TTGlyph name="caron" xMin="96" yMin="615" xMax="528" yMax="859">
      <contour>
        <pt x="309" y="615" on="1"/>
        <pt x="96" y="767" on="1"/>
        <pt x="192" y="859" on="1"/>
        <pt x="326" y="757" on="1"/>
        <pt x="454" y="858" on="1"/>
        <pt x="528" y="785" on="1"/>
        <pt x="320" y="615" on="1"/>
      </contour>
    </TTGlyph>
    <TTGlyph name="caron.alt" xMin="213" yMin="611" xMax="379" yMax="898">
      <contour>
        <pt x="213" y="629" on="1"/>
        <pt x="218" y="666" on="0"/>
        <pt x="224" y="738" on="0"/>
        <pt x="224" y="774" on="1"/>
        <pt x="224" y="805" on="0"/>
        <pt x="220" y="866" on="0"/>
        <pt x="216" y="897" on="1"/>
        <pt x="379" y="898" on="1"/>
        <pt x="379" y="888" on="1"/>
        <pt x="376" y="807" on="0"/>
        <pt x="326" y="675" on="0"/>
        <pt x="283" y="611" on="1"/>
        <pt x="213" y="629" on="1"/>
      </contour>
    </TTGlyph>
    <TTGlyph name="caron.cap" xMin="96" yMin="615" xMax="528" yMax="859">
      <contour>
        <pt x="309" y="615" on="1"/>
        <pt x="96" y="767" on="1"/>
        <pt x="192" y="859" on="1"/>
        <pt x="326" y="757" on="1"/>
        <pt x="454" y="858" on="1"/>
        <pt x="528" y="785" on="1"/>
        <pt x="320" y="615" on="1"/>
      </contour>
    </TTGlyph>
    <TTGlyph name="ccaron" xMin="78" yMin="-10" xMax="550" yMax="859">
      <component glyphName="caron" x="22" y="0" flags="0x204"/>
      <component glyphName="c" x="0" y="0" flags="0x4"/>
    </TTGlyph>
    <TTGlyph name="ccedilla" xMin="78" yMin="-266" xMax="543" yMax="571">
      <contour>
        <pt x="535" y="421" on="1"/>
        <pt x="433" y="427" on="0"/>
        <pt x="313" y="415" on="0"/>
        <pt x="252" y="382" on="0"/>
        <pt x="235" y="328" on="0"/>
        <pt x="235" y="292" on="1"/>
        <pt x="235" y="246" on="0"/>
        <pt x="258" y="182" on="0"/>
        <pt x="311" y="141" on="0"/>
        <pt x="397" y="122" on="0"/>
        <pt x="460" y="122" on="1"/>
        <pt x="498" y="122" on="0"/>
        <pt x="543" y="125" on="1"/>
        <pt x="528" y="-4" on="1"/>
        <pt x="468" y="-10" on="0"/>
        <pt x="419" y="-10" on="1"/>
        <pt x="405" y="-10" on="0"/>
        <pt x="379" y="-9" on="0"/>
        <pt x="366" y="-8" on="1"/>
        <pt x="429" y="-40" on="0"/>
        <pt x="478" y="-103" on="0"/>
        <pt x="478" y="-132" on="1"/>
        <pt x="478" y="-182" on="0"/>
        <pt x="355" y="-257" on="0"/>
        <pt x="231" y="-266" on="1"/>
        <pt x="222" y="-148" on="1"/>
        <pt x="283" y="-142" on="0"/>
        <pt x="336" y="-125" on="0"/>
        <pt x="336" y="-111" on="1"/>
        <pt x="336" y="-96" on="0"/>
        <pt x="288" y="-63" on="0"/>
        <pt x="243" y="-43" on="1"/>
        <pt x="266" y="8" on="1"/>
        <pt x="212" y="23" on="0"/>
        <pt x="139" y="75" on="0"/>
        <pt x="96" y="143" on="0"/>
        <pt x="78" y="226" on="0"/>
        <pt x="78" y="271" on="1"/>
        <pt x="78" y="331" on="0"/>
        <pt x="121" y="441" on="0"/>
        <pt x="224" y="523" on="0"/>
        <pt x="396" y="571" on="0"/>
        <pt x="525" y="569" on="1"/>
        <pt x="535" y="421" on="1"/>
      </contour>
    </TTGlyph>
    <TTGlyph name="cdotaccent" xMin="78" yMin="-10" xMax="543" yMax="800">
      <component glyphName="c" x="0" y="0" flags="0x204"/>
      <component glyphName="dotaccent" x="22" y="0" flags="0x4"/>
    </TTGlyph>
    <TTGlyph name="cedilla" xMin="222" yMin="-256" xMax="478" yMax="39">
      <contour>
        <pt x="275" y="39" on="1"/>
        <pt x="333" y="19" on="0"/>
        <pt x="411" y="-21" on="0"/>
        <pt x="458" y="-62" on="0"/>
        <pt x="478" y="-103" on="0"/>
        <pt x="478" y="-122" on="1"/>
        <pt x="478" y="-172" on="0"/>
        <pt x="355" y="-247" on="0"/>
        <pt x="231" y="-256" on="1"/>
        <pt x="222" y="-138" on="1"/>
        <pt x="283" y="-132" on="0"/>
        <pt x="336" y="-115" on="0"/>
        <pt x="336" y="-101" on="1"/>
        <pt x="336" y="-86" on="0"/>
        <pt x="288" y="-53" on="0"/>
        <pt x="243" y="-33" on="1"/>
      </contour>
    </TTGlyph>
    <TTGlyph name="cedilla.cap" xMin="222" yMin="-256" xMax="478" yMax="39">
      <contour>
        <pt x="275" y="39" on="1"/>
        <pt x="333" y="19" on="0"/>
        <pt x="411" y="-21" on="0"/>
        <pt x="458" y="-62" on="0"/>
        <pt x="478" y="-103" on="0"/>
        <pt x="478" y="-122" on="1"/>
        <pt x="478" y="-172" on="0"/>
        <pt x="355" y="-247" on="0"/>
        <pt x="231" y="-256" on="1"/>
        <pt x="222" y="-138" on="1"/>
        <pt x="283" y="-132" on="0"/>
        <pt x="336" y="-115" on="0"/>
        <pt x="336" y="-101" on="1"/>
        <pt x="336" y="-86" on="0"/>
        <pt x="288" y="-53" on="0"/>
        <pt x="243" y="-33" on="1"/>
      </contour>
    </TTGlyph>
    <TTGlyph name="cent" xMin="75" yMin="-92" xMax="552" yMax="688">
      <contour>
        <pt x="225" y="313" on="1"/>
        <pt x="225" y="238" on="0"/>
        <pt x="300" y="203" on="1"/>
        <pt x="328" y="409" on="1"/>
        <pt x="296" y="404" on="0"/>
        <pt x="256" y="385" on="0"/>
        <pt x="234" y="360" on="0"/>
        <pt x="225" y="329" on="0"/>
      </contour>
      <contour>
        <pt x="511" y="30" on="1"/>
        <pt x="479" y="32" on="0"/>
        <pt x="420" y="36" on="0"/>
        <pt x="394" y="40" on="1"/>
        <pt x="380" y="-92" on="1"/>
        <pt x="245" y="-92" on="1"/>
        <pt x="268" y="67" on="1"/>
        <pt x="215" y="84" on="0"/>
        <pt x="142" y="132" on="0"/>
        <pt x="96" y="190" on="0"/>
        <pt x="75" y="258" on="0"/>
        <pt x="75" y="296" on="1"/>
        <pt x="75" y="334" on="0"/>
        <pt x="98" y="411" on="0"/>
        <pt x="154" y="477" on="0"/>
        <pt x="250" y="528" on="0"/>
        <pt x="324" y="541" on="1"/>
        <pt x="340" y="688" on="1"/>
        <pt x="475" y="688" on="1"/>
        <pt x="456" y="552" on="1"/>
        <pt x="501" y="552" on="0"/>
        <pt x="552" y="549" on="1"/>
        <pt x="534" y="404" on="1"/>
        <pt x="476" y="411" on="0"/>
        <pt x="430" y="413" on="1"/>
        <pt x="400" y="174" on="1"/>
        <pt x="427" y="169" on="0"/>
        <pt x="491" y="163" on="0"/>
        <pt x="528" y="161" on="1"/>
      </contour>
    </TTGlyph>
    <TTGlyph name="check.1" xMin="54" yMin="-20" xMax="595" yMax="770">
      <contour>
        <pt x="595" y="723" on="1"/>
        <pt x="529" y="552" on="0"/>
        <pt x="415" y="189" on="0"/>
        <pt x="366" y="-13" on="1"/>
        <pt x="229" y="-20" on="1"/>
        <pt x="54" y="369" on="1"/>
        <pt x="189" y="426" on="1"/>
        <pt x="289" y="188" on="1"/>
        <pt x="297" y="188" on="1"/>
        <pt x="325" y="356" on="0"/>
        <pt x="396" y="648" on="0"/>
        <pt x="437" y="770" on="1"/>
        <pt x="595" y="723" on="1"/>
      </contour>
    </TTGlyph>
    <TTGlyph name="check.2" xMin="67" yMin="-20" xMax="582" yMax="774">
      <contour>
        <pt x="212" y="594" on="1"/>
        <pt x="288" y="424" on="1"/>
        <pt x="429" y="774" on="1"/>
        <pt x="582" y="719" on="1"/>
        <pt x="369" y="303" on="1"/>
        <pt x="516" y="19" on="1"/>
        <pt x="366" y="-14" on="1"/>
        <pt x="281" y="173" on="1"/>
        <pt x="182" y="-20" on="1"/>
        <pt x="80" y="13" on="1"/>
        <pt x="204" y="282" on="1"/>
        <pt x="67" y="543" on="1"/>
      </contour>
    </TTGlyph>
    <TTGlyph name="circumflex" xMin="96" yMin="623" xMax="528" yMax="866">
      <contour>
        <pt x="296" y="725" on="1"/>
        <pt x="169" y="624" on="1"/>
        <pt x="96" y="696" on="1"/>
        <pt x="303" y="866" on="1"/>
        <pt x="314" y="866" on="1"/>
        <pt x="528" y="714" on="1"/>
        <pt x="432" y="623" on="1"/>
      </contour>
    </TTGlyph>
    <TTGlyph name="circumflex.cap" xMin="96" yMin="623" xMax="528" yMax="866">
      <contour>
        <pt x="296" y="725" on="1"/>
        <pt x="169" y="624" on="1"/>
        <pt x="96" y="696" on="1"/>
        <pt x="303" y="866" on="1"/>
        <pt x="314" y="866" on="1"/>
        <pt x="528" y="714" on="1"/>
        <pt x="432" y="623" on="1"/>
      </contour>
    </TTGlyph>
    <TTGlyph name="colon" xMin="203" yMin="0" xMax="423" yMax="529">
      <contour>
        <pt x="213" y="346" on="1"/>
        <pt x="216" y="529" on="1"/>
        <pt x="423" y="529" on="1"/>
        <pt x="420" y="346" on="1"/>
      </contour>
      <contour>
        <pt x="203" y="0" on="1"/>
        <pt x="210" y="183" on="1"/>
        <pt x="418" y="183" on="1"/>
        <pt x="411" y="0" on="1"/>
      </contour>
    </TTGlyph>
    <TTGlyph name="colon.alt" xMin="209" yMin="79" xMax="423" yMax="608">
      <contour>
        <pt x="213" y="425" on="1"/>
        <pt x="216" y="608" on="1"/>
        <pt x="423" y="608" on="1"/>
        <pt x="420" y="425" on="1"/>
      </contour>
      <contour>
        <pt x="209" y="79" on="1"/>
        <pt x="211" y="262" on="1"/>
        <pt x="419" y="262" on="1"/>
        <pt x="415" y="79" on="1"/>
      </contour>
    </TTGlyph>
    <TTGlyph name="colonmonetary" xMin="60" yMin="-82" xMax="572" yMax="769">
      <contour>
        <pt x="203" y="350" on="1"/>
        <pt x="203" y="293" on="0"/>
        <pt x="263" y="219" on="0"/>
        <pt x="343" y="194" on="1"/>
        <pt x="370" y="507" on="1"/>
        <pt x="320" y="496" on="0"/>
        <pt x="256" y="463" on="0"/>
        <pt x="218" y="422" on="0"/>
        <pt x="203" y="375" on="0"/>
      </contour>
      <contour>
        <pt x="328" y="55" on="1"/>
        <pt x="311" y="60" on="0"/>
        <pt x="279" y="69" on="0"/>
        <pt x="264" y="74" on="1"/>
        <pt x="250" y="-82" on="1"/>
        <pt x="135" y="-82" on="1"/>
        <pt x="157" y="129" on="1"/>
        <pt x="60" y="201" on="0"/>
        <pt x="60" y="331" on="1"/>
        <pt x="60" y="400" on="0"/>
        <pt x="122" y="529" on="0"/>
        <pt x="197" y="577" on="1"/>
        <pt x="212" y="769" on="1"/>
        <pt x="327" y="769" on="1"/>
        <pt x="314" y="629" on="1"/>
        <pt x="330" y="634" on="0"/>
        <pt x="363" y="642" on="0"/>
        <pt x="381" y="646" on="1"/>
        <pt x="391" y="769" on="1"/>
        <pt x="505" y="769" on="1"/>
        <pt x="495" y="663" on="1"/>
        <pt x="512" y="665" on="0"/>
        <pt x="547" y="666" on="0"/>
        <pt x="565" y="667" on="1"/>
        <pt x="572" y="528" on="1"/>
        <pt x="546" y="527" on="0"/>
        <pt x="501" y="525" on="0"/>
        <pt x="480" y="523" on="1"/>
        <pt x="448" y="169" on="1"/>
        <pt x="469" y="165" on="0"/>
        <pt x="514" y="158" on="0"/>
        <pt x="540" y="155" on="1"/>
        <pt x="511" y="22" on="1"/>
        <pt x="492" y="24" on="0"/>
        <pt x="455" y="29" on="0"/>
        <pt x="438" y="32" on="1"/>
        <pt x="429" y="-82" on="1"/>
        <pt x="314" y="-82" on="1"/>
      </contour>
    </TTGlyph>
    <TTGlyph name="comma" xMin="191" yMin="-175" xMax="417" yMax="195">
      <contour>
        <pt x="191" y="-152" on="1"/>
        <pt x="214" y="-120" on="0"/>
        <pt x="240" y="-26" on="0"/>
        <pt x="240" y="27" on="1"/>
        <pt x="240" y="69" on="0"/>
        <pt x="223" y="151" on="0"/>
        <pt x="205" y="188" on="1"/>
        <pt x="397" y="195" on="1"/>
        <pt x="408" y="174" on="0"/>
        <pt x="417" y="128" on="0"/>
        <pt x="417" y="104" on="1"/>
        <pt x="417" y="65" on="0"/>
        <pt x="394" y="-13" on="0"/>
        <pt x="355" y="-87" on="0"/>
        <pt x="304" y="-151" on="0"/>
        <pt x="276" y="-175" on="1"/>
        <pt x="191" y="-152" on="1"/>
      </contour>
    </TTGlyph>
    <TTGlyph name="commaaccent" xMin="217" yMin="-323" xMax="402" yMax="-70">
      <contour>
        <pt x="217" y="-299" on="1"/>
        <pt x="225" y="-273" on="0"/>
        <pt x="233" y="-214" on="0"/>
        <pt x="233" y="-184" on="1"/>
        <pt x="233" y="-129" on="0"/>
        <pt x="219" y="-78" on="1"/>
        <pt x="402" y="-70" on="1"/>
        <pt x="402" y="-88" on="1"/>
        <pt x="402" y="-154" on="0"/>
        <pt x="344" y="-282" on="0"/>
        <pt x="298" y="-323" on="1"/>
        <pt x="217" y="-299" on="1"/>
      </contour>
    </TTGlyph>
    <TTGlyph name="commaaccent.cap" xMin="217" yMin="-323" xMax="402" yMax="-70">
      <contour>
        <pt x="217" y="-299" on="1"/>
        <pt x="225" y="-273" on="0"/>
        <pt x="233" y="-214" on="0"/>
        <pt x="233" y="-184" on="1"/>
        <pt x="233" y="-129" on="0"/>
        <pt x="219" y="-78" on="1"/>
        <pt x="402" y="-70" on="1"/>
        <pt x="402" y="-88" on="1"/>
        <pt x="402" y="-154" on="0"/>
        <pt x="344" y="-282" on="0"/>
        <pt x="298" y="-323" on="1"/>
        <pt x="217" y="-299" on="1"/>
      </contour>
    </TTGlyph>
    <TTGlyph name="commaaccent.rot" xMin="219" yMin="634" xMax="405" yMax="887">
      <contour>
        <pt x="405" y="862" on="1"/>
        <pt x="391" y="811" on="0"/>
        <pt x="389" y="693" on="0"/>
        <pt x="403" y="642" on="1"/>
        <pt x="219" y="634" on="1"/>
        <pt x="219" y="668" on="0"/>
        <pt x="234" y="740" on="0"/>
        <pt x="261" y="807" on="0"/>
        <pt x="300" y="865" on="0"/>
        <pt x="324" y="887" on="1"/>
        <pt x="405" y="862" on="1"/>
      </contour>
    </TTGlyph>
    <TTGlyph name="copyright" xMin="43" yMin="8" xMax="582" yMax="680">
      <contour>
        <pt x="582" y="349" on="1"/>
        <pt x="582" y="268" on="0"/>
        <pt x="542" y="141" on="0"/>
        <pt x="471" y="54" on="0"/>
        <pt x="374" y="8" on="0"/>
        <pt x="317" y="8" on="1"/>
        <pt x="257" y="8" on="0"/>
        <pt x="156" y="50" on="0"/>
        <pt x="84" y="134" on="0"/>
        <pt x="43" y="258" on="0"/>
        <pt x="43" y="340" on="1"/>
        <pt x="43" y="417" on="0"/>
        <pt x="86" y="542" on="0"/>
        <pt x="161" y="631" on="0"/>
        <pt x="264" y="680" on="0"/>
        <pt x="323" y="680" on="1"/>
        <pt x="381" y="680" on="0"/>
        <pt x="476" y="634" on="0"/>
        <pt x="544" y="549" on="0"/>
        <pt x="582" y="426" on="0"/>
      </contour>
      <contour>
        <pt x="128" y="344" on="1"/>
        <pt x="128" y="277" on="0"/>
        <pt x="157" y="180" on="0"/>
        <pt x="209" y="117" on="0"/>
        <pt x="279" y="87" on="0"/>
        <pt x="321" y="87" on="1"/>
        <pt x="403" y="87" on="0"/>
        <pt x="498" y="209" on="0"/>
        <pt x="498" y="344" on="1"/>
        <pt x="498" y="470" on="0"/>
        <pt x="402" y="602" on="0"/>
        <pt x="321" y="602" on="1"/>
        <pt x="278" y="602" on="0"/>
        <pt x="207" y="569" on="0"/>
        <pt x="156" y="504" on="0"/>
        <pt x="128" y="408" on="0"/>
      </contour>
      <contour>
        <pt x="396" y="178" on="1"/>
        <pt x="389" y="177" on="0"/>
        <pt x="376" y="177" on="0"/>
        <pt x="370" y="177" on="1"/>
        <pt x="321" y="177" on="0"/>
        <pt x="255" y="203" on="0"/>
        <pt x="215" y="248" on="0"/>
        <pt x="198" y="309" on="0"/>
        <pt x="198" y="344" on="1"/>
        <pt x="198" y="377" on="0"/>
        <pt x="217" y="436" on="0"/>
        <pt x="263" y="482" on="0"/>
        <pt x="338" y="511" on="0"/>
        <pt x="394" y="514" on="1"/>
        <pt x="401" y="411" on="1"/>
        <pt x="369" y="411" on="0"/>
        <pt x="330" y="405" on="0"/>
        <pt x="308" y="392" on="0"/>
        <pt x="301" y="370" on="0"/>
        <pt x="301" y="355" on="1"/>
        <pt x="301" y="308" on="0"/>
        <pt x="341" y="271" on="0"/>
        <pt x="398" y="271" on="1"/>
        <pt x="404" y="271" on="1"/>
      </contour>
    </TTGlyph>
    <TTGlyph name="d" xMin="54" yMin="-16" xMax="551" yMax="794">
      <contour>
        <pt x="320" y="113" on="1"/>
        <pt x="342" y="113" on="0"/>
        <pt x="374" y="125" on="0"/>
        <pt x="389" y="136" on="1"/>
        <pt x="387" y="194" on="0"/>
        <pt x="385" y="343" on="0"/>
        <pt x="384" y="431" on="1"/>
        <pt x="346" y="443" on="0"/>
        <pt x="317" y="443" on="1"/>
        <pt x="266" y="443" on="0"/>
        <pt x="210" y="367" on="0"/>
        <pt x="210" y="289" on="1"/>
        <pt x="210" y="195" on="0"/>
        <pt x="271" y="113" on="0"/>
      </contour>
      <contour>
        <pt x="398" y="51" on="1"/>
        <pt x="371" y="23" on="0"/>
        <pt x="299" y="-16" on="0"/>
        <pt x="253" y="-16" on="1"/>
        <pt x="209" y="-16" on="0"/>
        <pt x="136" y="20" on="0"/>
        <pt x="84" y="88" on="0"/>
        <pt x="54" y="187" on="0"/>
        <pt x="54" y="250" on="1"/>
        <pt x="54" y="327" on="0"/>
        <pt x="104" y="448" on="0"/>
        <pt x="192" y="532" on="0"/>
        <pt x="309" y="576" on="0"/>
        <pt x="377" y="577" on="1"/>
        <pt x="384" y="577" on="1"/>
        <pt x="384" y="780" on="1"/>
        <pt x="542" y="794" on="1"/>
        <pt x="542" y="567" on="1"/>
        <pt x="542" y="464" on="0"/>
        <pt x="543" y="296" on="0"/>
        <pt x="545" y="159" on="0"/>
        <pt x="548" y="49" on="0"/>
        <pt x="551" y="4" on="1"/>
        <pt x="405" y="-3" on="1"/>
      </contour>
    </TTGlyph>
    <TTGlyph name="dagger" xMin="77" yMin="113" xMax="554" yMax="779">
      <contour>
        <pt x="266" y="113" on="1"/>
        <pt x="241" y="124" on="1"/>
        <pt x="241" y="501" on="1"/>
        <pt x="77" y="503" on="1"/>
        <pt x="84" y="628" on="1"/>
        <pt x="241" y="625" on="1"/>
        <pt x="241" y="779" on="1"/>
        <pt x="390" y="778" on="1"/>
        <pt x="387" y="623" on="1"/>
        <pt x="554" y="620" on="1"/>
        <pt x="546" y="496" on="1"/>
        <pt x="382" y="498" on="1"/>
        <pt x="361" y="160" on="1"/>
      </contour>
    </TTGlyph>
    <TTGlyph name="daggerdbl" xMin="69" yMin="54" xMax="554" yMax="779">
      <contour>
        <pt x="267" y="54" on="1"/>
        <pt x="242" y="65" on="1"/>
        <pt x="242" y="282" on="1"/>
        <pt x="69" y="284" on="1"/>
        <pt x="76" y="403" on="1"/>
        <pt x="242" y="400" on="1"/>
        <pt x="241" y="507" on="1"/>
        <pt x="77" y="509" on="1"/>
        <pt x="84" y="628" on="1"/>
        <pt x="241" y="625" on="1"/>
        <pt x="241" y="779" on="1"/>
        <pt x="390" y="778" on="1"/>
        <pt x="387" y="623" on="1"/>
        <pt x="554" y="620" on="1"/>
        <pt x="546" y="503" on="1"/>
        <pt x="383" y="505" on="1"/>
        <pt x="378" y="398" on="1"/>
        <pt x="546" y="395" on="1"/>
        <pt x="539" y="278" on="1"/>
        <pt x="371" y="280" on="1"/>
        <pt x="362" y="101" on="1"/>
      </contour>
    </TTGlyph>
    <TTGlyph name="dcaron" xMin="54" yMin="-16" xMax="783" yMax="898">
      <component glyphName="caron.alt" x="404" y="0" flags="0x204"/>
      <component glyphName="d" x="0" y="0" flags="0x4"/>
    </TTGlyph>
    <TTGlyph name="dcroat" xMin="54" yMin="-16" xMax="603" yMax="785">
      <contour>
        <pt x="320" y="113" on="1"/>
        <pt x="341" y="113" on="0"/>
        <pt x="373" y="124" on="0"/>
        <pt x="388" y="135" on="1"/>
        <pt x="386" y="192" on="0"/>
        <pt x="384" y="340" on="0"/>
        <pt x="384" y="428" on="1"/>
        <pt x="346" y="440" on="0"/>
        <pt x="317" y="440" on="1"/>
        <pt x="266" y="440" on="0"/>
        <pt x="210" y="366" on="0"/>
        <pt x="210" y="289" on="1"/>
        <pt x="210" y="195" on="0"/>
        <pt x="271" y="113" on="0"/>
      </contour>
      <contour>
        <pt x="397" y="50" on="1"/>
        <pt x="370" y="22" on="0"/>
        <pt x="298" y="-16" on="0"/>
        <pt x="253" y="-16" on="1"/>
        <pt x="209" y="-16" on="0"/>
        <pt x="136" y="20" on="0"/>
        <pt x="84" y="88" on="0"/>
        <pt x="54" y="187" on="0"/>
        <pt x="54" y="250" on="1"/>
        <pt x="54" y="326" on="0"/>
        <pt x="104" y="445" on="0"/>
        <pt x="191" y="527" on="0"/>
        <pt x="309" y="571" on="0"/>
        <pt x="377" y="571" on="1"/>
        <pt x="383" y="571" on="1"/>
        <pt x="383" y="624" on="1"/>
        <pt x="258" y="624" on="1"/>
        <pt x="258" y="719" on="1"/>
        <pt x="383" y="719" on="1"/>
        <pt x="383" y="771" on="1"/>
        <pt x="542" y="785" on="1"/>
        <pt x="542" y="719" on="1"/>
        <pt x="603" y="719" on="1"/>
        <pt x="603" y="623" on="1"/>
        <pt x="542" y="623" on="1"/>
        <pt x="542" y="567" on="1"/>
        <pt x="542" y="464" on="0"/>
        <pt x="543" y="296" on="0"/>
        <pt x="545" y="159" on="0"/>
        <pt x="548" y="49" on="0"/>
        <pt x="551" y="4" on="1"/>
        <pt x="404" y="-3" on="1"/>
      </contour>
    </TTGlyph>
    <TTGlyph name="degree" xMin="95" yMin="320" xMax="530" yMax="764">
      <contour>
        <pt x="530" y="546" on="1"/>
        <pt x="530" y="494" on="0"/>
        <pt x="493" y="411" on="0"/>
        <pt x="431" y="352" on="0"/>
        <pt x="349" y="320" on="0"/>
        <pt x="304" y="320" on="1"/>
        <pt x="260" y="320" on="0"/>
        <pt x="183" y="350" on="0"/>
        <pt x="127" y="406" on="0"/>
        <pt x="95" y="487" on="0"/>
        <pt x="95" y="537" on="1"/>
        <pt x="95" y="589" on="0"/>
        <pt x="132" y="673" on="0"/>
        <pt x="193" y="732" on="0"/>
        <pt x="275" y="764" on="0"/>
        <pt x="320" y="764" on="1"/>
        <pt x="365" y="764" on="0"/>
        <pt x="442" y="734" on="0"/>
        <pt x="498" y="677" on="0"/>
        <pt x="530" y="596" on="0"/>
      </contour>
      <contour>
        <pt x="405" y="543" on="1"/>
        <pt x="405" y="588" on="0"/>
        <pt x="353" y="647" on="0"/>
        <pt x="311" y="647" on="1"/>
        <pt x="271" y="647" on="0"/>
        <pt x="219" y="590" on="0"/>
        <pt x="219" y="542" on="1"/>
        <pt x="219" y="496" on="0"/>
        <pt x="271" y="435" on="0"/>
        <pt x="313" y="435" on="1"/>
        <pt x="353" y="435" on="0"/>
        <pt x="405" y="492" on="0"/>
      </contour>
    </TTGlyph>
    <TTGlyph name="dieresis" xMin="108" yMin="639" xMax="521" yMax="800">
      <contour>
        <pt x="358" y="639" on="1"/>
        <pt x="361" y="800" on="1"/>
        <pt x="521" y="800" on="1"/>
        <pt x="516" y="639" on="1"/>
      </contour>
      <contour>
        <pt x="108" y="639" on="1"/>
        <pt x="111" y="800" on="1"/>
        <pt x="271" y="800" on="1"/>
        <pt x="268" y="639" on="1"/>
      </contour>
    </TTGlyph>
    <TTGlyph name="dieresis.cap" xMin="108" yMin="639" xMax="521" yMax="800">
      <contour>
        <pt x="358" y="639" on="1"/>
        <pt x="361" y="800" on="1"/>
        <pt x="521" y="800" on="1"/>
        <pt x="516" y="639" on="1"/>
      </contour>
      <contour>
        <pt x="108" y="639" on="1"/>
        <pt x="111" y="800" on="1"/>
        <pt x="271" y="800" on="1"/>
        <pt x="268" y="639" on="1"/>
      </contour>
    </TTGlyph>
    <TTGlyph name="divide" xMin="66" yMin="65" xMax="559" yMax="606">
      <contour>
        <pt x="233" y="463" on="1"/>
        <pt x="236" y="606" on="1"/>
        <pt x="393" y="606" on="1"/>
        <pt x="390" y="463" on="1"/>
      </contour>
      <contour>
        <pt x="559" y="270" on="1"/>
        <pt x="66" y="270" on="1"/>
        <pt x="66" y="402" on="1"/>
        <pt x="559" y="402" on="1"/>
      </contour>
      <contour>
        <pt x="232" y="65" on="1"/>
        <pt x="235" y="209" on="1"/>
        <pt x="392" y="209" on="1"/>
        <pt x="390" y="65" on="1"/>
      </contour>
    </TTGlyph>
    <TTGlyph name="dollar" xMin="55" yMin="-82" xMax="551" yMax="770">
      <contour>
        <pt x="169" y="-81" on="1"/>
        <pt x="194" y="39" on="1"/>
        <pt x="132" y="40" on="0"/>
        <pt x="55" y="48" on="1"/>
        <pt x="84" y="202" on="1"/>
        <pt x="159" y="184" on="0"/>
        <pt x="268" y="168" on="0"/>
        <pt x="303" y="168" on="1"/>
        <pt x="344" y="168" on="0"/>
        <pt x="380" y="186" on="0"/>
        <pt x="380" y="202" on="1"/>
        <pt x="380" y="219" on="0"/>
        <pt x="335" y="253" on="0"/>
        <pt x="267" y="289" on="0"/>
        <pt x="187" y="331" on="0"/>
        <pt x="119" y="382" on="0"/>
        <pt x="74" y="445" on="0"/>
        <pt x="74" y="485" on="1"/>
        <pt x="74" y="487" on="1"/>
        <pt x="74" y="514" on="0"/>
        <pt x="98" y="567" on="0"/>
        <pt x="151" y="611" on="0"/>
        <pt x="236" y="641" on="0"/>
        <pt x="297" y="647" on="1"/>
        <pt x="318" y="770" on="1"/>
        <pt x="457" y="769" on="1"/>
        <pt x="432" y="648" on="1"/>
        <pt x="458" y="646" on="0"/>
        <pt x="514" y="642" on="0"/>
        <pt x="544" y="637" on="1"/>
        <pt x="524" y="483" on="1"/>
        <pt x="451" y="503" on="0"/>
        <pt x="347" y="522" on="0"/>
        <pt x="313" y="522" on="1"/>
        <pt x="278" y="522" on="0"/>
        <pt x="245" y="505" on="0"/>
        <pt x="245" y="491" on="1"/>
        <pt x="245" y="474" on="0"/>
        <pt x="290" y="441" on="0"/>
        <pt x="358" y="403" on="0"/>
        <pt x="438" y="360" on="0"/>
        <pt x="506" y="306" on="0"/>
        <pt x="551" y="241" on="0"/>
        <pt x="551" y="200" on="1"/>
        <pt x="551" y="171" on="0"/>
        <pt x="527" y="120" on="0"/>
        <pt x="474" y="79" on="0"/>
        <pt x="389" y="50" on="0"/>
        <pt x="328" y="43" on="1"/>
        <pt x="308" y="-82" on="1"/>
      </contour>
    </TTGlyph>
    <TTGlyph name="dotaccent" xMin="228" yMin="639" xMax="397" yMax="800">
      <contour>
        <pt x="228" y="639" on="1"/>
        <pt x="232" y="800" on="1"/>
        <pt x="397" y="800" on="1"/>
        <pt x="392" y="639" on="1"/>
      </contour>
    </TTGlyph>
    <TTGlyph name="dotaccent.cap" xMin="228" yMin="639" xMax="397" yMax="800">
      <contour>
        <pt x="228" y="639" on="1"/>
        <pt x="232" y="800" on="1"/>
        <pt x="397" y="800" on="1"/>
        <pt x="392" y="639" on="1"/>
      </contour>
    </TTGlyph>
    <TTGlyph name="dotlessi" xMin="74" yMin="0" xMax="599" yMax="562">
      <contour>
        <pt x="78" y="0" on="1"/>
        <pt x="78" y="118" on="1"/>
        <pt x="259" y="118" on="1"/>
        <pt x="259" y="441" on="1"/>
        <pt x="74" y="450" on="1"/>
        <pt x="86" y="562" on="1"/>
        <pt x="418" y="562" on="1"/>
        <pt x="418" y="118" on="1"/>
        <pt x="599" y="118" on="1"/>
        <pt x="585" y="0" on="1"/>
      </contour>
    </TTGlyph>
    <TTGlyph name="e" xMin="61" yMin="-17" xMax="562" yMax="577">
      <contour>
        <pt x="531" y="-13" on="1"/>
        <pt x="390" y="-17" on="0"/>
        <pt x="208" y="19" on="0"/>
        <pt x="102" y="92" on="0"/>
        <pt x="61" y="200" on="0"/>
        <pt x="61" y="269" on="1"/>
        <pt x="61" y="335" on="0"/>
        <pt x="107" y="447" on="0"/>
        <pt x="185" y="530" on="0"/>
        <pt x="287" y="577" on="0"/>
        <pt x="343" y="577" on="1"/>
        <pt x="450" y="577" on="0"/>
        <pt x="562" y="440" on="0"/>
        <pt x="562" y="316" on="1"/>
        <pt x="562" y="284" on="0"/>
        <pt x="559" y="248" on="1"/>
        <pt x="220" y="239" on="1"/>
        <pt x="226" y="204" on="0"/>
        <pt x="266" y="158" on="0"/>
        <pt x="343" y="130" on="0"/>
        <pt x="461" y="118" on="0"/>
        <pt x="545" y="117" on="1"/>
      </contour>
      <contour>
        <pt x="314" y="450" on="1"/>
        <pt x="269" y="450" on="0"/>
        <pt x="221" y="397" on="0"/>
        <pt x="217" y="329" on="1"/>
        <pt x="236" y="330" on="0"/>
        <pt x="284" y="332" on="0"/>
        <pt x="335" y="333" on="0"/>
        <pt x="385" y="335" on="0"/>
        <pt x="407" y="335" on="1"/>
        <pt x="404" y="391" on="0"/>
        <pt x="362" y="450" on="0"/>
      </contour>
    </TTGlyph>
    <TTGlyph name="eacute" xMin="61" yMin="-17" xMax="562" yMax="895">
      <component glyphName="acute" x="29" y="9" flags="0x204"/>
      <component glyphName="e" x="0" y="0" flags="0x4"/>
    </TTGlyph>
    <TTGlyph name="ebreve" xMin="61" yMin="-17" xMax="562" yMax="861">
      <component glyphName="e" x="0" y="0" flags="0x204"/>
      <component glyphName="breve" x="16" y="9" flags="0x4"/>
    </TTGlyph>
    <TTGlyph name="ecaron" xMin="61" yMin="-17" xMax="562" yMax="868">
      <component glyphName="caron" x="16" y="9" flags="0x204"/>
      <component glyphName="e" x="0" y="0" flags="0x4"/>
    </TTGlyph>
    <TTGlyph name="ecircumflex" xMin="61" yMin="-17" xMax="562" yMax="875">
      <component glyphName="circumflex" x="9" y="9" flags="0x204"/>
      <component glyphName="e" x="0" y="0" flags="0x4"/>
    </TTGlyph>
    <TTGlyph name="edieresis" xMin="61" yMin="-17" xMax="562" yMax="809">
      <component glyphName="dieresis" x="9" y="9" flags="0x204"/>
      <component glyphName="e" x="0" y="0" flags="0x4"/>
    </TTGlyph>
    <TTGlyph name="edotaccent" xMin="61" yMin="-17" xMax="562" yMax="809">
      <component glyphName="e" x="0" y="0" flags="0x204"/>
      <component glyphName="dotaccent" x="16" y="9" flags="0x4"/>
    </TTGlyph>
    <TTGlyph name="egrave" xMin="61" yMin="-17" xMax="562" yMax="897">
      <component glyphName="e" x="0" y="0" flags="0x204"/>
      <component glyphName="grave" x="-32" y="9" flags="0x4"/>
    </TTGlyph>
    <TTGlyph name="eight" xMin="68" yMin="-16" xMax="559" yMax="704">
      <contour>
        <pt x="300" y="-16" on="1"/>
        <pt x="250" y="-16" on="0"/>
        <pt x="165" y="9" on="0"/>
        <pt x="103" y="55" on="0"/>
        <pt x="68" y="120" on="0"/>
        <pt x="68" y="160" on="1"/>
        <pt x="68" y="219" on="0"/>
        <pt x="135" y="307" on="0"/>
        <pt x="195" y="341" on="1"/>
        <pt x="171" y="357" on="0"/>
        <pt x="128" y="392" on="0"/>
        <pt x="96" y="434" on="0"/>
        <pt x="77" y="481" on="0"/>
        <pt x="77" y="509" on="1"/>
        <pt x="77" y="545" on="0"/>
        <pt x="108" y="615" on="0"/>
        <pt x="170" y="670" on="0"/>
        <pt x="260" y="704" on="0"/>
        <pt x="320" y="704" on="1"/>
        <pt x="367" y="704" on="0"/>
        <pt x="449" y="680" on="0"/>
        <pt x="509" y="636" on="0"/>
        <pt x="544" y="574" on="0"/>
        <pt x="544" y="535" on="1"/>
        <pt x="544" y="475" on="0"/>
        <pt x="481" y="394" on="0"/>
        <pt x="424" y="363" on="1"/>
        <pt x="451" y="347" on="0"/>
        <pt x="499" y="311" on="0"/>
        <pt x="537" y="268" on="0"/>
        <pt x="559" y="216" on="0"/>
        <pt x="559" y="185" on="1"/>
        <pt x="559" y="143" on="0"/>
        <pt x="523" y="70" on="0"/>
        <pt x="456" y="15" on="0"/>
        <pt x="360" y="-16" on="0"/>
      </contour>
      <contour>
        <pt x="227" y="527" on="1"/>
        <pt x="227" y="508" on="0"/>
        <pt x="246" y="476" on="0"/>
        <pt x="277" y="448" on="0"/>
        <pt x="319" y="421" on="0"/>
        <pt x="343" y="408" on="1"/>
        <pt x="370" y="428" on="0"/>
        <pt x="399" y="480" on="0"/>
        <pt x="399" y="506" on="1"/>
        <pt x="399" y="541" on="0"/>
        <pt x="358" y="586" on="0"/>
        <pt x="311" y="586" on="1"/>
        <pt x="269" y="586" on="0"/>
        <pt x="227" y="550" on="0"/>
      </contour>
      <contour>
        <pt x="314" y="102" on="1"/>
        <pt x="357" y="102" on="0"/>
        <pt x="408" y="139" on="0"/>
        <pt x="408" y="167" on="1"/>
        <pt x="408" y="186" on="0"/>
        <pt x="386" y="219" on="0"/>
        <pt x="348" y="250" on="0"/>
        <pt x="299" y="280" on="0"/>
        <pt x="272" y="295" on="1"/>
        <pt x="245" y="274" on="0"/>
        <pt x="216" y="220" on="0"/>
        <pt x="216" y="191" on="1"/>
        <pt x="216" y="153" on="0"/>
        <pt x="262" y="102" on="0"/>
      </contour>
    </TTGlyph>
    <TTGlyph name="eight.den" xMin="125" yMin="-244" xMax="501" yMax="217">
      <component glyphName="eight.num" x="0" y="-705" flags="0x204"/>
    </TTGlyph>
    <TTGlyph name="eight.inf" xMin="125" yMin="-178" xMax="501" yMax="283">
      <component glyphName="eight.num" x="0" y="-639" flags="0x204"/>
    </TTGlyph>
    <TTGlyph name="eight.num" xMin="125" yMin="461" xMax="501" yMax="922">
      <contour>
        <pt x="303" y="461" on="1"/>
        <pt x="218" y="461" on="0"/>
        <pt x="125" y="527" on="0"/>
        <pt x="125" y="579" on="1"/>
        <pt x="125" y="615" on="0"/>
        <pt x="172" y="669" on="0"/>
        <pt x="217" y="688" on="1"/>
        <pt x="182" y="708" on="0"/>
        <pt x="131" y="760" on="0"/>
        <pt x="131" y="795" on="1"/>
        <pt x="131" y="817" on="0"/>
        <pt x="155" y="863" on="0"/>
        <pt x="202" y="899" on="0"/>
        <pt x="272" y="922" on="0"/>
        <pt x="318" y="922" on="1"/>
        <pt x="355" y="922" on="0"/>
        <pt x="419" y="906" on="0"/>
        <pt x="465" y="876" on="0"/>
        <pt x="492" y="833" on="0"/>
        <pt x="492" y="807" on="1"/>
        <pt x="492" y="772" on="0"/>
        <pt x="446" y="721" on="0"/>
        <pt x="404" y="701" on="1"/>
        <pt x="443" y="681" on="0"/>
        <pt x="501" y="629" on="0"/>
        <pt x="501" y="592" on="1"/>
        <pt x="501" y="566" on="0"/>
        <pt x="475" y="519" on="0"/>
        <pt x="424" y="483" on="0"/>
        <pt x="350" y="461" on="0"/>
      </contour>
      <contour>
        <pt x="255" y="801" on="1"/>
        <pt x="255" y="781" on="0"/>
        <pt x="302" y="750" on="0"/>
        <pt x="336" y="734" on="1"/>
        <pt x="354" y="745" on="0"/>
        <pt x="376" y="773" on="0"/>
        <pt x="376" y="788" on="1"/>
        <pt x="376" y="808" on="0"/>
        <pt x="345" y="835" on="0"/>
        <pt x="312" y="835" on="1"/>
        <pt x="285" y="835" on="0"/>
        <pt x="255" y="814" on="0"/>
      </contour>
      <contour>
        <pt x="312" y="549" on="1"/>
        <pt x="342" y="549" on="0"/>
        <pt x="377" y="571" on="0"/>
        <pt x="377" y="586" on="1"/>
        <pt x="377" y="605" on="0"/>
        <pt x="323" y="636" on="0"/>
        <pt x="286" y="653" on="1"/>
        <pt x="266" y="644" on="0"/>
        <pt x="243" y="616" on="0"/>
        <pt x="243" y="599" on="1"/>
        <pt x="243" y="579" on="0"/>
        <pt x="277" y="549" on="0"/>
      </contour>
    </TTGlyph>
    <TTGlyph name="eight.sup" xMin="125" yMin="350" xMax="501" yMax="811">
      <component glyphName="eight.num" x="0" y="-111" flags="0x204"/>
    </TTGlyph>
    <TTGlyph name="ellipsis" xMin="33" yMin="0" xMax="591" yMax="194">
      <contour>
        <pt x="439" y="0" on="1"/>
        <pt x="445" y="194" on="1"/>
        <pt x="591" y="194" on="1"/>
        <pt x="584" y="0" on="1"/>
      </contour>
      <contour>
        <pt x="236" y="0" on="1"/>
        <pt x="242" y="194" on="1"/>
        <pt x="388" y="194" on="1"/>
        <pt x="381" y="0" on="1"/>
      </contour>
      <contour>
        <pt x="33" y="0" on="1"/>
        <pt x="39" y="194" on="1"/>
        <pt x="185" y="194" on="1"/>
        <pt x="178" y="0" on="1"/>
      </contour>
    </TTGlyph>
    <TTGlyph name="emacron" xMin="61" yMin="-17" xMax="562" yMax="796">
      <component glyphName="e" x="0" y="0" flags="0x204"/>
      <component glyphName="macron" x="9" y="9" flags="0x4"/>
    </TTGlyph>
    <TTGlyph name="emdash" xMin="67" yMin="276" xMax="565" yMax="395">
      <contour>
        <pt x="556" y="276" on="1"/>
        <pt x="67" y="276" on="1"/>
        <pt x="67" y="395" on="1"/>
        <pt x="565" y="395" on="1"/>
      </contour>
    </TTGlyph>
    <TTGlyph name="endash" xMin="80" yMin="276" xMax="551" yMax="395">
      <contour>
        <pt x="538" y="276" on="1"/>
        <pt x="80" y="276" on="1"/>
        <pt x="80" y="395" on="1"/>
        <pt x="551" y="395" on="1"/>
      </contour>
    </TTGlyph>
    <TTGlyph name="eogonek" xMin="61" yMin="-255" xMax="562" yMax="577">
      <contour>
        <pt x="314" y="450" on="1"/>
        <pt x="269" y="450" on="0"/>
        <pt x="221" y="397" on="0"/>
        <pt x="217" y="329" on="1"/>
        <pt x="236" y="330" on="0"/>
        <pt x="284" y="332" on="0"/>
        <pt x="335" y="333" on="0"/>
        <pt x="385" y="335" on="0"/>
        <pt x="407" y="335" on="1"/>
        <pt x="404" y="391" on="0"/>
        <pt x="362" y="450" on="0"/>
      </contour>
      <contour>
        <pt x="379" y="3" on="1"/>
        <pt x="294" y="2" on="0"/>
        <pt x="173" y="38" on="0"/>
        <pt x="97" y="107" on="0"/>
        <pt x="61" y="207" on="0"/>
        <pt x="61" y="269" on="1"/>
        <pt x="61" y="335" on="0"/>
        <pt x="107" y="447" on="0"/>
        <pt x="185" y="530" on="0"/>
        <pt x="287" y="577" on="0"/>
        <pt x="343" y="577" on="1"/>
        <pt x="452" y="577" on="0"/>
        <pt x="562" y="437" on="0"/>
        <pt x="562" y="310" on="1"/>
        <pt x="562" y="281" on="0"/>
        <pt x="559" y="248" on="1"/>
        <pt x="220" y="239" on="1"/>
        <pt x="226" y="204" on="0"/>
        <pt x="266" y="158" on="0"/>
        <pt x="343" y="130" on="0"/>
        <pt x="461" y="118" on="0"/>
        <pt x="545" y="117" on="1"/>
        <pt x="531" y="-8" on="1"/>
        <pt x="457" y="-33" on="0"/>
        <pt x="401" y="-73" on="0"/>
        <pt x="401" y="-88" on="1"/>
        <pt x="401" y="-105" on="0"/>
        <pt x="451" y="-129" on="0"/>
        <pt x="514" y="-133" on="1"/>
        <pt x="501" y="-255" on="1"/>
        <pt x="433" y="-254" on="0"/>
        <pt x="338" y="-233" on="0"/>
        <pt x="278" y="-201" on="0"/>
        <pt x="251" y="-160" on="0"/>
        <pt x="251" y="-138" on="1"/>
        <pt x="251" y="-103" on="0"/>
        <pt x="312" y="-32" on="0"/>
      </contour>
    </TTGlyph>
    <TTGlyph name="equal" xMin="79" yMin="152" xMax="545" yMax="526">
      <contour>
        <pt x="545" y="394" on="1"/>
        <pt x="79" y="394" on="1"/>
        <pt x="79" y="526" on="1"/>
        <pt x="545" y="526" on="1"/>
      </contour>
      <contour>
        <pt x="545" y="152" on="1"/>
        <pt x="79" y="152" on="1"/>
        <pt x="79" y="284" on="1"/>
        <pt x="545" y="284" on="1"/>
      </contour>
    </TTGlyph>
    <TTGlyph name="eth" xMin="56" yMin="-18" xMax="565" yMax="796">
      <contour>
        <pt x="298" y="-18" on="1"/>
        <pt x="248" y="-18" on="0"/>
        <pt x="160" y="17" on="0"/>
        <pt x="94" y="83" on="0"/>
        <pt x="56" y="179" on="0"/>
        <pt x="56" y="239" on="1"/>
        <pt x="56" y="302" on="0"/>
        <pt x="102" y="402" on="0"/>
        <pt x="180" y="471" on="0"/>
        <pt x="283" y="507" on="0"/>
        <pt x="339" y="507" on="1"/>
        <pt x="349" y="507" on="1"/>
        <pt x="338" y="524" on="0"/>
        <pt x="310" y="562" on="0"/>
        <pt x="295" y="578" on="1"/>
        <pt x="157" y="522" on="1"/>
        <pt x="125" y="608" on="1"/>
        <pt x="222" y="647" on="1"/>
        <pt x="204" y="661" on="0"/>
        <pt x="166" y="690" on="0"/>
        <pt x="145" y="704" on="1"/>
        <pt x="248" y="796" on="1"/>
        <pt x="316" y="750" on="0"/>
        <pt x="365" y="705" on="1"/>
        <pt x="479" y="751" on="1"/>
        <pt x="510" y="665" on="1"/>
        <pt x="435" y="635" on="1"/>
        <pt x="501" y="559" on="0"/>
        <pt x="565" y="395" on="0"/>
        <pt x="565" y="299" on="1"/>
        <pt x="565" y="222" on="0"/>
        <pt x="522" y="103" on="0"/>
        <pt x="448" y="23" on="0"/>
        <pt x="352" y="-18" on="0"/>
      </contour>
      <contour>
        <pt x="317" y="110" on="1"/>
        <pt x="365" y="110" on="0"/>
        <pt x="414" y="193" on="0"/>
        <pt x="414" y="281" on="1"/>
        <pt x="414" y="332" on="0"/>
        <pt x="404" y="376" on="1"/>
        <pt x="380" y="384" on="0"/>
        <pt x="338" y="390" on="0"/>
        <pt x="320" y="390" on="1"/>
        <pt x="262" y="390" on="0"/>
        <pt x="210" y="321" on="0"/>
        <pt x="210" y="259" on="1"/>
        <pt x="210" y="223" on="0"/>
        <pt x="228" y="167" on="0"/>
        <pt x="257" y="130" on="0"/>
        <pt x="296" y="110" on="0"/>
      </contour>
    </TTGlyph>
    <TTGlyph name="exclam" xMin="208" yMin="0" xMax="421" yMax="753">
      <contour>
        <pt x="260" y="284" on="1"/>
        <pt x="219" y="753" on="1"/>
        <pt x="421" y="753" on="1"/>
        <pt x="366" y="284" on="1"/>
      </contour>
      <contour>
        <pt x="208" y="0" on="1"/>
        <pt x="212" y="169" on="1"/>
        <pt x="405" y="169" on="1"/>
        <pt x="401" y="0" on="1"/>
      </contour>
    </TTGlyph>
    <TTGlyph name="exclamdown" xMin="203" yMin="-63" xMax="417" yMax="689">
      <contour>
        <pt x="417" y="689" on="1"/>
        <pt x="413" y="521" on="1"/>
        <pt x="220" y="521" on="1"/>
        <pt x="223" y="689" on="1"/>
      </contour>
      <contour>
        <pt x="364" y="405" on="1"/>
        <pt x="407" y="-63" on="1"/>
        <pt x="203" y="-63" on="1"/>
        <pt x="259" y="405" on="1"/>
      </contour>
    </TTGlyph>
    <TTGlyph name="f" xMin="80" yMin="0" xMax="579" yMax="799">
      <contour>
        <pt x="515" y="0" on="1"/>
        <pt x="87" y="0" on="1"/>
        <pt x="87" y="118" on="1"/>
        <pt x="216" y="118" on="1"/>
        <pt x="216" y="408" on="1"/>
        <pt x="80" y="408" on="1"/>
        <pt x="94" y="527" on="1"/>
        <pt x="216" y="527" on="1"/>
        <pt x="216" y="582" on="0"/>
        <pt x="251" y="678" on="0"/>
        <pt x="334" y="750" on="0"/>
        <pt x="469" y="794" on="0"/>
        <pt x="569" y="799" on="1"/>
        <pt x="579" y="647" on="1"/>
        <pt x="507" y="645" on="0"/>
        <pt x="425" y="639" on="0"/>
        <pt x="383" y="621" on="0"/>
        <pt x="373" y="585" on="0"/>
        <pt x="373" y="555" on="1"/>
        <pt x="373" y="527" on="1"/>
        <pt x="541" y="527" on="1"/>
        <pt x="541" y="408" on="1"/>
        <pt x="373" y="408" on="1"/>
        <pt x="373" y="118" on="1"/>
        <pt x="529" y="118" on="1"/>
      </contour>
    </TTGlyph>
    <TTGlyph name="five" xMin="91" yMin="-17" xMax="543" yMax="688">
      <contour>
        <pt x="543" y="236" on="1"/>
        <pt x="543" y="188" on="0"/>
        <pt x="492" y="102" on="0"/>
        <pt x="384" y="35" on="0"/>
        <pt x="217" y="-10" on="0"/>
        <pt x="100" y="-17" on="1"/>
        <pt x="91" y="128" on="1"/>
        <pt x="178" y="135" on="0"/>
        <pt x="296" y="151" on="0"/>
        <pt x="367" y="173" on="0"/>
        <pt x="397" y="204" on="0"/>
        <pt x="397" y="225" on="1"/>
        <pt x="397" y="243" on="0"/>
        <pt x="366" y="275" on="0"/>
        <pt x="297" y="302" on="0"/>
        <pt x="188" y="326" on="0"/>
        <pt x="110" y="335" on="1"/>
        <pt x="131" y="688" on="1"/>
        <pt x="523" y="688" on="1"/>
        <pt x="511" y="552" on="1"/>
        <pt x="262" y="553" on="1"/>
        <pt x="255" y="433" on="1"/>
        <pt x="338" y="421" on="0"/>
        <pt x="449" y="381" on="0"/>
        <pt x="515" y="330" on="0"/>
        <pt x="543" y="269" on="0"/>
      </contour>
    </TTGlyph>
    <TTGlyph name="five.den" xMin="145" yMin="-246" xMax="492" yMax="205">
      <component glyphName="five.num" x="0" y="-705" flags="0x204"/>
    </TTGlyph>
    <TTGlyph name="five.inf" xMin="145" yMin="-180" xMax="492" yMax="271">
      <component glyphName="five.num" x="0" y="-639" flags="0x204"/>
    </TTGlyph>
    <TTGlyph name="five.num" xMin="145" yMin="459" xMax="492" yMax="910">
      <contour>
        <pt x="492" y="619" on="1"/>
        <pt x="492" y="555" on="0"/>
        <pt x="327" y="467" on="0"/>
        <pt x="151" y="459" on="1"/>
        <pt x="145" y="569" on="1"/>
        <pt x="209" y="572" on="0"/>
        <pt x="298" y="579" on="0"/>
        <pt x="353" y="589" on="0"/>
        <pt x="377" y="604" on="0"/>
        <pt x="377" y="615" on="1"/>
        <pt x="377" y="635" on="0"/>
        <pt x="273" y="660" on="0"/>
        <pt x="156" y="670" on="1"/>
        <pt x="174" y="910" on="1"/>
        <pt x="480" y="910" on="1"/>
        <pt x="470" y="807" on="1"/>
        <pt x="273" y="807" on="1"/>
        <pt x="268" y="750" on="1"/>
        <pt x="331" y="743" on="0"/>
        <pt x="417" y="717" on="0"/>
        <pt x="469" y="683" on="0"/>
        <pt x="492" y="641" on="0"/>
      </contour>
    </TTGlyph>
    <TTGlyph name="five.sup" xMin="145" yMin="348" xMax="492" yMax="799">
      <component glyphName="five.num" x="0" y="-111" flags="0x204"/>
    </TTGlyph>
    <TTGlyph name="fiveeighths" xMin="72" yMin="-244" xMax="552" yMax="910">
      <component glyphName="eight.num" x="0" y="-705" flags="0x204"/>
      <component glyphName="fraction.afrc" x="0" y="0" flags="0x4"/>
      <component glyphName="five.num" x="0" y="0" flags="0x4"/>
    </TTGlyph>
    <TTGlyph name="fivesixths" xMin="72" yMin="-244" xMax="552" yMax="910">
      <component glyphName="six.num" x="0" y="-705" flags="0x204"/>
      <component glyphName="fraction.afrc" x="0" y="0" flags="0x4"/>
      <component glyphName="five.num" x="0" y="0" flags="0x4"/>
    </TTGlyph>
    <TTGlyph name="four" xMin="77" yMin="0" xMax="582" yMax="695">
      <contour>
        <pt x="509" y="118" on="1"/>
        <pt x="509" y="0" on="1"/>
        <pt x="364" y="0" on="1"/>
        <pt x="364" y="118" on="1"/>
        <pt x="78" y="118" on="1"/>
        <pt x="77" y="131" on="0"/>
        <pt x="77" y="159" on="0"/>
        <pt x="77" y="173" on="1"/>
        <pt x="77" y="229" on="0"/>
        <pt x="86" y="357" on="0"/>
        <pt x="103" y="492" on="0"/>
        <pt x="128" y="629" on="0"/>
        <pt x="144" y="695" on="1"/>
        <pt x="311" y="685" on="1"/>
        <pt x="201" y="252" on="1"/>
        <pt x="364" y="252" on="1"/>
        <pt x="364" y="468" on="1"/>
        <pt x="509" y="484" on="1"/>
        <pt x="509" y="252" on="1"/>
        <pt x="582" y="252" on="1"/>
        <pt x="570" y="118" on="1"/>
      </contour>
    </TTGlyph>
    <TTGlyph name="four.den" xMin="131" yMin="-233" xMax="516" yMax="211">
      <component glyphName="four.num" x="0" y="-705" flags="0x204"/>
    </TTGlyph>
    <TTGlyph name="four.inf" xMin="131" yMin="-167" xMax="516" yMax="277">
      <component glyphName="four.num" x="0" y="-639" flags="0x204"/>
    </TTGlyph>
    <TTGlyph name="four.num" xMin="131" yMin="472" xMax="516" yMax="916">
      <contour>
        <pt x="461" y="547" on="1"/>
        <pt x="462" y="472" on="1"/>
        <pt x="347" y="472" on="1"/>
        <pt x="348" y="548" on="1"/>
        <pt x="132" y="546" on="1"/>
        <pt x="131" y="554" on="0"/>
        <pt x="131" y="571" on="0"/>
        <pt x="131" y="580" on="1"/>
        <pt x="131" y="616" on="0"/>
        <pt x="138" y="699" on="0"/>
        <pt x="150" y="786" on="0"/>
        <pt x="168" y="874" on="0"/>
        <pt x="179" y="916" on="1"/>
        <pt x="312" y="908" on="1"/>
        <pt x="237" y="646" on="1"/>
        <pt x="348" y="645" on="1"/>
        <pt x="347" y="768" on="1"/>
        <pt x="462" y="778" on="1"/>
        <pt x="461" y="645" on="1"/>
        <pt x="516" y="646" on="1"/>
        <pt x="508" y="546" on="1"/>
      </contour>
    </TTGlyph>
    <TTGlyph name="four.sup" xMin="131" yMin="361" xMax="516" yMax="805">
      <component glyphName="four.num" x="0" y="-111" flags="0x204"/>
    </TTGlyph>
    <TTGlyph name="fourfifths" xMin="72" yMin="-246" xMax="552" yMax="916">
      <component glyphName="four.num" x="0" y="0" flags="0x204"/>
      <component glyphName="five.num" x="0" y="-705" flags="0x4"/>
      <component glyphName="fraction.afrc" x="0" y="0" flags="0x4"/>
    </TTGlyph>
    <TTGlyph name="fraction" xMin="20" yMin="-178" xMax="599" yMax="845">
      <contour>
        <pt x="20" y="-124" on="1"/>
        <pt x="465" y="845" on="1"/>
        <pt x="599" y="790" on="1"/>
        <pt x="154" y="-178" on="1"/>
      </contour>
    </TTGlyph>
    <TTGlyph name="fraction.afrc" xMin="72" yMin="289" xMax="552" yMax="389">
      <contour>
        <pt x="72" y="389" on="1"/>
        <pt x="552" y="389" on="1"/>
        <pt x="552" y="289" on="1"/>
        <pt x="72" y="289" on="1"/>
      </contour>
    </TTGlyph>
    <TTGlyph name="g" xMin="56" yMin="-198" xMax="544" yMax="576">
      <contour>
        <pt x="125" y="-57" on="1"/>
        <pt x="212" y="-49" on="0"/>
        <pt x="315" y="-34" on="0"/>
        <pt x="369" y="-4" on="0"/>
        <pt x="386" y="50" on="0"/>
        <pt x="387" y="97" on="1"/>
        <pt x="361" y="80" on="0"/>
        <pt x="298" y="57" on="0"/>
        <pt x="258" y="57" on="1"/>
        <pt x="215" y="57" on="0"/>
        <pt x="141" y="89" on="0"/>
        <pt x="87" y="148" on="0"/>
        <pt x="56" y="232" on="0"/>
        <pt x="56" y="285" on="1"/>
        <pt x="56" y="351" on="0"/>
        <pt x="104" y="458" on="0"/>
        <pt x="188" y="535" on="0"/>
        <pt x="301" y="576" on="0"/>
        <pt x="366" y="576" on="1"/>
        <pt x="409" y="576" on="0"/>
        <pt x="497" y="562" on="0"/>
        <pt x="541" y="548" on="1"/>
        <pt x="542" y="518" on="0"/>
        <pt x="543" y="427" on="0"/>
        <pt x="544" y="323" on="0"/>
        <pt x="544" y="218" on="0"/>
        <pt x="544" y="173" on="1"/>
        <pt x="544" y="92" on="0"/>
        <pt x="510" y="-39" on="0"/>
        <pt x="420" y="-135" on="0"/>
        <pt x="263" y="-192" on="0"/>
        <pt x="139" y="-198" on="1"/>
      </contour>
      <contour>
        <pt x="320" y="178" on="1"/>
        <pt x="352" y="178" on="0"/>
        <pt x="387" y="189" on="1"/>
        <pt x="387" y="431" on="1"/>
        <pt x="348" y="444" on="0"/>
        <pt x="308" y="444" on="1"/>
        <pt x="262" y="444" on="0"/>
        <pt x="211" y="384" on="0"/>
        <pt x="211" y="322" on="1"/>
        <pt x="211" y="247" on="0"/>
        <pt x="275" y="178" on="0"/>
      </contour>
    </TTGlyph>
    <TTGlyph name="gbreve" xMin="56" yMin="-198" xMax="563" yMax="860">
      <component glyphName="g" x="0" y="0" flags="0x204"/>
      <component glyphName="breve" x="22" y="8" flags="0x4"/>
    </TTGlyph>
    <TTGlyph name="gcommaaccent" xMin="56" yMin="-198" xMax="544" yMax="895">
      <component glyphName="commaaccent.rot" x="16" y="8" flags="0x204"/>
      <component glyphName="g" x="0" y="0" flags="0x4"/>
    </TTGlyph>
    <TTGlyph name="gdotaccent" xMin="56" yMin="-198" xMax="544" yMax="808">
      <component glyphName="g" x="0" y="0" flags="0x204"/>
      <component glyphName="dotaccent" x="22" y="8" flags="0x4"/>
    </TTGlyph>
    <TTGlyph name="germandbls" xMin="67" yMin="-10" xMax="604" yMax="797">
      <contour>
        <pt x="439" y="398" on="1"/>
        <pt x="439" y="382" on="0"/>
        <pt x="463" y="356" on="0"/>
        <pt x="500" y="328" on="0"/>
        <pt x="543" y="296" on="0"/>
        <pt x="580" y="256" on="0"/>
        <pt x="604" y="204" on="0"/>
        <pt x="604" y="170" on="1"/>
        <pt x="604" y="137" on="0"/>
        <pt x="577" y="72" on="0"/>
        <pt x="511" y="21" on="0"/>
        <pt x="398" y="-10" on="0"/>
        <pt x="312" y="-10" on="1"/>
        <pt x="290" y="-10" on="1"/>
        <pt x="297" y="127" on="1"/>
        <pt x="316" y="125" on="0"/>
        <pt x="348" y="123" on="0"/>
        <pt x="362" y="123" on="1"/>
        <pt x="406" y="123" on="0"/>
        <pt x="444" y="143" on="0"/>
        <pt x="444" y="165" on="1"/>
        <pt x="444" y="181" on="0"/>
        <pt x="421" y="206" on="0"/>
        <pt x="385" y="231" on="0"/>
        <pt x="345" y="258" on="0"/>
        <pt x="309" y="295" on="0"/>
        <pt x="286" y="343" on="0"/>
        <pt x="286" y="376" on="1"/>
        <pt x="286" y="408" on="0"/>
        <pt x="312" y="461" on="0"/>
        <pt x="344" y="511" on="0"/>
        <pt x="370" y="559" on="0"/>
        <pt x="370" y="586" on="1"/>
        <pt x="370" y="617" on="0"/>
        <pt x="336" y="664" on="0"/>
        <pt x="301" y="664" on="1"/>
        <pt x="260" y="664" on="0"/>
        <pt x="223" y="607" on="0"/>
        <pt x="223" y="536" on="1"/>
        <pt x="223" y="0" on="1"/>
        <pt x="67" y="0" on="1"/>
        <pt x="67" y="504" on="1"/>
        <pt x="67" y="565" on="0"/>
        <pt x="102" y="672" on="0"/>
        <pt x="170" y="752" on="0"/>
        <pt x="270" y="797" on="0"/>
        <pt x="336" y="797" on="1"/>
        <pt x="387" y="797" on="0"/>
        <pt x="460" y="766" on="0"/>
        <pt x="507" y="716" on="0"/>
        <pt x="529" y="653" on="0"/>
        <pt x="529" y="622" on="1"/>
        <pt x="529" y="575" on="0"/>
        <pt x="501" y="507" on="0"/>
        <pt x="467" y="456" on="0"/>
        <pt x="439" y="416" on="0"/>
      </contour>
    </TTGlyph>
    <TTGlyph name="grave" xMin="140" yMin="620" xMax="492" yMax="888">
      <contour>
        <pt x="450" y="620" on="1"/>
        <pt x="419" y="630" on="0"/>
        <pt x="339" y="663" on="0"/>
        <pt x="254" y="701" on="0"/>
        <pt x="173" y="743" on="0"/>
        <pt x="140" y="763" on="1"/>
        <pt x="241" y="888" on="1"/>
        <pt x="267" y="865" on="0"/>
        <pt x="335" y="809" on="0"/>
        <pt x="405" y="753" on="0"/>
        <pt x="469" y="704" on="0"/>
        <pt x="492" y="688" on="1"/>
      </contour>
    </TTGlyph>
    <TTGlyph name="grave.cap" xMin="140" yMin="620" xMax="492" yMax="888">
      <contour>
        <pt x="450" y="620" on="1"/>
        <pt x="419" y="630" on="0"/>
        <pt x="339" y="663" on="0"/>
        <pt x="254" y="701" on="0"/>
        <pt x="173" y="743" on="0"/>
        <pt x="140" y="763" on="1"/>
        <pt x="241" y="888" on="1"/>
        <pt x="267" y="865" on="0"/>
        <pt x="335" y="809" on="0"/>
        <pt x="405" y="753" on="0"/>
        <pt x="469" y="704" on="0"/>
        <pt x="492" y="688" on="1"/>
      </contour>
    </TTGlyph>
    <TTGlyph name="greater" xMin="88" yMin="-30" xMax="541" yMax="693">
      <contour>
        <pt x="88" y="82" on="1"/>
        <pt x="400" y="325" on="1"/>
        <pt x="400" y="339" on="1"/>
        <pt x="89" y="579" on="1"/>
        <pt x="177" y="693" on="1"/>
        <pt x="541" y="397" on="1"/>
        <pt x="541" y="268" on="1"/>
        <pt x="171" y="-30" on="1"/>
      </contour>
    </TTGlyph>
    <TTGlyph name="greaterequal" xMin="77" yMin="-1" xMax="549" yMax="694">
      <contour>
        <pt x="549" y="131" on="1"/>
        <pt x="549" y="-1" on="1"/>
        <pt x="77" y="-1" on="1"/>
        <pt x="77" y="131" on="1"/>
      </contour>
      <contour>
        <pt x="94" y="576" on="1"/>
        <pt x="155" y="694" on="1"/>
        <pt x="542" y="471" on="1"/>
        <pt x="544" y="354" on="1"/>
        <pt x="144" y="170" on="1"/>
        <pt x="94" y="292" on="1"/>
        <pt x="379" y="416" on="1"/>
        <pt x="379" y="424" on="1"/>
      </contour>
    </TTGlyph>
    <TTGlyph name="guillemotleft" xMin="29" yMin="-23" xMax="606" yMax="587">
      <contour>
        <pt x="29" y="203" on="1"/>
        <pt x="36" y="356" on="1"/>
        <pt x="217" y="587" on="1"/>
        <pt x="328" y="496" on="1"/>
        <pt x="149" y="286" on="1"/>
        <pt x="322" y="67" on="1"/>
        <pt x="211" y="-23" on="1"/>
      </contour>
      <contour>
        <pt x="308" y="203" on="1"/>
        <pt x="314" y="356" on="1"/>
        <pt x="495" y="587" on="1"/>
        <pt x="606" y="496" on="1"/>
        <pt x="425" y="284" on="1"/>
        <pt x="601" y="67" on="1"/>
        <pt x="490" y="-23" on="1"/>
      </contour>
    </TTGlyph>
    <TTGlyph name="guillemotleft.cap" xMin="29" yMin="37" xMax="606" yMax="647">
      <component glyphName="guillemotleft" x="0" y="60" flags="0x204"/>
    </TTGlyph>
    <TTGlyph name="guillemotright" xMin="18" yMin="-23" xMax="595" yMax="587">
      <contour>
        <pt x="297" y="68" on="1"/>
        <pt x="478" y="281" on="1"/>
        <pt x="302" y="497" on="1"/>
        <pt x="413" y="587" on="1"/>
        <pt x="595" y="361" on="1"/>
        <pt x="589" y="208" on="1"/>
        <pt x="408" y="-23" on="1"/>
      </contour>
      <contour>
        <pt x="18" y="68" on="1"/>
        <pt x="200" y="281" on="1"/>
        <pt x="24" y="497" on="1"/>
        <pt x="135" y="587" on="1"/>
        <pt x="317" y="361" on="1"/>
        <pt x="310" y="208" on="1"/>
        <pt x="129" y="-23" on="1"/>
      </contour>
    </TTGlyph>
    <TTGlyph name="guillemotright.cap" xMin="18" yMin="37" xMax="595" yMax="647">
      <component glyphName="guillemotright" x="0" y="60" flags="0x204"/>
    </TTGlyph>
    <TTGlyph name="guilsinglleft" xMin="134" yMin="-23" xMax="497" yMax="587">
      <contour>
        <pt x="134" y="203" on="1"/>
        <pt x="144" y="356" on="1"/>
        <pt x="392" y="587" on="1"/>
        <pt x="497" y="477" on="1"/>
        <pt x="261" y="282" on="1"/>
        <pt x="489" y="87" on="1"/>
        <pt x="384" y="-23" on="1"/>
      </contour>
    </TTGlyph>
    <TTGlyph name="guilsinglleft.cap" xMin="134" yMin="37" xMax="497" yMax="647">
      <component glyphName="guilsinglleft" x="0" y="60" flags="0x204"/>
    </TTGlyph>
    <TTGlyph name="guilsinglright" xMin="129" yMin="-23" xMax="492" yMax="587">
      <contour>
        <pt x="129" y="87" on="1"/>
        <pt x="365" y="282" on="1"/>
        <pt x="137" y="477" on="1"/>
        <pt x="241" y="587" on="1"/>
        <pt x="492" y="361" on="1"/>
        <pt x="482" y="208" on="1"/>
        <pt x="233" y="-23" on="1"/>
      </contour>
    </TTGlyph>
    <TTGlyph name="guilsinglright.cap" xMin="129" yMin="37" xMax="492" yMax="647">
      <component glyphName="guilsinglright" x="0" y="60" flags="0x204"/>
    </TTGlyph>
    <TTGlyph name="h" xMin="79" yMin="0" xMax="552" yMax="794">
      <contour>
        <pt x="319" y="443" on="1"/>
        <pt x="296" y="443" on="0"/>
        <pt x="256" y="430" on="0"/>
        <pt x="237" y="419" on="1"/>
        <pt x="237" y="0" on="1"/>
        <pt x="79" y="0" on="1"/>
        <pt x="79" y="780" on="1"/>
        <pt x="237" y="794" on="1"/>
        <pt x="237" y="515" on="1"/>
        <pt x="268" y="541" on="0"/>
        <pt x="346" y="577" on="0"/>
        <pt x="397" y="577" on="1"/>
        <pt x="469" y="577" on="0"/>
        <pt x="552" y="487" on="0"/>
        <pt x="552" y="384" on="1"/>
        <pt x="552" y="0" on="1"/>
        <pt x="394" y="0" on="1"/>
        <pt x="394" y="327" on="1"/>
        <pt x="394" y="394" on="0"/>
        <pt x="353" y="443" on="0"/>
      </contour>
    </TTGlyph>
    <TTGlyph name="hbar" xMin="17" yMin="0" xMax="552" yMax="794">
      <contour>
        <pt x="319" y="443" on="1"/>
        <pt x="296" y="443" on="0"/>
        <pt x="256" y="430" on="0"/>
        <pt x="237" y="419" on="1"/>
        <pt x="237" y="0" on="1"/>
        <pt x="78" y="0" on="1"/>
        <pt x="78" y="623" on="1"/>
        <pt x="17" y="623" on="1"/>
        <pt x="17" y="719" on="1"/>
        <pt x="78" y="719" on="1"/>
        <pt x="78" y="780" on="1"/>
        <pt x="237" y="794" on="1"/>
        <pt x="237" y="719" on="1"/>
        <pt x="363" y="719" on="1"/>
        <pt x="363" y="624" on="1"/>
        <pt x="237" y="624" on="1"/>
        <pt x="237" y="510" on="1"/>
        <pt x="268" y="536" on="0"/>
        <pt x="346" y="572" on="0"/>
        <pt x="397" y="572" on="1"/>
        <pt x="468" y="572" on="0"/>
        <pt x="552" y="483" on="0"/>
        <pt x="552" y="384" on="1"/>
        <pt x="552" y="0" on="1"/>
        <pt x="394" y="0" on="1"/>
        <pt x="394" y="327" on="1"/>
        <pt x="394" y="394" on="0"/>
        <pt x="353" y="443" on="0"/>
      </contour>
    </TTGlyph>
    <TTGlyph name="hcoslug" xMin="50" yMin="-100" xMax="644" yMax="700">
      <contour>
        <pt x="644" y="-100" on="1"/>
        <pt x="50" y="-100" on="1"/>
        <pt x="50" y="700" on="1"/>
        <pt x="644" y="700" on="1"/>
      </contour>
      <contour>
        <pt x="247" y="428" on="1"/>
        <pt x="247" y="441" on="0"/>
        <pt x="262" y="457" on="0"/>
        <pt x="274" y="457" on="1"/>
        <pt x="287" y="457" on="0"/>
        <pt x="303" y="436" on="0"/>
        <pt x="303" y="419" on="1"/>
        <pt x="303" y="406" on="0"/>
        <pt x="293" y="382" on="0"/>
        <pt x="285" y="369" on="1"/>
        <pt x="268" y="386" on="0"/>
        <pt x="247" y="411" on="0"/>
      </contour>
      <contour>
        <pt x="312" y="342" on="1"/>
        <pt x="342" y="362" on="0"/>
        <pt x="354" y="376" on="1"/>
        <pt x="369" y="361" on="0"/>
        <pt x="369" y="342" on="1"/>
        <pt x="369" y="325" on="0"/>
        <pt x="353" y="296" on="1"/>
        <pt x="343" y="307" on="0"/>
        <pt x="324" y="330" on="0"/>
      </contour>
      <contour>
        <pt x="261" y="219" on="1"/>
        <pt x="238" y="219" on="0"/>
        <pt x="209" y="250" on="0"/>
        <pt x="209" y="273" on="1"/>
        <pt x="209" y="297" on="0"/>
        <pt x="225" y="313" on="1"/>
        <pt x="239" y="300" on="0"/>
        <pt x="278" y="257" on="0"/>
        <pt x="299" y="231" on="1"/>
        <pt x="284" y="219" on="0"/>
      </contour>
      <contour>
        <pt x="382" y="264" on="1"/>
        <pt x="393" y="279" on="0"/>
        <pt x="417" y="299" on="0"/>
        <pt x="428" y="306" on="1"/>
        <pt x="435" y="295" on="0"/>
        <pt x="457" y="281" on="0"/>
        <pt x="471" y="281" on="1"/>
        <pt x="492" y="281" on="0"/>
        <pt x="521" y="312" on="0"/>
        <pt x="521" y="335" on="1"/>
        <pt x="521" y="358" on="0"/>
        <pt x="492" y="387" on="0"/>
        <pt x="471" y="387" on="1"/>
        <pt x="436" y="387" on="0"/>
        <pt x="411" y="349" on="1"/>
        <pt x="409" y="369" on="0"/>
        <pt x="385" y="386" on="0"/>
        <pt x="365" y="386" on="1"/>
        <pt x="362" y="386" on="1"/>
        <pt x="371" y="401" on="0"/>
        <pt x="371" y="420" on="1"/>
        <pt x="371" y="433" on="0"/>
        <pt x="359" y="460" on="0"/>
        <pt x="335" y="481" on="0"/>
        <pt x="299" y="494" on="0"/>
        <pt x="276" y="494" on="1"/>
        <pt x="251" y="494" on="0"/>
        <pt x="211" y="480" on="0"/>
        <pt x="182" y="456" on="0"/>
        <pt x="167" y="425" on="0"/>
        <pt x="167" y="409" on="1"/>
        <pt x="167" y="387" on="0"/>
        <pt x="182" y="357" on="0"/>
        <pt x="198" y="340" on="1"/>
        <pt x="116" y="312" on="0"/>
        <pt x="116" y="249" on="1"/>
        <pt x="116" y="229" on="0"/>
        <pt x="133" y="195" on="0"/>
        <pt x="163" y="170" on="0"/>
        <pt x="202" y="156" on="0"/>
        <pt x="225" y="156" on="1"/>
        <pt x="288" y="156" on="0"/>
        <pt x="329" y="201" on="1"/>
        <pt x="354" y="175" on="0"/>
        <pt x="391" y="156" on="0"/>
        <pt x="414" y="156" on="1"/>
        <pt x="446" y="156" on="0"/>
        <pt x="492" y="206" on="0"/>
        <pt x="494" y="250" on="1"/>
        <pt x="487" y="252" on="1"/>
        <pt x="479" y="239" on="0"/>
        <pt x="460" y="223" on="0"/>
        <pt x="444" y="223" on="1"/>
        <pt x="429" y="223" on="0"/>
        <pt x="401" y="242" on="0"/>
      </contour>
      <contour>
        <pt x="274" y="122" on="1"/>
        <pt x="274" y="113" on="1"/>
        <pt x="267" y="113" on="1"/>
        <pt x="267" y="106" on="1"/>
        <pt x="274" y="106" on="1"/>
        <pt x="274" y="86" on="1"/>
        <pt x="274" y="73" on="0"/>
        <pt x="286" y="73" on="1"/>
        <pt x="297" y="73" on="0"/>
        <pt x="300" y="86" on="1"/>
        <pt x="295" y="88" on="1"/>
        <pt x="294" y="81" on="0"/>
        <pt x="290" y="81" on="1"/>
        <pt x="286" y="81" on="0"/>
        <pt x="286" y="86" on="1"/>
        <pt x="286" y="106" on="1"/>
        <pt x="299" y="106" on="1"/>
        <pt x="299" y="113" on="1"/>
        <pt x="286" y="113" on="1"/>
        <pt x="286" y="124" on="1"/>
      </contour>
      <contour>
        <pt x="174" y="94" on="1"/>
        <pt x="174" y="84" on="0"/>
        <pt x="186" y="73" on="0"/>
        <pt x="195" y="73" on="1"/>
        <pt x="204" y="73" on="0"/>
        <pt x="216" y="85" on="0"/>
        <pt x="216" y="94" on="1"/>
        <pt x="216" y="103" on="0"/>
        <pt x="204" y="114" on="0"/>
        <pt x="195" y="114" on="1"/>
        <pt x="186" y="114" on="0"/>
        <pt x="174" y="103" on="0"/>
      </contour>
      <contour>
        <pt x="203" y="94" on="1"/>
        <pt x="203" y="78" on="0"/>
        <pt x="195" y="78" on="1"/>
        <pt x="187" y="78" on="0"/>
        <pt x="187" y="94" on="1"/>
        <pt x="187" y="109" on="0"/>
        <pt x="195" y="109" on="1"/>
        <pt x="203" y="109" on="0"/>
      </contour>
      <contour>
        <pt x="379" y="93" on="1"/>
        <pt x="379" y="80" on="0"/>
        <pt x="372" y="80" on="1"/>
        <pt x="364" y="80" on="0"/>
        <pt x="364" y="93" on="1"/>
        <pt x="364" y="106" on="0"/>
        <pt x="372" y="106" on="1"/>
        <pt x="379" y="106" on="0"/>
      </contour>
      <contour>
        <pt x="219" y="74" on="1"/>
        <pt x="241" y="74" on="1"/>
        <pt x="241" y="81" on="1"/>
        <pt x="237" y="81" on="1"/>
        <pt x="237" y="96" on="1"/>
        <pt x="237" y="106" on="0"/>
        <pt x="244" y="106" on="1"/>
        <pt x="250" y="106" on="0"/>
        <pt x="250" y="99" on="1"/>
        <pt x="250" y="81" on="1"/>
        <pt x="246" y="81" on="1"/>
        <pt x="246" y="74" on="1"/>
        <pt x="268" y="74" on="1"/>
        <pt x="268" y="81" on="1"/>
        <pt x="262" y="81" on="1"/>
        <pt x="262" y="100" on="1"/>
        <pt x="262" y="114" on="0"/>
        <pt x="250" y="114" on="1"/>
        <pt x="241" y="114" on="0"/>
        <pt x="236" y="103" on="1"/>
        <pt x="236" y="113" on="1"/>
        <pt x="219" y="113" on="1"/>
        <pt x="219" y="106" on="1"/>
        <pt x="225" y="106" on="1"/>
        <pt x="225" y="81" on="1"/>
        <pt x="219" y="81" on="1"/>
      </contour>
      <contour>
        <pt x="125" y="74" on="1"/>
        <pt x="155" y="74" on="1"/>
        <pt x="155" y="81" on="1"/>
        <pt x="145" y="81" on="1"/>
        <pt x="145" y="97" on="1"/>
        <pt x="149" y="97" on="1"/>
        <pt x="154" y="97" on="0"/>
        <pt x="155" y="89" on="1"/>
        <pt x="162" y="89" on="1"/>
        <pt x="162" y="112" on="1"/>
        <pt x="155" y="112" on="1"/>
        <pt x="154" y="104" on="0"/>
        <pt x="149" y="104" on="1"/>
        <pt x="145" y="104" on="1"/>
        <pt x="145" y="122" on="1"/>
        <pt x="157" y="122" on="1"/>
        <pt x="162" y="122" on="0"/>
        <pt x="166" y="117" on="0"/>
        <pt x="168" y="109" on="1"/>
        <pt x="176" y="109" on="1"/>
        <pt x="176" y="129" on="1"/>
        <pt x="125" y="129" on="1"/>
        <pt x="125" y="122" on="1"/>
        <pt x="132" y="122" on="1"/>
        <pt x="132" y="81" on="1"/>
        <pt x="125" y="81" on="1"/>
      </contour>
      <contour>
        <pt x="302" y="74" on="1"/>
        <pt x="309" y="74" on="1"/>
        <pt x="310" y="78" on="1"/>
        <pt x="312" y="76" on="0"/>
        <pt x="318" y="73" on="0"/>
        <pt x="323" y="73" on="1"/>
        <pt x="337" y="73" on="0"/>
        <pt x="337" y="86" on="1"/>
        <pt x="337" y="92" on="0"/>
        <pt x="329" y="97" on="0"/>
        <pt x="320" y="99" on="0"/>
        <pt x="313" y="101" on="0"/>
        <pt x="313" y="104" on="1"/>
        <pt x="313" y="108" on="0"/>
        <pt x="318" y="108" on="1"/>
        <pt x="323" y="108" on="0"/>
        <pt x="328" y="101" on="1"/>
        <pt x="335" y="101" on="1"/>
        <pt x="335" y="114" on="1"/>
        <pt x="329" y="114" on="1"/>
        <pt x="327" y="109" on="1"/>
        <pt x="324" y="114" on="0"/>
        <pt x="316" y="114" on="1"/>
        <pt x="309" y="114" on="0"/>
        <pt x="302" y="107" on="0"/>
        <pt x="302" y="102" on="1"/>
        <pt x="302" y="96" on="0"/>
        <pt x="309" y="91" on="0"/>
        <pt x="318" y="88" on="0"/>
        <pt x="326" y="86" on="0"/>
        <pt x="326" y="83" on="1"/>
        <pt x="326" y="79" on="0"/>
        <pt x="321" y="79" on="1"/>
        <pt x="315" y="79" on="0"/>
        <pt x="309" y="88" on="1"/>
        <pt x="302" y="88" on="1"/>
      </contour>
      <contour>
        <pt x="352" y="73" on="1"/>
        <pt x="358" y="73" on="1"/>
        <pt x="362" y="81" on="1"/>
        <pt x="367" y="73" on="0"/>
        <pt x="376" y="73" on="1"/>
        <pt x="385" y="73" on="0"/>
        <pt x="392" y="87" on="0"/>
        <pt x="392" y="94" on="1"/>
        <pt x="392" y="114" on="0"/>
        <pt x="377" y="114" on="1"/>
        <pt x="367" y="114" on="0"/>
        <pt x="364" y="105" on="1"/>
        <pt x="364" y="132" on="1"/>
        <pt x="346" y="132" on="1"/>
        <pt x="346" y="125" on="1"/>
        <pt x="352" y="125" on="1"/>
      </contour>
      <contour>
        <pt x="405" y="65" on="1"/>
        <pt x="407" y="67" on="0"/>
        <pt x="407" y="69" on="1"/>
        <pt x="407" y="75" on="0"/>
        <pt x="400" y="75" on="1"/>
        <pt x="393" y="75" on="0"/>
        <pt x="393" y="68" on="1"/>
        <pt x="393" y="59" on="0"/>
        <pt x="404" y="59" on="1"/>
        <pt x="416" y="59" on="0"/>
        <pt x="422" y="75" on="1"/>
        <pt x="435" y="106" on="1"/>
        <pt x="440" y="106" on="1"/>
        <pt x="440" y="113" on="1"/>
        <pt x="423" y="113" on="1"/>
        <pt x="423" y="106" on="1"/>
        <pt x="428" y="106" on="1"/>
        <pt x="420" y="86" on="1"/>
        <pt x="411" y="106" on="1"/>
        <pt x="417" y="106" on="1"/>
        <pt x="417" y="113" on="1"/>
        <pt x="392" y="113" on="1"/>
        <pt x="392" y="106" on="1"/>
        <pt x="397" y="106" on="1"/>
        <pt x="399" y="99" on="0"/>
        <pt x="403" y="93" on="1"/>
        <pt x="405" y="88" on="0"/>
        <pt x="411" y="77" on="0"/>
        <pt x="413" y="73" on="1"/>
        <pt x="411" y="65" on="0"/>
      </contour>
      <contour>
        <pt x="446" y="33" on="1"/>
        <pt x="446" y="26" on="1"/>
        <pt x="452" y="26" on="1"/>
        <pt x="450" y="21" on="0"/>
        <pt x="446" y="17" on="1"/>
        <pt x="443" y="20" on="0"/>
        <pt x="438" y="26" on="0"/>
        <pt x="434" y="30" on="1"/>
        <pt x="445" y="35" on="0"/>
        <pt x="445" y="42" on="1"/>
        <pt x="445" y="47" on="0"/>
        <pt x="438" y="54" on="0"/>
        <pt x="431" y="54" on="1"/>
        <pt x="423" y="54" on="0"/>
        <pt x="414" y="45" on="0"/>
        <pt x="414" y="40" on="1"/>
        <pt x="414" y="34" on="0"/>
        <pt x="420" y="28" on="1"/>
        <pt x="407" y="24" on="0"/>
        <pt x="407" y="13" on="1"/>
        <pt x="407" y="-1" on="0"/>
        <pt x="425" y="-1" on="1"/>
        <pt x="434" y="-1" on="0"/>
        <pt x="440" y="5" on="1"/>
        <pt x="445" y="-1" on="0"/>
        <pt x="452" y="-1" on="1"/>
        <pt x="462" y="-1" on="0"/>
        <pt x="465" y="11" on="1"/>
        <pt x="460" y="12" on="1"/>
        <pt x="459" y="7" on="0"/>
        <pt x="456" y="7" on="1"/>
        <pt x="453" y="7" on="0"/>
        <pt x="450" y="12" on="1"/>
        <pt x="452" y="15" on="0"/>
        <pt x="457" y="21" on="0"/>
        <pt x="459" y="26" on="1"/>
        <pt x="464" y="26" on="1"/>
        <pt x="464" y="33" on="1"/>
      </contour>
      <contour>
        <pt x="294" y="42" on="1"/>
        <pt x="294" y="50" on="0"/>
        <pt x="298" y="54" on="0"/>
        <pt x="300" y="54" on="1"/>
        <pt x="301" y="54" on="0"/>
        <pt x="301" y="53" on="0"/>
        <pt x="302" y="53" on="1"/>
        <pt x="303" y="53" on="1"/>
        <pt x="302" y="52" on="1"/>
        <pt x="302" y="50" on="1"/>
        <pt x="302" y="44" on="0"/>
        <pt x="308" y="44" on="1"/>
        <pt x="308" y="39" on="1"/>
        <pt x="294" y="39" on="1"/>
      </contour>
      <contour>
        <pt x="469" y="27" on="1"/>
        <pt x="469" y="-1" on="0"/>
        <pt x="498" y="-1" on="1"/>
        <pt x="520" y="-1" on="0"/>
        <pt x="522" y="22" on="1"/>
        <pt x="514" y="22" on="1"/>
        <pt x="512" y="6" on="0"/>
        <pt x="500" y="6" on="1"/>
        <pt x="484" y="6" on="0"/>
        <pt x="484" y="28" on="1"/>
        <pt x="484" y="50" on="0"/>
        <pt x="498" y="50" on="1"/>
        <pt x="508" y="50" on="0"/>
        <pt x="513" y="34" on="1"/>
        <pt x="521" y="34" on="1"/>
        <pt x="521" y="56" on="1"/>
        <pt x="513" y="56" on="1"/>
        <pt x="512" y="50" on="1"/>
        <pt x="505" y="57" on="0"/>
        <pt x="496" y="57" on="1"/>
        <pt x="485" y="57" on="0"/>
        <pt x="469" y="41" on="0"/>
      </contour>
      <contour>
        <pt x="431" y="33" on="1"/>
        <pt x="425" y="39" on="0"/>
        <pt x="425" y="43" on="1"/>
        <pt x="425" y="48" on="0"/>
        <pt x="430" y="48" on="1"/>
        <pt x="436" y="48" on="0"/>
        <pt x="436" y="42" on="1"/>
        <pt x="436" y="36" on="0"/>
      </contour>
      <contour>
        <pt x="273" y="18" on="1"/>
        <pt x="273" y="21" on="1"/>
        <pt x="273" y="40" on="0"/>
        <pt x="254" y="40" on="1"/>
        <pt x="246" y="40" on="0"/>
        <pt x="234" y="28" on="0"/>
        <pt x="234" y="19" on="1"/>
        <pt x="234" y="-1" on="0"/>
        <pt x="255" y="-1" on="1"/>
        <pt x="269" y="-1" on="0"/>
        <pt x="273" y="13" on="1"/>
        <pt x="266" y="13" on="1"/>
        <pt x="265" y="6" on="0"/>
        <pt x="257" y="6" on="1"/>
        <pt x="247" y="6" on="0"/>
        <pt x="247" y="18" on="1"/>
      </contour>
      <contour>
        <pt x="189" y="20" on="1"/>
        <pt x="189" y="10" on="0"/>
        <pt x="201" y="-1" on="0"/>
        <pt x="210" y="-1" on="1"/>
        <pt x="219" y="-1" on="0"/>
        <pt x="231" y="11" on="0"/>
        <pt x="231" y="20" on="1"/>
        <pt x="231" y="29" on="0"/>
        <pt x="219" y="40" on="0"/>
        <pt x="210" y="40" on="1"/>
        <pt x="201" y="40" on="0"/>
        <pt x="189" y="29" on="0"/>
      </contour>
      <contour>
        <pt x="525" y="20" on="1"/>
        <pt x="525" y="10" on="0"/>
        <pt x="537" y="-1" on="0"/>
        <pt x="546" y="-1" on="1"/>
        <pt x="555" y="-1" on="0"/>
        <pt x="567" y="11" on="0"/>
        <pt x="567" y="20" on="1"/>
        <pt x="567" y="29" on="0"/>
        <pt x="555" y="40" on="0"/>
        <pt x="546" y="40" on="1"/>
        <pt x="537" y="40" on="0"/>
        <pt x="525" y="29" on="0"/>
      </contour>
      <contour>
        <pt x="366" y="18" on="1"/>
        <pt x="366" y="21" on="1"/>
        <pt x="366" y="40" on="0"/>
        <pt x="347" y="40" on="1"/>
        <pt x="339" y="40" on="0"/>
        <pt x="327" y="28" on="0"/>
        <pt x="327" y="19" on="1"/>
        <pt x="327" y="-1" on="0"/>
        <pt x="348" y="-1" on="1"/>
        <pt x="362" y="-1" on="0"/>
        <pt x="366" y="13" on="1"/>
        <pt x="359" y="13" on="1"/>
        <pt x="358" y="6" on="0"/>
        <pt x="350" y="6" on="1"/>
        <pt x="340" y="6" on="0"/>
        <pt x="340" y="18" on="1"/>
      </contour>
      <contour>
        <pt x="247" y="23" on="1"/>
        <pt x="247" y="35" on="0"/>
        <pt x="254" y="35" on="1"/>
        <pt x="261" y="35" on="0"/>
        <pt x="261" y="23" on="1"/>
      </contour>
      <contour>
        <pt x="218" y="20" on="1"/>
        <pt x="218" y="4" on="0"/>
        <pt x="210" y="4" on="1"/>
        <pt x="202" y="4" on="0"/>
        <pt x="202" y="20" on="1"/>
        <pt x="202" y="35" on="0"/>
        <pt x="210" y="35" on="1"/>
        <pt x="218" y="35" on="0"/>
      </contour>
      <contour>
        <pt x="554" y="20" on="1"/>
        <pt x="554" y="4" on="0"/>
        <pt x="546" y="4" on="1"/>
        <pt x="538" y="4" on="0"/>
        <pt x="538" y="20" on="1"/>
        <pt x="538" y="35" on="0"/>
        <pt x="546" y="35" on="1"/>
        <pt x="554" y="35" on="0"/>
      </contour>
      <contour>
        <pt x="340" y="23" on="1"/>
        <pt x="340" y="35" on="0"/>
        <pt x="347" y="35" on="1"/>
        <pt x="354" y="35" on="0"/>
        <pt x="354" y="23" on="1"/>
      </contour>
      <contour>
        <pt x="276" y="0" on="1"/>
        <pt x="299" y="0" on="1"/>
        <pt x="299" y="7" on="1"/>
        <pt x="294" y="7" on="1"/>
        <pt x="294" y="32" on="1"/>
        <pt x="308" y="32" on="1"/>
        <pt x="308" y="7" on="1"/>
        <pt x="303" y="7" on="1"/>
        <pt x="303" y="0" on="1"/>
        <pt x="326" y="0" on="1"/>
        <pt x="326" y="7" on="1"/>
        <pt x="320" y="7" on="1"/>
        <pt x="320" y="59" on="1"/>
        <pt x="310" y="57" on="1"/>
        <pt x="306" y="59" on="0"/>
        <pt x="301" y="59" on="1"/>
        <pt x="293" y="59" on="0"/>
        <pt x="282" y="50" on="0"/>
        <pt x="282" y="40" on="1"/>
        <pt x="282" y="39" on="1"/>
        <pt x="275" y="39" on="1"/>
        <pt x="275" y="32" on="1"/>
        <pt x="282" y="32" on="1"/>
        <pt x="282" y="7" on="1"/>
        <pt x="276" y="7" on="1"/>
      </contour>
      <contour>
        <pt x="368" y="0" on="1"/>
        <pt x="394" y="0" on="1"/>
        <pt x="394" y="7" on="1"/>
        <pt x="386" y="7" on="1"/>
        <pt x="386" y="23" on="1"/>
        <pt x="390" y="32" on="0"/>
        <pt x="393" y="32" on="1"/>
        <pt x="393" y="31" on="1"/>
        <pt x="393" y="25" on="0"/>
        <pt x="399" y="25" on="1"/>
        <pt x="406" y="25" on="0"/>
        <pt x="406" y="32" on="1"/>
        <pt x="406" y="40" on="0"/>
        <pt x="398" y="40" on="1"/>
        <pt x="390" y="40" on="0"/>
        <pt x="386" y="29" on="1"/>
        <pt x="386" y="39" on="1"/>
        <pt x="368" y="39" on="1"/>
        <pt x="368" y="32" on="1"/>
        <pt x="374" y="32" on="1"/>
        <pt x="374" y="7" on="1"/>
        <pt x="368" y="7" on="1"/>
      </contour>
      <contour>
        <pt x="437" y="9" on="1"/>
        <pt x="432" y="6" on="0"/>
        <pt x="429" y="6" on="1"/>
        <pt x="419" y="6" on="0"/>
        <pt x="419" y="16" on="1"/>
        <pt x="419" y="21" on="0"/>
        <pt x="423" y="25" on="1"/>
        <pt x="427" y="21" on="0"/>
        <pt x="433" y="14" on="0"/>
      </contour>
      <contour>
        <pt x="124" y="0" on="1"/>
        <pt x="153" y="0" on="1"/>
        <pt x="153" y="7" on="1"/>
        <pt x="145" y="7" on="1"/>
        <pt x="145" y="25" on="1"/>
        <pt x="167" y="25" on="1"/>
        <pt x="167" y="7" on="1"/>
        <pt x="159" y="7" on="1"/>
        <pt x="159" y="0" on="1"/>
        <pt x="188" y="0" on="1"/>
        <pt x="188" y="7" on="1"/>
        <pt x="180" y="7" on="1"/>
        <pt x="180" y="48" on="1"/>
        <pt x="188" y="48" on="1"/>
        <pt x="188" y="55" on="1"/>
        <pt x="159" y="55" on="1"/>
        <pt x="159" y="48" on="1"/>
        <pt x="167" y="48" on="1"/>
        <pt x="167" y="32" on="1"/>
        <pt x="145" y="32" on="1"/>
        <pt x="145" y="48" on="1"/>
        <pt x="153" y="48" on="1"/>
        <pt x="153" y="55" on="1"/>
        <pt x="124" y="55" on="1"/>
        <pt x="124" y="48" on="1"/>
        <pt x="132" y="48" on="1"/>
        <pt x="132" y="7" on="1"/>
        <pt x="124" y="7" on="1"/>
      </contour>
      <contour>
        <pt x="583" y="6" on="1"/>
        <pt x="583" y="13" on="0"/>
        <pt x="576" y="13" on="1"/>
        <pt x="569" y="13" on="0"/>
        <pt x="569" y="6" on="1"/>
        <pt x="569" y="-1" on="0"/>
        <pt x="576" y="-1" on="1"/>
        <pt x="583" y="-1" on="0"/>
      </contour>
    </TTGlyph>
    <TTGlyph name="hungarumlaut" xMin="134" yMin="628" xMax="631" yMax="901">
      <contour>
        <pt x="134" y="675" on="1"/>
        <pt x="149" y="699" on="0"/>
        <pt x="181" y="757" on="0"/>
        <pt x="211" y="818" on="0"/>
        <pt x="238" y="877" on="0"/>
        <pt x="247" y="901" on="1"/>
        <pt x="393" y="834" on="1"/>
        <pt x="376" y="809" on="0"/>
        <pt x="332" y="755" on="0"/>
        <pt x="284" y="701" on="0"/>
        <pt x="232" y="650" on="0"/>
        <pt x="208" y="629" on="1"/>
      </contour>
      <contour>
        <pt x="370" y="673" on="1"/>
        <pt x="401" y="721" on="0"/>
        <pt x="459" y="838" on="0"/>
        <pt x="478" y="890" on="1"/>
        <pt x="631" y="831" on="1"/>
        <pt x="614" y="806" on="0"/>
        <pt x="570" y="753" on="0"/>
        <pt x="521" y="700" on="0"/>
        <pt x="469" y="649" on="0"/>
        <pt x="444" y="628" on="1"/>
      </contour>
    </TTGlyph>
    <TTGlyph name="hungarumlaut.cap" xMin="134" yMin="628" xMax="631" yMax="901">
      <contour>
        <pt x="134" y="675" on="1"/>
        <pt x="149" y="699" on="0"/>
        <pt x="181" y="757" on="0"/>
        <pt x="211" y="818" on="0"/>
        <pt x="238" y="877" on="0"/>
        <pt x="247" y="901" on="1"/>
        <pt x="393" y="834" on="1"/>
        <pt x="376" y="809" on="0"/>
        <pt x="332" y="755" on="0"/>
        <pt x="284" y="701" on="0"/>
        <pt x="232" y="650" on="0"/>
        <pt x="208" y="629" on="1"/>
      </contour>
      <contour>
        <pt x="370" y="673" on="1"/>
        <pt x="401" y="721" on="0"/>
        <pt x="459" y="838" on="0"/>
        <pt x="478" y="890" on="1"/>
        <pt x="631" y="831" on="1"/>
        <pt x="614" y="806" on="0"/>
        <pt x="570" y="753" on="0"/>
        <pt x="521" y="700" on="0"/>
        <pt x="469" y="649" on="0"/>
        <pt x="444" y="628" on="1"/>
      </contour>
    </TTGlyph>
    <TTGlyph name="hyphen" xMin="136" yMin="269" xMax="497" yMax="403">
      <contour>
        <pt x="483" y="269" on="1"/>
        <pt x="136" y="269" on="1"/>
        <pt x="136" y="403" on="1"/>
        <pt x="497" y="403" on="1"/>
      </contour>
    </TTGlyph>
    <TTGlyph name="i" xMin="74" yMin="0" xMax="599" yMax="800">
      <contour>
        <pt x="251" y="639" on="1"/>
        <pt x="261" y="800" on="1"/>
        <pt x="427" y="800" on="1"/>
        <pt x="417" y="639" on="1"/>
      </contour>
      <contour>
        <pt x="78" y="0" on="1"/>
        <pt x="78" y="118" on="1"/>
        <pt x="259" y="118" on="1"/>
        <pt x="259" y="441" on="1"/>
        <pt x="74" y="450" on="1"/>
        <pt x="86" y="562" on="1"/>
        <pt x="418" y="562" on="1"/>
        <pt x="418" y="118" on="1"/>
        <pt x="599" y="118" on="1"/>
        <pt x="585" y="0" on="1"/>
      </contour>
    </TTGlyph>
    <TTGlyph name="iacute" xMin="74" yMin="0" xMax="599" yMax="886">
      <component glyphName="acute" x="47" y="0" flags="0x204"/>
      <component glyphName="dotlessi" x="0" y="0" flags="0x4"/>
    </TTGlyph>
    <TTGlyph name="ibreve" xMin="74" yMin="0" xMax="599" yMax="852">
      <component glyphName="dotlessi" x="0" y="0" flags="0x204"/>
      <component glyphName="breve" x="33" y="0" flags="0x4"/>
    </TTGlyph>
    <TTGlyph name="icircumflex" xMin="74" yMin="0" xMax="599" yMax="866">
      <component glyphName="circumflex" x="27" y="0" flags="0x204"/>
      <component glyphName="dotlessi" x="0" y="0" flags="0x4"/>
    </TTGlyph>
    <TTGlyph name="idieresis" xMin="74" yMin="0" xMax="599" yMax="800">
      <component glyphName="dieresis" x="27" y="0" flags="0x204"/>
      <component glyphName="dotlessi" x="0" y="0" flags="0x4"/>
    </TTGlyph>
    <TTGlyph name="igrave" xMin="74" yMin="0" xMax="599" yMax="888">
      <component glyphName="dotlessi" x="0" y="0" flags="0x204"/>
      <component glyphName="grave" x="-14" y="0" flags="0x4"/>
    </TTGlyph>
    <TTGlyph name="imacron" xMin="74" yMin="0" xMax="599" yMax="787">
      <component glyphName="dotlessi" x="0" y="0" flags="0x204"/>
      <component glyphName="macron" x="27" y="0" flags="0x4"/>
    </TTGlyph>
    <TTGlyph name="iogonek" xMin="74" yMin="-259" xMax="599" yMax="800">
      <contour>
        <pt x="251" y="639" on="1"/>
        <pt x="261" y="800" on="1"/>
        <pt x="427" y="800" on="1"/>
        <pt x="417" y="639" on="1"/>
      </contour>
      <contour>
        <pt x="421" y="-259" on="1"/>
        <pt x="353" y="-257" on="0"/>
        <pt x="258" y="-236" on="0"/>
        <pt x="198" y="-203" on="0"/>
        <pt x="171" y="-161" on="0"/>
        <pt x="171" y="-137" on="1"/>
        <pt x="171" y="-104" on="0"/>
        <pt x="218" y="-36" on="0"/>
        <pt x="269" y="0" on="1"/>
        <pt x="78" y="0" on="1"/>
        <pt x="78" y="118" on="1"/>
        <pt x="259" y="118" on="1"/>
        <pt x="259" y="441" on="1"/>
        <pt x="74" y="450" on="1"/>
        <pt x="86" y="562" on="1"/>
        <pt x="418" y="562" on="1"/>
        <pt x="418" y="118" on="1"/>
        <pt x="599" y="118" on="1"/>
        <pt x="585" y="0" on="1"/>
        <pt x="410" y="0" on="1"/>
        <pt x="359" y="-29" on="0"/>
        <pt x="321" y="-74" on="0"/>
        <pt x="321" y="-91" on="1"/>
        <pt x="321" y="-108" on="0"/>
        <pt x="371" y="-132" on="0"/>
        <pt x="434" y="-137" on="1"/>
      </contour>
    </TTGlyph>
    <TTGlyph name="j" xMin="71" yMin="-194" xMax="465" yMax="800">
      <contour>
        <pt x="294" y="639" on="1"/>
        <pt x="300" y="800" on="1"/>
        <pt x="465" y="800" on="1"/>
        <pt x="460" y="639" on="1"/>
      </contour>
      <contour>
        <pt x="464" y="562" on="1"/>
        <pt x="464" y="83" on="1"/>
        <pt x="464" y="20" on="0"/>
        <pt x="423" y="-81" on="0"/>
        <pt x="331" y="-153" on="0"/>
        <pt x="180" y="-193" on="0"/>
        <pt x="71" y="-194" on="1"/>
        <pt x="77" y="-48" on="1"/>
        <pt x="157" y="-46" on="0"/>
        <pt x="249" y="-39" on="0"/>
        <pt x="295" y="-20" on="0"/>
        <pt x="307" y="17" on="0"/>
        <pt x="307" y="49" on="1"/>
        <pt x="307" y="437" on="1"/>
        <pt x="91" y="450" on="1"/>
        <pt x="104" y="562" on="1"/>
      </contour>
    </TTGlyph>
    <TTGlyph name="k" xMin="89" yMin="-10" xMax="601" yMax="794">
      <contour>
        <pt x="297" y="232" on="1"/>
        <pt x="247" y="230" on="1"/>
        <pt x="247" y="0" on="1"/>
        <pt x="89" y="0" on="1"/>
        <pt x="89" y="780" on="1"/>
        <pt x="247" y="794" on="1"/>
        <pt x="247" y="342" on="1"/>
        <pt x="294" y="343" on="1"/>
        <pt x="330" y="396" on="0"/>
        <pt x="393" y="505" on="0"/>
        <pt x="422" y="565" on="1"/>
        <pt x="584" y="554" on="1"/>
        <pt x="548" y="491" on="0"/>
        <pt x="469" y="364" on="0"/>
        <pt x="426" y="303" on="1"/>
        <pt x="601" y="10" on="1"/>
        <pt x="432" y="-10" on="1"/>
      </contour>
    </TTGlyph>
    <TTGlyph name="kcommaaccent" xMin="89" yMin="-333" xMax="601" yMax="794">
      <component glyphName="commaaccent" x="18" y="-10" flags="0x204"/>
      <component glyphName="k" x="0" y="0" flags="0x4"/>
    </TTGlyph>
    <TTGlyph name="l" xMin="74" yMin="0" xMax="562" yMax="778">
      <contour>
        <pt x="74" y="0" on="1"/>
        <pt x="74" y="118" on="1"/>
        <pt x="238" y="118" on="1"/>
        <pt x="238" y="656" on="1"/>
        <pt x="76" y="665" on="1"/>
        <pt x="89" y="778" on="1"/>
        <pt x="397" y="778" on="1"/>
        <pt x="397" y="118" on="1"/>
        <pt x="562" y="118" on="1"/>
        <pt x="549" y="0" on="1"/>
      </contour>
    </TTGlyph>
    <TTGlyph name="lacute" xMin="74" yMin="0" xMax="562" yMax="1102">
      <component glyphName="acute" x="26" y="216" flags="0x204"/>
      <component glyphName="l" x="0" y="0" flags="0x4"/>
    </TTGlyph>
    <TTGlyph name="lcaron" xMin="74" yMin="0" xMax="634" yMax="898">
      <component glyphName="caron.alt" x="255" y="0" flags="0x204"/>
      <component glyphName="l" x="0" y="0" flags="0x4"/>
    </TTGlyph>
    <TTGlyph name="lcommaaccent" xMin="74" yMin="-323" xMax="562" yMax="778">
      <component glyphName="commaaccent" x="8" y="0" flags="0x204"/>
      <component glyphName="l" x="0" y="0" flags="0x4"/>
    </TTGlyph>
    <TTGlyph name="ldot" xMin="74" yMin="0" xMax="699" yMax="778">
      <contour>
        <pt x="74" y="0" on="1"/>
        <pt x="74" y="118" on="1"/>
        <pt x="238" y="118" on="1"/>
        <pt x="238" y="656" on="1"/>
        <pt x="76" y="665" on="1"/>
        <pt x="89" y="778" on="1"/>
        <pt x="397" y="778" on="1"/>
        <pt x="397" y="118" on="1"/>
        <pt x="562" y="118" on="1"/>
        <pt x="549" y="0" on="1"/>
      </contour>
      <contour>
        <pt x="546" y="282" on="1"/>
        <pt x="556" y="446" on="1"/>
        <pt x="699" y="446" on="1"/>
        <pt x="690" y="282" on="1"/>
      </contour>
    </TTGlyph>
    <TTGlyph name="less" xMin="88" yMin="-29" xMax="541" yMax="694">
      <contour>
        <pt x="541" y="582" on="1"/>
        <pt x="229" y="339" on="1"/>
        <pt x="229" y="325" on="1"/>
        <pt x="540" y="84" on="1"/>
        <pt x="452" y="-29" on="1"/>
        <pt x="88" y="266" on="1"/>
        <pt x="88" y="396" on="1"/>
        <pt x="458" y="694" on="1"/>
      </contour>
    </TTGlyph>
    <TTGlyph name="lessequal" xMin="77" yMin="-1" xMax="549" yMax="694">
      <contour>
        <pt x="549" y="-1" on="1"/>
        <pt x="77" y="-1" on="1"/>
        <pt x="77" y="131" on="1"/>
        <pt x="549" y="131" on="1"/>
      </contour>
      <contour>
        <pt x="247" y="416" on="1"/>
        <pt x="532" y="292" on="1"/>
        <pt x="482" y="170" on="1"/>
        <pt x="81" y="354" on="1"/>
        <pt x="84" y="471" on="1"/>
        <pt x="471" y="694" on="1"/>
        <pt x="532" y="576" on="1"/>
        <pt x="247" y="424" on="1"/>
      </contour>
    </TTGlyph>
    <TTGlyph name="lslash" xMin="74" yMin="0" xMax="562" yMax="778">
      <contour>
        <pt x="74" y="0" on="1"/>
        <pt x="74" y="118" on="1"/>
        <pt x="238" y="118" on="1"/>
        <pt x="238" y="314" on="1"/>
        <pt x="130" y="261" on="1"/>
        <pt x="107" y="361" on="1"/>
        <pt x="238" y="426" on="1"/>
        <pt x="238" y="656" on="1"/>
        <pt x="76" y="665" on="1"/>
        <pt x="89" y="778" on="1"/>
        <pt x="397" y="778" on="1"/>
        <pt x="397" y="505" on="1"/>
        <pt x="497" y="554" on="1"/>
        <pt x="520" y="454" on="1"/>
        <pt x="397" y="393" on="1"/>
        <pt x="397" y="118" on="1"/>
        <pt x="562" y="118" on="1"/>
        <pt x="549" y="0" on="1"/>
      </contour>
    </TTGlyph>
    <TTGlyph name="m" xMin="45" yMin="0" xMax="581" yMax="577">
      <contour>
        <pt x="235" y="443" on="1"/>
        <pt x="211" y="443" on="0"/>
        <pt x="191" y="426" on="1"/>
        <pt x="192" y="345" on="0"/>
        <pt x="193" y="130" on="0"/>
        <pt x="193" y="0" on="1"/>
        <pt x="49" y="0" on="1"/>
        <pt x="49" y="97" on="0"/>
        <pt x="49" y="261" on="0"/>
        <pt x="48" y="397" on="0"/>
        <pt x="46" y="510" on="0"/>
        <pt x="45" y="557" on="1"/>
        <pt x="179" y="565" on="1"/>
        <pt x="183" y="520" on="1"/>
        <pt x="205" y="544" on="0"/>
        <pt x="260" y="577" on="0"/>
        <pt x="293" y="577" on="1"/>
        <pt x="326" y="577" on="0"/>
        <pt x="364" y="545" on="0"/>
        <pt x="372" y="518" on="1"/>
        <pt x="393" y="543" on="0"/>
        <pt x="449" y="577" on="0"/>
        <pt x="487" y="577" on="1"/>
        <pt x="537" y="577" on="0"/>
        <pt x="581" y="510" on="0"/>
        <pt x="581" y="446" on="1"/>
        <pt x="581" y="0" on="1"/>
        <pt x="437" y="0" on="1"/>
        <pt x="437" y="394" on="1"/>
        <pt x="437" y="423" on="0"/>
        <pt x="419" y="443" on="0"/>
        <pt x="404" y="443" on="1"/>
        <pt x="383" y="443" on="0"/>
        <pt x="368" y="428" on="1"/>
        <pt x="368" y="424" on="1"/>
        <pt x="368" y="0" on="1"/>
        <pt x="263" y="0" on="1"/>
        <pt x="263" y="394" on="1"/>
        <pt x="263" y="423" on="0"/>
        <pt x="248" y="443" on="0"/>
      </contour>
    </TTGlyph>
    <TTGlyph name="macron" xMin="112" yMin="653" xMax="512" yMax="787">
      <contour>
        <pt x="512" y="653" on="1"/>
        <pt x="112" y="653" on="1"/>
        <pt x="112" y="787" on="1"/>
        <pt x="512" y="787" on="1"/>
      </contour>
    </TTGlyph>
    <TTGlyph name="macron.cap" xMin="112" yMin="653" xMax="512" yMax="787">
      <contour>
        <pt x="512" y="653" on="1"/>
        <pt x="112" y="653" on="1"/>
        <pt x="112" y="787" on="1"/>
        <pt x="512" y="787" on="1"/>
      </contour>
    </TTGlyph>
    <TTGlyph name="minus" xMin="79" yMin="270" xMax="545" yMax="402">
      <contour>
        <pt x="545" y="270" on="1"/>
        <pt x="79" y="270" on="1"/>
        <pt x="79" y="402" on="1"/>
        <pt x="545" y="402" on="1"/>
      </contour>
    </TTGlyph>
    <TTGlyph name="mu" xMin="74" yMin="-195" xMax="555" yMax="566">
      <contour>
        <pt x="74" y="-195" on="1"/>
        <pt x="74" y="557" on="1"/>
        <pt x="231" y="566" on="1"/>
        <pt x="231" y="215" on="1"/>
        <pt x="231" y="158" on="0"/>
        <pt x="271" y="118" on="0"/>
        <pt x="306" y="118" on="1"/>
        <pt x="330" y="118" on="0"/>
        <pt x="371" y="131" on="0"/>
        <pt x="391" y="144" on="1"/>
        <pt x="389" y="224" on="0"/>
        <pt x="388" y="435" on="0"/>
        <pt x="388" y="562" on="1"/>
        <pt x="545" y="562" on="1"/>
        <pt x="545" y="464" on="0"/>
        <pt x="546" y="301" on="0"/>
        <pt x="549" y="165" on="0"/>
        <pt x="552" y="52" on="0"/>
        <pt x="555" y="4" on="1"/>
        <pt x="412" y="-3" on="1"/>
        <pt x="404" y="59" on="1"/>
        <pt x="379" y="29" on="0"/>
        <pt x="315" y="-14" on="0"/>
        <pt x="271" y="-14" on="1"/>
        <pt x="244" y="-14" on="0"/>
        <pt x="223" y="-5" on="1"/>
        <pt x="227" y="-182" on="1"/>
      </contour>
    </TTGlyph>
    <TTGlyph name="multiply" xMin="64" yMin="84" xMax="562" yMax="586">
      <contour>
        <pt x="311" y="238" on="1"/>
        <pt x="164" y="89" on="1"/>
        <pt x="68" y="183" on="1"/>
        <pt x="217" y="333" on="1"/>
        <pt x="64" y="488" on="1"/>
        <pt x="164" y="586" on="1"/>
        <pt x="315" y="433" on="1"/>
        <pt x="462" y="582" on="1"/>
        <pt x="558" y="488" on="1"/>
        <pt x="409" y="337" on="1"/>
        <pt x="562" y="181" on="1"/>
        <pt x="463" y="84" on="1"/>
      </contour>
    </TTGlyph>
    <TTGlyph name="n" xMin="70" yMin="0" xMax="552" yMax="577">
      <contour>
        <pt x="319" y="443" on="1"/>
        <pt x="295" y="443" on="0"/>
        <pt x="253" y="429" on="0"/>
        <pt x="233" y="416" on="1"/>
        <pt x="235" y="335" on="0"/>
        <pt x="238" y="125" on="0"/>
        <pt x="238" y="0" on="1"/>
        <pt x="80" y="0" on="1"/>
        <pt x="80" y="97" on="0"/>
        <pt x="79" y="261" on="0"/>
        <pt x="77" y="397" on="0"/>
        <pt x="73" y="510" on="0"/>
        <pt x="70" y="557" on="1"/>
        <pt x="217" y="565" on="1"/>
        <pt x="225" y="503" on="1"/>
        <pt x="257" y="533" on="0"/>
        <pt x="340" y="577" on="0"/>
        <pt x="397" y="577" on="1"/>
        <pt x="469" y="577" on="0"/>
        <pt x="552" y="487" on="0"/>
        <pt x="552" y="384" on="1"/>
        <pt x="552" y="0" on="1"/>
        <pt x="394" y="0" on="1"/>
        <pt x="394" y="327" on="1"/>
        <pt x="394" y="394" on="0"/>
        <pt x="353" y="443" on="0"/>
      </contour>
    </TTGlyph>
    <TTGlyph name="nacute" xMin="70" yMin="0" xMax="552" yMax="902">
      <component glyphName="acute" x="19" y="16" flags="0x204"/>
      <component glyphName="n" x="0" y="0" flags="0x4"/>
    </TTGlyph>
    <TTGlyph name="naira" xMin="38" yMin="0" xMax="601" yMax="688">
      <contour>
        <pt x="420" y="269" on="1"/>
        <pt x="419" y="418" on="1"/>
        <pt x="348" y="418" on="1"/>
        <pt x="414" y="269" on="1"/>
      </contour>
      <contour>
        <pt x="227" y="253" on="1"/>
        <pt x="303" y="253" on="1"/>
        <pt x="232" y="412" on="1"/>
        <pt x="226" y="412" on="1"/>
      </contour>
      <contour>
        <pt x="348" y="153" on="1"/>
        <pt x="228" y="153" on="1"/>
        <pt x="229" y="0" on="1"/>
        <pt x="102" y="0" on="1"/>
        <pt x="102" y="154" on="1"/>
        <pt x="38" y="154" on="1"/>
        <pt x="38" y="278" on="1"/>
        <pt x="102" y="278" on="1"/>
        <pt x="102" y="393" on="1"/>
        <pt x="38" y="393" on="1"/>
        <pt x="38" y="516" on="1"/>
        <pt x="102" y="516" on="1"/>
        <pt x="102" y="688" on="1"/>
        <pt x="229" y="688" on="1"/>
        <pt x="304" y="518" on="1"/>
        <pt x="418" y="518" on="1"/>
        <pt x="417" y="688" on="1"/>
        <pt x="538" y="688" on="1"/>
        <pt x="538" y="516" on="1"/>
        <pt x="601" y="516" on="1"/>
        <pt x="601" y="393" on="1"/>
        <pt x="538" y="393" on="1"/>
        <pt x="538" y="278" on="1"/>
        <pt x="600" y="278" on="1"/>
        <pt x="600" y="154" on="1"/>
        <pt x="538" y="154" on="1"/>
        <pt x="538" y="0" on="1"/>
        <pt x="417" y="0" on="1"/>
      </contour>
    </TTGlyph>
    <TTGlyph name="ncaron" xMin="70" yMin="0" xMax="552" yMax="875">
      <component glyphName="caron" x="6" y="16" flags="0x204"/>
      <component glyphName="n" x="0" y="0" flags="0x4"/>
    </TTGlyph>
    <TTGlyph name="ncommaaccent" xMin="70" yMin="-323" xMax="552" yMax="577">
      <component glyphName="commaaccent" x="18" y="0" flags="0x204"/>
      <component glyphName="n" x="0" y="0" flags="0x4"/>
    </TTGlyph>
</ttFont>
